<?xml version="1.0" encoding="UTF-8" standalone="no"?>
<!DOCTYPE svg PUBLIC "-//W3C//DTD SVG 1.1//EN"
 "http://www.w3.org/Graphics/SVG/1.1/DTD/svg11.dtd">
<!-- Generated by graphviz version 12.1.2 (20240928.0832)
 -->
<!-- Pages: 1 -->
<svg width="2338pt" height="346pt"
 viewBox="0.00 0.00 2337.75 345.50" xmlns="http://www.w3.org/2000/svg" xmlns:xlink="http://www.w3.org/1999/xlink">
<g id="graph0" class="graph" transform="scale(1 1) rotate(0) translate(4 341.5)">
<polygon fill="#ffffff" stroke="none" points="-4,4 -4,-341.5 2333.75,-341.5 2333.75,4 -4,4"/>
<!-- CAN Control -->
<g id="node1" class="node">
<title>CAN Control</title>
<polygon fill="#ffffff" stroke="black" points="139,-245.5 0,-245.5 0,-106 139,-106 139,-245.5"/>
<polygon fill="none" stroke="black" points="0,-221.75 0,-245.5 139,-245.5 139,-221.75 0,-221.75"/>
<text text-anchor="start" x="31.62" y="-228.2" font-family="arial" font-size="14.00">CAN Control</text>
<polygon fill="none" stroke="black" points="0,-198 0,-221.75 101,-221.75 101,-198 0,-198"/>
<text text-anchor="start" x="4" y="-204.45" font-family="arial" font-size="14.00">Molex Micro Fit</text>
<polygon fill="none" stroke="black" points="101,-198 101,-221.75 139,-221.75 139,-198 101,-198"/>
<text text-anchor="start" x="105" y="-204.45" font-family="arial" font-size="14.00">4&#45;pin</text>
<polygon fill="none" stroke="black" points="0,-175 0,-198 81,-198 81,-175 0,-175"/>
<text text-anchor="start" x="28.5" y="-180.7" font-family="arial" font-size="14.00">24V</text>
<polygon fill="none" stroke="black" points="81,-175 81,-198 139,-198 139,-175 81,-175"/>
<text text-anchor="start" x="106.25" y="-180.7" font-family="arial" font-size="14.00">1</text>
<polygon fill="none" stroke="black" points="0,-152 0,-175 81,-175 81,-152 0,-152"/>
<text text-anchor="start" x="25.12" y="-157.7" font-family="arial" font-size="14.00">GND</text>
<polygon fill="none" stroke="black" points="81,-152 81,-175 139,-175 139,-152 81,-152"/>
<text text-anchor="start" x="106.25" y="-157.7" font-family="arial" font-size="14.00">2</text>
<polygon fill="none" stroke="black" points="0,-129 0,-152 81,-152 81,-129 0,-129"/>
<text text-anchor="start" x="26.62" y="-134.7" font-family="arial" font-size="14.00">High</text>
<polygon fill="none" stroke="black" points="81,-129 81,-152 139,-152 139,-129 81,-129"/>
<text text-anchor="start" x="106.25" y="-134.7" font-family="arial" font-size="14.00">3</text>
<polygon fill="none" stroke="black" points="0,-106 0,-129 81,-129 81,-106 0,-106"/>
<text text-anchor="start" x="28.12" y="-111.7" font-family="arial" font-size="14.00">Low</text>
<polygon fill="none" stroke="black" points="81,-106 81,-129 139,-129 139,-106 81,-106"/>
<text text-anchor="start" x="106.25" y="-111.7" font-family="arial" font-size="14.00">4</text>
</g>
<!-- W2 -->
<g id="node5" class="node">
<title>W2</title>
<polygon fill="#ffffff" stroke="black" points="1233,-337.5 964,-337.5 964,-202 1233,-202 1233,-337.5"/>
<polygon fill="none" stroke="black" points="964,-313.75 964,-337.5 1233,-337.5 1233,-313.75 964,-313.75"/>
<text text-anchor="start" x="1088" y="-320.2" font-family="arial" font-size="14.00">W2</text>
<polygon fill="none" stroke="black" points="964,-290 964,-313.75 1233,-313.75 1233,-290 964,-290"/>
<text text-anchor="start" x="1091.38" y="-296.45" font-family="arial" font-size="14.00">2x</text>
<text text-anchor="start" x="1024.62" y="-274.7" font-family="arial" font-size="14.00"> </text>
<text text-anchor="start" x="969.12" y="-255.7" font-family="arial" font-size="14.00">CAN Control:1:24V</text>
<text text-anchor="start" x="1090.88" y="-255.7" font-family="arial" font-size="14.00"> &#160;&#160;&#160;&#160;1 &#160;&#160;&#160;</text>
<text text-anchor="start" x="1139.25" y="-255.7" font-family="arial" font-size="14.00">Ferrules:1:24V</text>
<polygon fill="#000000" stroke="none" points="964,-250 964,-252 1233,-252 1233,-250 964,-250"/>
<polygon fill="#ffffff" stroke="none" points="964,-248 964,-250 1233,-250 1233,-248 964,-248"/>
<polygon fill="#000000" stroke="none" points="964,-246 964,-248 1233,-248 1233,-246 964,-246"/>
<text text-anchor="start" x="965.75" y="-230.7" font-family="arial" font-size="14.00">CAN Control:2:GND</text>
<text text-anchor="start" x="1090.88" y="-230.7" font-family="arial" font-size="14.00"> &#160;&#160;&#160;&#160;2 &#160;&#160;&#160;</text>
<text text-anchor="start" x="1135.88" y="-230.7" font-family="arial" font-size="14.00">Ferrules:2:GND</text>
<polygon fill="#000000" stroke="none" points="964,-225 964,-227 1233,-227 1233,-225 964,-225"/>
<polygon fill="#ffffff" stroke="none" points="964,-223 964,-225 1233,-225 1233,-223 964,-223"/>
<polygon fill="#000000" stroke="none" points="964,-221 964,-223 1233,-223 1233,-221 964,-221"/>
<text text-anchor="start" x="1024.62" y="-205.7" font-family="arial" font-size="14.00"> </text>
</g>
<!-- CAN Control&#45;&#45;W2 -->
<g id="edge1" class="edge">
<title>CAN Control:e&#45;&#45;W2:w</title>
<path fill="none" stroke="#000000" stroke-width="2" d="M139,-184.5C209.51,-186.12 217.63,-228.53 283.37,-239.79 579.28,-296.76 660.27,-247.29 964,-247"/>
<path fill="none" stroke="#ffffff" stroke-width="2" d="M139,-186.5C207.55,-186.5 215.67,-228.9 283,-241.75 580.32,-298.47 661.32,-249 964,-249"/>
<path fill="none" stroke="#000000" stroke-width="2" d="M139,-188.5C205.58,-186.88 213.7,-229.28 282.63,-243.71 581.36,-300.18 662.36,-250.71 964,-251"/>
</g>
<!-- CAN Control&#45;&#45;W2 -->
<g id="edge3" class="edge">
<title>CAN Control:e&#45;&#45;W2:w</title>
<path fill="none" stroke="#000000" stroke-width="2" d="M139,-161.5C205.76,-162.33 219.94,-181.92 283.24,-188.76 583.86,-224.4 660.91,-222 964,-222"/>
<path fill="none" stroke="#ffffff" stroke-width="2" d="M139,-163.5C204.14,-163.5 218.32,-183.09 283,-190.75 583.92,-226.4 660.97,-224 964,-224"/>
<path fill="none" stroke="#000000" stroke-width="2" d="M139,-165.5C202.52,-164.67 216.7,-184.26 282.76,-192.74 583.99,-228.39 661.03,-226 964,-226"/>
</g>
<!-- W1 -->
<g id="node6" class="node">
<title>W1</title>
<polygon fill="#ffffff" stroke="black" points="537,-178.5 283,-178.5 283,-43 537,-43 537,-178.5"/>
<polygon fill="none" stroke="black" points="283,-154.75 283,-178.5 537,-178.5 537,-154.75 283,-154.75"/>
<text text-anchor="start" x="399.5" y="-161.2" font-family="arial" font-size="14.00">W1</text>
<polygon fill="none" stroke="black" points="283,-131 283,-154.75 391.25,-154.75 391.25,-131 283,-131"/>
<text text-anchor="start" x="330" y="-137.45" font-family="arial" font-size="14.00">2x</text>
<polygon fill="none" stroke="black" points="391.25,-131 391.25,-154.75 537,-154.75 537,-131 391.25,-131"/>
<text text-anchor="start" x="438.25" y="-137.45" font-family="arial" font-size="14.00">24 AWG</text>
<text text-anchor="start" x="342.12" y="-115.7" font-family="arial" font-size="14.00"> </text>
<text text-anchor="start" x="284.75" y="-96.7" font-family="arial" font-size="14.00">CAN Control:3:High</text>
<text text-anchor="start" x="406.88" y="-96.7" font-family="arial" font-size="14.00"> &#160;&#160;&#160;&#160;1 &#160;&#160;&#160;</text>
<text text-anchor="start" x="451.88" y="-96.7" font-family="arial" font-size="14.00">Heater:3:High</text>
<polygon fill="#000000" stroke="none" points="283,-91 283,-93 537,-93 537,-91 283,-91"/>
<polygon fill="#ffffff" stroke="none" points="283,-89 283,-91 537,-91 537,-89 283,-89"/>
<polygon fill="#000000" stroke="none" points="283,-87 283,-89 537,-89 537,-87 283,-87"/>
<text text-anchor="start" x="286.25" y="-71.7" font-family="arial" font-size="14.00">CAN Control:4:Low</text>
<text text-anchor="start" x="406.88" y="-71.7" font-family="arial" font-size="14.00"> &#160;&#160;&#160;&#160;2 &#160;&#160;&#160;</text>
<text text-anchor="start" x="453.38" y="-71.7" font-family="arial" font-size="14.00">Heater:4:Low</text>
<polygon fill="#000000" stroke="none" points="283,-66 283,-68 537,-68 537,-66 283,-66"/>
<polygon fill="#ffffff" stroke="none" points="283,-64 283,-66 537,-66 537,-64 283,-64"/>
<polygon fill="#000000" stroke="none" points="283,-62 283,-64 537,-64 537,-62 283,-62"/>
<text text-anchor="start" x="342.12" y="-46.7" font-family="arial" font-size="14.00"> </text>
</g>
<!-- CAN Control&#45;&#45;W1 -->
<g id="edge9" class="edge">
<title>CAN Control:e&#45;&#45;W1:w</title>
<path fill="none" stroke="#000000" stroke-width="2" d="M139,-138.5C204.85,-140.17 213.21,-89.67 283,-88"/>
<path fill="none" stroke="#ffffff" stroke-width="2" d="M139,-140.5C206.82,-140.5 215.18,-90 283,-90"/>
<path fill="none" stroke="#000000" stroke-width="2" d="M139,-142.5C208.79,-140.83 217.15,-90.33 283,-92"/>
</g>
<!-- CAN Control&#45;&#45;W1 -->
<g id="edge11" class="edge">
<title>CAN Control:e&#45;&#45;W1:w</title>
<path fill="none" stroke="#000000" stroke-width="2" d="M139,-115.5C205.14,-117.21 212.9,-64.71 283,-63"/>
<path fill="none" stroke="#ffffff" stroke-width="2" d="M139,-117.5C207.12,-117.5 214.88,-65 283,-65"/>
<path fill="none" stroke="#000000" stroke-width="2" d="M139,-119.5C209.1,-117.79 216.86,-65.29 283,-67"/>
</g>
<!-- Ferrules -->
<g id="node2" class="node">
<title>Ferrules</title>
<polygon fill="#ffffff" stroke="black" points="1640.75,-308.12 1377,-308.12 1377,-159.38 1640.75,-159.38 1640.75,-308.12"/>
<polygon fill="none" stroke="black" points="1377,-284.38 1377,-308.12 1640.75,-308.12 1640.75,-284.38 1377,-284.38"/>
<text text-anchor="start" x="1484.12" y="-290.82" font-family="arial" font-size="14.00">Ferrules</text>
<polygon fill="none" stroke="black" points="1377,-260.62 1377,-284.38 1518.62,-284.38 1518.62,-260.62 1377,-260.62"/>
<text text-anchor="start" x="1423.06" y="-267.07" font-family="arial" font-size="14.00">Ferrules</text>
<polygon fill="none" stroke="black" points="1518.62,-260.62 1518.62,-284.38 1640.75,-284.38 1640.75,-260.62 1518.62,-260.62"/>
<text text-anchor="start" x="1564.69" y="-267.07" font-family="arial" font-size="14.00">2&#45;pin</text>
<polygon fill="none" stroke="black" points="1377,-237.62 1377,-260.62 1457.25,-260.62 1457.25,-237.62 1377,-237.62"/>
<text text-anchor="start" x="1413.38" y="-243.32" font-family="arial" font-size="14.00">1</text>
<polygon fill="none" stroke="black" points="1457.25,-237.62 1457.25,-260.62 1560.5,-260.62 1560.5,-237.62 1457.25,-237.62"/>
<text text-anchor="start" x="1496.88" y="-243.32" font-family="arial" font-size="14.00">24V</text>
<polygon fill="none" stroke="black" points="1560.5,-237.62 1560.5,-260.62 1640.75,-260.62 1640.75,-237.62 1560.5,-237.62"/>
<text text-anchor="start" x="1596.88" y="-243.32" font-family="arial" font-size="14.00">1</text>
<polygon fill="none" stroke="black" points="1377,-214.62 1377,-237.62 1457.25,-237.62 1457.25,-214.62 1377,-214.62"/>
<text text-anchor="start" x="1413.38" y="-220.32" font-family="arial" font-size="14.00">2</text>
<polygon fill="none" stroke="black" points="1457.25,-214.62 1457.25,-237.62 1560.5,-237.62 1560.5,-214.62 1457.25,-214.62"/>
<text text-anchor="start" x="1493.5" y="-220.32" font-family="arial" font-size="14.00">GND</text>
<polygon fill="none" stroke="black" points="1560.5,-214.62 1560.5,-237.62 1640.75,-237.62 1640.75,-214.62 1560.5,-214.62"/>
<text text-anchor="start" x="1596.88" y="-220.32" font-family="arial" font-size="14.00">2</text>
<polygon fill="none" stroke="black" points="1377,-159.38 1377,-214.62 1640.75,-214.62 1640.75,-159.38 1377,-159.38"/>
<text text-anchor="start" x="1381" y="-197.32" font-family="arial" font-size="14.00">Ferrules to Corresponding Terminal Blocks</text>
<text text-anchor="start" x="1381" y="-181.57" font-family="arial" font-size="14.00">Phoenix Contact PTFIX 6/18X2,5&#45;NS35 </text>
<text text-anchor="start" x="1381" y="-165.82" font-family="arial" font-size="14.00">GN (3273118) + BK (3273124)</text>
</g>
<!-- W5 -->
<g id="node8" class="node">
<title>W5</title>
<polygon fill="#ffffff" stroke="black" points="2046.75,-325.5 1784.75,-325.5 1784.75,-190 2046.75,-190 2046.75,-325.5"/>
<polygon fill="none" stroke="black" points="1784.75,-301.75 1784.75,-325.5 2046.75,-325.5 2046.75,-301.75 1784.75,-301.75"/>
<text text-anchor="start" x="1905.25" y="-308.2" font-family="arial" font-size="14.00">W5</text>
<polygon fill="none" stroke="black" points="1784.75,-278 1784.75,-301.75 2046.75,-301.75 2046.75,-278 1784.75,-278"/>
<text text-anchor="start" x="1908.62" y="-284.45" font-family="arial" font-size="14.00">2x</text>
<text text-anchor="start" x="1832.38" y="-262.7" font-family="arial" font-size="14.00"> </text>
<text text-anchor="start" x="1790" y="-243.7" font-family="arial" font-size="14.00">Ferrules:1:24V</text>
<text text-anchor="start" x="1885.62" y="-243.7" font-family="arial" font-size="14.00"> &#160;&#160;&#160;&#160;1 &#160;&#160;&#160;</text>
<text text-anchor="start" x="1933.75" y="-243.7" font-family="arial" font-size="14.00">OMNI CAN:1:24V</text>
<polygon fill="#000000" stroke="none" points="1784.75,-238 1784.75,-240 2046.75,-240 2046.75,-238 1784.75,-238"/>
<polygon fill="#ffffff" stroke="none" points="1784.75,-236 1784.75,-238 2046.75,-238 2046.75,-236 1784.75,-236"/>
<polygon fill="#000000" stroke="none" points="1784.75,-234 1784.75,-236 2046.75,-236 2046.75,-234 1784.75,-234"/>
<text text-anchor="start" x="1786.62" y="-218.7" font-family="arial" font-size="14.00">Ferrules:2:GND</text>
<text text-anchor="start" x="1885.62" y="-218.7" font-family="arial" font-size="14.00"> &#160;&#160;&#160;&#160;2 &#160;&#160;&#160;</text>
<text text-anchor="start" x="1930.38" y="-218.7" font-family="arial" font-size="14.00">OMNI CAN:2:GND</text>
<polygon fill="#000000" stroke="none" points="1784.75,-213 1784.75,-215 2046.75,-215 2046.75,-213 1784.75,-213"/>
<polygon fill="#ffffff" stroke="none" points="1784.75,-211 1784.75,-213 2046.75,-213 2046.75,-211 1784.75,-211"/>
<polygon fill="#000000" stroke="none" points="1784.75,-209 1784.75,-211 2046.75,-211 2046.75,-209 1784.75,-209"/>
<text text-anchor="start" x="1832.38" y="-193.7" font-family="arial" font-size="14.00"> </text>
</g>
<!-- Ferrules&#45;&#45;W5 -->
<g id="edge17" class="edge">
<title>Ferrules:e&#45;&#45;W5:w</title>
<path fill="none" stroke="#000000" stroke-width="2" d="M1640.75,-247.13C1703.75,-247.55 1719.29,-235.42 1784.75,-235"/>
<path fill="none" stroke="#ffffff" stroke-width="2" d="M1640.75,-249.12C1704.98,-249.12 1720.52,-237 1784.75,-237"/>
<path fill="none" stroke="#000000" stroke-width="2" d="M1640.75,-251.12C1706.21,-250.7 1721.75,-238.58 1784.75,-239"/>
</g>
<!-- Ferrules&#45;&#45;W5 -->
<g id="edge19" class="edge">
<title>Ferrules:e&#45;&#45;W5:w</title>
<path fill="none" stroke="#000000" stroke-width="2" d="M1640.75,-224.13C1703.7,-224.65 1719.09,-210.53 1784.75,-210"/>
<path fill="none" stroke="#ffffff" stroke-width="2" d="M1640.75,-226.12C1705.06,-226.13 1720.44,-212 1784.75,-212"/>
<path fill="none" stroke="#000000" stroke-width="2" d="M1640.75,-228.12C1706.41,-227.6 1721.8,-213.47 1784.75,-214"/>
</g>
<!-- Heater -->
<g id="node3" class="node">
<title>Heater</title>
<polygon fill="#ffffff" stroke="black" points="820,-185.5 681,-185.5 681,-46 820,-46 820,-185.5"/>
<polygon fill="none" stroke="black" points="681,-161.75 681,-185.5 820,-185.5 820,-161.75 681,-161.75"/>
<text text-anchor="start" x="730.25" y="-168.2" font-family="arial" font-size="14.00">Heater</text>
<polygon fill="none" stroke="black" points="681,-138 681,-161.75 782,-161.75 782,-138 681,-138"/>
<text text-anchor="start" x="685" y="-144.45" font-family="arial" font-size="14.00">Molex Micro Fit</text>
<polygon fill="none" stroke="black" points="782,-138 782,-161.75 820,-161.75 820,-138 782,-138"/>
<text text-anchor="start" x="786" y="-144.45" font-family="arial" font-size="14.00">4&#45;pin</text>
<polygon fill="none" stroke="black" points="681,-115 681,-138 719.67,-138 719.67,-115 681,-115"/>
<text text-anchor="start" x="696.58" y="-120.7" font-family="arial" font-size="14.00">1</text>
<polygon fill="none" stroke="black" points="719.67,-115 719.67,-138 781.33,-138 781.33,-115 719.67,-115"/>
<text text-anchor="start" x="738.5" y="-120.7" font-family="arial" font-size="14.00">24V</text>
<polygon fill="none" stroke="black" points="781.33,-115 781.33,-138 820,-138 820,-115 781.33,-115"/>
<text text-anchor="start" x="796.92" y="-120.7" font-family="arial" font-size="14.00">1</text>
<polygon fill="none" stroke="black" points="681,-92 681,-115 719.67,-115 719.67,-92 681,-92"/>
<text text-anchor="start" x="696.58" y="-97.7" font-family="arial" font-size="14.00">2</text>
<polygon fill="none" stroke="black" points="719.67,-92 719.67,-115 781.33,-115 781.33,-92 719.67,-92"/>
<text text-anchor="start" x="735.12" y="-97.7" font-family="arial" font-size="14.00">GND</text>
<polygon fill="none" stroke="black" points="781.33,-92 781.33,-115 820,-115 820,-92 781.33,-92"/>
<text text-anchor="start" x="796.92" y="-97.7" font-family="arial" font-size="14.00">2</text>
<polygon fill="none" stroke="black" points="681,-69 681,-92 719.67,-92 719.67,-69 681,-69"/>
<text text-anchor="start" x="696.58" y="-74.7" font-family="arial" font-size="14.00">3</text>
<polygon fill="none" stroke="black" points="719.67,-69 719.67,-92 781.33,-92 781.33,-69 719.67,-69"/>
<text text-anchor="start" x="736.62" y="-74.7" font-family="arial" font-size="14.00">High</text>
<polygon fill="none" stroke="black" points="781.33,-69 781.33,-92 820,-92 820,-69 781.33,-69"/>
<text text-anchor="start" x="796.92" y="-74.7" font-family="arial" font-size="14.00">3</text>
<polygon fill="none" stroke="black" points="681,-46 681,-69 719.67,-69 719.67,-46 681,-46"/>
<text text-anchor="start" x="696.58" y="-51.7" font-family="arial" font-size="14.00">4</text>
<polygon fill="none" stroke="black" points="719.67,-46 719.67,-69 781.33,-69 781.33,-46 719.67,-46"/>
<text text-anchor="start" x="738.12" y="-51.7" font-family="arial" font-size="14.00">Low</text>
<polygon fill="none" stroke="black" points="781.33,-46 781.33,-69 820,-69 820,-46 781.33,-46"/>
<text text-anchor="start" x="796.92" y="-51.7" font-family="arial" font-size="14.00">4</text>
</g>
<!-- Heater&#45;&#45;W2 -->
<g id="edge5" class="edge">
<title>Heater:e&#45;&#45;W2:w</title>
<path fill="none" stroke="#000000" stroke-width="2" d="M820,-124.5C905.99,-126.89 881.94,-249.39 964,-247"/>
<path fill="none" stroke="#ffffff" stroke-width="2" d="M820,-126.5C904.02,-126.5 879.98,-249 964,-249"/>
<path fill="none" stroke="#000000" stroke-width="2" d="M820,-128.5C902.06,-126.11 878.01,-248.61 964,-251"/>
</g>
<!-- Heater&#45;&#45;W2 -->
<g id="edge7" class="edge">
<title>Heater:e&#45;&#45;W2:w</title>
<path fill="none" stroke="#000000" stroke-width="2" d="M820,-101.5C905.42,-103.87 882.51,-224.37 964,-222"/>
<path fill="none" stroke="#ffffff" stroke-width="2" d="M820,-103.5C903.45,-103.5 880.55,-224 964,-224"/>
<path fill="none" stroke="#000000" stroke-width="2" d="M820,-105.5C901.49,-103.13 878.58,-223.63 964,-226"/>
</g>
<!-- W3 -->
<g id="node7" class="node">
<title>W3</title>
<polygon fill="#ffffff" stroke="black" points="1632.38,-135.5 1385.38,-135.5 1385.38,0 1632.38,0 1632.38,-135.5"/>
<polygon fill="none" stroke="black" points="1385.38,-111.75 1385.38,-135.5 1632.38,-135.5 1632.38,-111.75 1385.38,-111.75"/>
<text text-anchor="start" x="1498.38" y="-118.2" font-family="arial" font-size="14.00">W3</text>
<polygon fill="none" stroke="black" points="1385.38,-88 1385.38,-111.75 1632.38,-111.75 1632.38,-88 1385.38,-88"/>
<text text-anchor="start" x="1501.75" y="-94.45" font-family="arial" font-size="14.00">2x</text>
<text text-anchor="start" x="1427" y="-72.7" font-family="arial" font-size="14.00"> </text>
<text text-anchor="start" x="1387.25" y="-53.7" font-family="arial" font-size="14.00">Heater:3:High</text>
<text text-anchor="start" x="1474.25" y="-53.7" font-family="arial" font-size="14.00"> &#160;&#160;&#160;&#160;1 &#160;&#160;&#160;</text>
<text text-anchor="start" x="1519" y="-53.7" font-family="arial" font-size="14.00">OMNI CAN:3:High</text>
<polygon fill="#000000" stroke="none" points="1385.38,-48 1385.38,-50 1632.38,-50 1632.38,-48 1385.38,-48"/>
<polygon fill="#ffffff" stroke="none" points="1385.38,-46 1385.38,-48 1632.38,-48 1632.38,-46 1385.38,-46"/>
<polygon fill="#000000" stroke="none" points="1385.38,-44 1385.38,-46 1632.38,-46 1632.38,-44 1385.38,-44"/>
<text text-anchor="start" x="1388.75" y="-28.7" font-family="arial" font-size="14.00">Heater:4:Low</text>
<text text-anchor="start" x="1474.25" y="-28.7" font-family="arial" font-size="14.00"> &#160;&#160;&#160;&#160;2 &#160;&#160;&#160;</text>
<text text-anchor="start" x="1520.5" y="-28.7" font-family="arial" font-size="14.00">OMNI CAN:4:Low</text>
<polygon fill="#000000" stroke="none" points="1385.38,-23 1385.38,-25 1632.38,-25 1632.38,-23 1385.38,-23"/>
<polygon fill="#ffffff" stroke="none" points="1385.38,-21 1385.38,-23 1632.38,-23 1632.38,-21 1385.38,-21"/>
<polygon fill="#000000" stroke="none" points="1385.38,-19 1385.38,-21 1632.38,-21 1632.38,-19 1385.38,-19"/>
<text text-anchor="start" x="1427" y="-3.7" font-family="arial" font-size="14.00"> </text>
</g>
<!-- Heater&#45;&#45;W3 -->
<g id="edge13" class="edge">
<title>Heater:e&#45;&#45;W3:w</title>
<path fill="none" stroke="#000000" stroke-width="2" d="M820,-78.5C1070.32,-78.74 1132.15,-45.24 1384.38,-45"/>
<path fill="none" stroke="#ffffff" stroke-width="2" d="M820,-80.5C1071.27,-80.5 1133.1,-47 1384.38,-47"/>
<path fill="none" stroke="#000000" stroke-width="2" d="M820,-82.5C1072.23,-82.26 1134.05,-48.76 1384.38,-49"/>
</g>
<!-- Heater&#45;&#45;W3 -->
<g id="edge15" class="edge">
<title>Heater:e&#45;&#45;W3:w</title>
<path fill="none" stroke="#000000" stroke-width="2" d="M820,-55.5C883.37,-55.69 899.1,-48.36 963.86,-43.75 1150.23,-30.91 1196.79,-20.05 1384.38,-20"/>
<path fill="none" stroke="#ffffff" stroke-width="2" d="M820,-57.5C884.21,-57.5 899.94,-50.17 964,-45.75 1150.69,-32.86 1197.24,-22 1384.38,-22"/>
<path fill="none" stroke="#000000" stroke-width="2" d="M820,-59.5C885.06,-59.31 900.78,-51.99 964.14,-47.75 1151.14,-34.81 1197.7,-23.95 1384.38,-24"/>
</g>
<!-- OMNI CAN -->
<g id="node4" class="node">
<title>OMNI CAN</title>
<polygon fill="#ffffff" stroke="black" points="2329.75,-270.5 2190.75,-270.5 2190.75,-131 2329.75,-131 2329.75,-270.5"/>
<polygon fill="none" stroke="black" points="2190.75,-246.75 2190.75,-270.5 2329.75,-270.5 2329.75,-246.75 2190.75,-246.75"/>
<text text-anchor="start" x="2225.75" y="-253.2" font-family="arial" font-size="14.00">OMNI CAN</text>
<polygon fill="none" stroke="black" points="2190.75,-223 2190.75,-246.75 2291.75,-246.75 2291.75,-223 2190.75,-223"/>
<text text-anchor="start" x="2194.75" y="-229.45" font-family="arial" font-size="14.00">Molex Micro Fit</text>
<polygon fill="none" stroke="black" points="2291.75,-223 2291.75,-246.75 2329.75,-246.75 2329.75,-223 2291.75,-223"/>
<text text-anchor="start" x="2295.75" y="-229.45" font-family="arial" font-size="14.00">4&#45;pin</text>
<polygon fill="none" stroke="black" points="2190.75,-200 2190.75,-223 2248.75,-223 2248.75,-200 2190.75,-200"/>
<text text-anchor="start" x="2216" y="-205.7" font-family="arial" font-size="14.00">1</text>
<polygon fill="none" stroke="black" points="2248.75,-200 2248.75,-223 2329.75,-223 2329.75,-200 2248.75,-200"/>
<text text-anchor="start" x="2277.25" y="-205.7" font-family="arial" font-size="14.00">24V</text>
<polygon fill="none" stroke="black" points="2190.75,-177 2190.75,-200 2248.75,-200 2248.75,-177 2190.75,-177"/>
<text text-anchor="start" x="2216" y="-182.7" font-family="arial" font-size="14.00">2</text>
<polygon fill="none" stroke="black" points="2248.75,-177 2248.75,-200 2329.75,-200 2329.75,-177 2248.75,-177"/>
<text text-anchor="start" x="2273.88" y="-182.7" font-family="arial" font-size="14.00">GND</text>
<polygon fill="none" stroke="black" points="2190.75,-154 2190.75,-177 2248.75,-177 2248.75,-154 2190.75,-154"/>
<text text-anchor="start" x="2216" y="-159.7" font-family="arial" font-size="14.00">3</text>
<polygon fill="none" stroke="black" points="2248.75,-154 2248.75,-177 2329.75,-177 2329.75,-154 2248.75,-154"/>
<text text-anchor="start" x="2275.38" y="-159.7" font-family="arial" font-size="14.00">High</text>
<polygon fill="none" stroke="black" points="2190.75,-131 2190.75,-154 2248.75,-154 2248.75,-131 2190.75,-131"/>
<text text-anchor="start" x="2216" y="-136.7" font-family="arial" font-size="14.00">4</text>
<polygon fill="none" stroke="black" points="2248.75,-131 2248.75,-154 2329.75,-154 2329.75,-131 2248.75,-131"/>
<text text-anchor="start" x="2276.88" y="-136.7" font-family="arial" font-size="14.00">Low</text>
</g>
<!-- W2&#45;&#45;Ferrules -->
<g id="edge2" class="edge">
<title>W2:e&#45;&#45;Ferrules:w</title>
<path fill="none" stroke="#000000" stroke-width="2" d="M1233,-247C1297.02,-247 1313.02,-247.13 1377,-247.13"/>
<path fill="none" stroke="#ffffff" stroke-width="2" d="M1233,-249C1297,-249 1313,-249.13 1377,-249.12"/>
<path fill="none" stroke="#000000" stroke-width="2" d="M1233,-251C1296.98,-251 1312.98,-251.12 1377,-251.12"/>
</g>
<!-- W2&#45;&#45;Ferrules -->
<g id="edge4" class="edge">
<title>W2:e&#45;&#45;Ferrules:w</title>
<path fill="none" stroke="#000000" stroke-width="2" d="M1233,-222C1297.27,-222.02 1313.26,-224.14 1377,-224.13"/>
<path fill="none" stroke="#ffffff" stroke-width="2" d="M1233,-224C1297.01,-224 1312.99,-226.12 1377,-226.13"/>
<path fill="none" stroke="#000000" stroke-width="2" d="M1233,-226C1296.74,-225.98 1312.73,-228.11 1377,-228.12"/>
</g>
<!-- W2&#45;&#45;Ferrules -->
<g id="edge6" class="edge">
<title>W2:e&#45;&#45;Ferrules:w</title>
<path fill="none" stroke="#000000" stroke-width="2" d="M1233,-247C1297.02,-247 1313.02,-247.13 1377,-247.13"/>
<path fill="none" stroke="#ffffff" stroke-width="2" d="M1233,-249C1297,-249 1313,-249.13 1377,-249.12"/>
<path fill="none" stroke="#000000" stroke-width="2" d="M1233,-251C1296.98,-251 1312.98,-251.12 1377,-251.12"/>
</g>
<!-- W2&#45;&#45;Ferrules -->
<g id="edge8" class="edge">
<title>W2:e&#45;&#45;Ferrules:w</title>
<path fill="none" stroke="#000000" stroke-width="2" d="M1233,-222C1297.27,-222.02 1313.26,-224.14 1377,-224.13"/>
<path fill="none" stroke="#ffffff" stroke-width="2" d="M1233,-224C1297.01,-224 1312.99,-226.12 1377,-226.13"/>
<path fill="none" stroke="#000000" stroke-width="2" d="M1233,-226C1296.74,-225.98 1312.73,-228.11 1377,-228.12"/>
</g>
<!-- W1&#45;&#45;Heater -->
<g id="edge10" class="edge">
<title>W1:e&#45;&#45;Heater:w</title>
<path fill="none" stroke="#000000" stroke-width="2" d="M537,-88C600.1,-88.29 615.83,-78.79 681,-78.5"/>
<path fill="none" stroke="#ffffff" stroke-width="2" d="M537,-90C601.14,-90 616.86,-80.5 681,-80.5"/>
<path fill="none" stroke="#000000" stroke-width="2" d="M537,-92C602.17,-91.71 617.9,-82.21 681,-82.5"/>
</g>
<!-- W1&#45;&#45;Heater -->
<g id="edge12" class="edge">
<title>W1:e&#45;&#45;Heater:w</title>
<path fill="none" stroke="#000000" stroke-width="2" d="M537,-63C600.23,-63.19 616.06,-55.69 681,-55.5"/>
<path fill="none" stroke="#ffffff" stroke-width="2" d="M537,-65C601.09,-65 616.91,-57.5 681,-57.5"/>
<path fill="none" stroke="#000000" stroke-width="2" d="M537,-67C601.94,-66.81 617.77,-59.31 681,-59.5"/>
</g>
<!-- W3&#45;&#45;OMNI CAN -->
<g id="edge14" class="edge">
<title>W3:e&#45;&#45;OMNI CAN:w</title>
<path fill="none" stroke="#000000" stroke-width="2" d="M1633.38,-45C1704.8,-46.04 1718.6,-71.17 1785.2,-85.8 1965.09,-127.41 2008.32,-163.97 2190.75,-163.5"/>
<path fill="none" stroke="#ffffff" stroke-width="2" d="M1633.38,-47C1703.05,-47 1716.85,-72.13 1784.75,-87.75 1963.8,-128.93 2007.03,-165.5 2190.75,-165.5"/>
<path fill="none" stroke="#000000" stroke-width="2" d="M1633.38,-49C1701.29,-47.96 1715.1,-73.09 1784.3,-89.7 1962.51,-130.46 2005.73,-167.03 2190.75,-167.5"/>
</g>
<!-- W3&#45;&#45;OMNI CAN -->
<g id="edge16" class="edge">
<title>W3:e&#45;&#45;OMNI CAN:w</title>
<path fill="none" stroke="#000000" stroke-width="2" d="M1633.38,-20C1819.87,-20.09 1867.91,-35.3 2047.27,-83.82 2115.1,-103.27 2123.91,-142.06 2190.75,-140.5"/>
<path fill="none" stroke="#ffffff" stroke-width="2" d="M1633.38,-22C1819.27,-22 1867.31,-37.2 2046.75,-85.75 2113.15,-103.71 2121.96,-142.5 2190.75,-142.5"/>
<path fill="none" stroke="#000000" stroke-width="2" d="M1633.38,-24C1818.67,-23.91 1866.7,-39.11 2046.23,-87.68 2111.2,-104.16 2120.01,-142.94 2190.75,-144.5"/>
</g>
<!-- W5&#45;&#45;OMNI CAN -->
<g id="edge18" class="edge">
<title>W5:e&#45;&#45;OMNI CAN:w</title>
<path fill="none" stroke="#000000" stroke-width="2" d="M2046.75,-235C2109.99,-236.04 2124,-210.54 2190.75,-209.5"/>
<path fill="none" stroke="#ffffff" stroke-width="2" d="M2046.75,-237C2111.75,-237 2125.75,-211.5 2190.75,-211.5"/>
<path fill="none" stroke="#000000" stroke-width="2" d="M2046.75,-239C2113.5,-237.96 2127.51,-212.46 2190.75,-213.5"/>
</g>
<!-- W5&#45;&#45;OMNI CAN -->
<g id="edge20" class="edge">
<title>W5:e&#45;&#45;OMNI CAN:w</title>
<path fill="none" stroke="#000000" stroke-width="2" d="M2046.75,-210C2109.89,-210.96 2124.2,-187.46 2190.75,-186.5"/>
<path fill="none" stroke="#ffffff" stroke-width="2" d="M2046.75,-212C2111.6,-212 2125.9,-188.5 2190.75,-188.5"/>
<path fill="none" stroke="#000000" stroke-width="2" d="M2046.75,-214C2113.3,-213.04 2127.61,-189.54 2190.75,-190.5"/>
</g>
</g>
</svg>
