<?xml version="1.0" encoding="UTF-8" standalone="no"?>
<!DOCTYPE svg PUBLIC "-//W3C//DTD SVG 1.1//EN"
 "http://www.w3.org/Graphics/SVG/1.1/DTD/svg11.dtd">
<!-- Generated by graphviz version 11.0.0 (20240428.1522)
 -->
<!-- Pages: 1 -->
<svg width="1258pt" height="201pt"
 viewBox="0.00 0.00 1258.00 201.00" xmlns="http://www.w3.org/2000/svg" xmlns:xlink="http://www.w3.org/1999/xlink">
<g id="graph0" class="graph" transform="scale(1 1) rotate(0) translate(4 197)">
<polygon fill="#ffffff" stroke="none" points="-4,4 -4,-197 1254,-197 1254,4 -4,4"/>
<!-- DriverBoard Power -->
<g id="node1" class="node">
<title>DriverBoard Power</title>
<polygon fill="#ffffff" stroke="black" points="232.5,-159 0,-159 0,-14 232.5,-14 232.5,-159"/>
<polygon fill="none" stroke="black" points="0,-134.5 0,-159 232.5,-159 232.5,-134.5 0,-134.5"/>
<text text-anchor="start" x="56.25" y="-141.7" font-family="arial" font-size="14.00">DriverBoard Power</text>
<polygon fill="none" stroke="black" points="0,-110 0,-134.5 110,-134.5 110,-110 0,-110"/>
<text text-anchor="start" x="4" y="-117.2" font-family="arial" font-size="14.00">Molex Mini&#45;Fit Jr</text>
<polygon fill="none" stroke="black" points="110,-110 110,-134.5 193,-134.5 193,-110 110,-110"/>
<text text-anchor="start" x="114" y="-117.2" font-family="arial" font-size="14.00">39&#45;01&#45;2040</text>
<polygon fill="none" stroke="black" points="193,-110 193,-134.5 232.5,-134.5 232.5,-110 193,-110"/>
<text text-anchor="start" x="197" y="-117.2" font-family="arial" font-size="14.00">4&#45;pin</text>
<polygon fill="none" stroke="black" points="0,-86 0,-110 127.75,-110 127.75,-86 0,-86"/>
<text text-anchor="start" x="50.75" y="-92.7" font-family="arial" font-size="14.00">36V</text>
<polygon fill="none" stroke="black" points="127.75,-86 127.75,-110 232.5,-110 232.5,-86 127.75,-86"/>
<text text-anchor="start" x="176" y="-92.7" font-family="arial" font-size="14.00">1</text>
<polygon fill="none" stroke="black" points="0,-62 0,-86 127.75,-86 127.75,-62 0,-62"/>
<text text-anchor="start" x="48.12" y="-68.7" font-family="arial" font-size="14.00">GND</text>
<polygon fill="none" stroke="black" points="127.75,-62 127.75,-86 232.5,-86 232.5,-62 127.75,-62"/>
<text text-anchor="start" x="176" y="-68.7" font-family="arial" font-size="14.00">2</text>
<polygon fill="none" stroke="black" points="0,-38 0,-62 127.75,-62 127.75,-38 0,-38"/>
<text text-anchor="start" x="48.12" y="-44.7" font-family="arial" font-size="14.00">GND</text>
<polygon fill="none" stroke="black" points="127.75,-38 127.75,-62 232.5,-62 232.5,-38 127.75,-38"/>
<text text-anchor="start" x="176" y="-44.7" font-family="arial" font-size="14.00">3</text>
<polygon fill="none" stroke="black" points="0,-14 0,-38 127.75,-38 127.75,-14 0,-14"/>
<text text-anchor="start" x="50.75" y="-20.7" font-family="arial" font-size="14.00">24V</text>
<polygon fill="none" stroke="black" points="127.75,-14 127.75,-38 232.5,-38 232.5,-14 127.75,-14"/>
<text text-anchor="start" x="176" y="-20.7" font-family="arial" font-size="14.00">4</text>
</g>
<!-- W1 -->
<g id="node3" class="node">
<title>W1</title>
<polygon fill="#ffffff" stroke="black" points="726.5,-193 376.5,-193 376.5,0 726.5,0 726.5,-193"/>
<polygon fill="none" stroke="black" points="376.5,-168.5 376.5,-193 726.5,-193 726.5,-168.5 376.5,-168.5"/>
<text text-anchor="start" x="540.25" y="-175.7" font-family="arial" font-size="14.00">W1</text>
<polygon fill="none" stroke="black" points="376.5,-144 376.5,-168.5 726.5,-168.5 726.5,-144 376.5,-144"/>
<text text-anchor="start" x="544" y="-151.2" font-family="arial" font-size="14.00">4x</text>
<text text-anchor="start" x="460.12" y="-128.7" font-family="arial" font-size="14.00"> </text>
<text text-anchor="start" x="381" y="-108.7" font-family="arial" font-size="14.00">DriverBoard Power:1:36V</text>
<text text-anchor="start" x="551.75" y="-108.7" font-family="arial" font-size="14.00"> &#160;&#160;&#160;&#160;1:YE &#160;&#160;&#160;</text>
<text text-anchor="start" x="622.12" y="-108.7" font-family="arial" font-size="14.00">Ferrules:1:+36V</text>
<polygon fill="#000000" stroke="none" points="376.5,-102 376.5,-104 726.5,-104 726.5,-102 376.5,-102"/>
<polygon fill="#ffff00" stroke="none" points="376.5,-100 376.5,-102 726.5,-102 726.5,-100 376.5,-100"/>
<polygon fill="#000000" stroke="none" points="376.5,-98 376.5,-100 726.5,-100 726.5,-98 376.5,-98"/>
<text text-anchor="start" x="378.38" y="-82.7" font-family="arial" font-size="14.00">DriverBoard Power:2:GND</text>
<text text-anchor="start" x="550.62" y="-82.7" font-family="arial" font-size="14.00"> &#160;&#160;&#160;&#160;2:GN &#160;&#160;&#160;</text>
<text text-anchor="start" x="623.62" y="-82.7" font-family="arial" font-size="14.00">Ferrules:2:GND</text>
<polygon fill="#000000" stroke="none" points="376.5,-76 376.5,-78 726.5,-78 726.5,-76 376.5,-76"/>
<polygon fill="#00ff00" stroke="none" points="376.5,-74 376.5,-76 726.5,-76 726.5,-74 376.5,-74"/>
<polygon fill="#000000" stroke="none" points="376.5,-72 376.5,-74 726.5,-74 726.5,-72 376.5,-72"/>
<text text-anchor="start" x="378.38" y="-56.7" font-family="arial" font-size="14.00">DriverBoard Power:3:GND</text>
<text text-anchor="start" x="549.12" y="-56.7" font-family="arial" font-size="14.00"> &#160;&#160;&#160;&#160;3:WH &#160;&#160;&#160;</text>
<text text-anchor="start" x="623.62" y="-56.7" font-family="arial" font-size="14.00">Ferrules:3:GND</text>
<polygon fill="#000000" stroke="none" points="376.5,-50 376.5,-52 726.5,-52 726.5,-50 376.5,-50"/>
<polygon fill="#ffffff" stroke="none" points="376.5,-48 376.5,-50 726.5,-50 726.5,-48 376.5,-48"/>
<polygon fill="#000000" stroke="none" points="376.5,-46 376.5,-48 726.5,-48 726.5,-46 376.5,-46"/>
<text text-anchor="start" x="381" y="-30.7" font-family="arial" font-size="14.00">DriverBoard Power:4:24V</text>
<text text-anchor="start" x="551.38" y="-30.7" font-family="arial" font-size="14.00"> &#160;&#160;&#160;&#160;4:BN &#160;&#160;&#160;</text>
<text text-anchor="start" x="622.12" y="-30.7" font-family="arial" font-size="14.00">Ferrules:4:+24V</text>
<polygon fill="#000000" stroke="none" points="376.5,-24 376.5,-26 726.5,-26 726.5,-24 376.5,-24"/>
<polygon fill="#895956" stroke="none" points="376.5,-22 376.5,-24 726.5,-24 726.5,-22 376.5,-22"/>
<polygon fill="#000000" stroke="none" points="376.5,-20 376.5,-22 726.5,-22 726.5,-20 376.5,-20"/>
<text text-anchor="start" x="460.12" y="-4.7" font-family="arial" font-size="14.00"> </text>
</g>
<!-- DriverBoard Power&#45;&#45;W1 -->
<g id="edge1" class="edge">
<title>DriverBoard Power:e&#45;&#45;W1:w</title>
<path fill="none" stroke="#000000" stroke-width="2" d="M232.5,-96C296.88,-96.03 312.86,-99.03 376.5,-99"/>
<path fill="none" stroke="#ffff00" stroke-width="2" d="M232.5,-98C296.51,-98 312.49,-101 376.5,-101"/>
<path fill="none" stroke="#000000" stroke-width="2" d="M232.5,-100C296.14,-99.97 312.12,-102.97 376.5,-103"/>
</g>
<!-- DriverBoard Power&#45;&#45;W1 -->
<g id="edge3" class="edge">
<title>DriverBoard Power:e&#45;&#45;W1:w</title>
<path fill="none" stroke="#000000" stroke-width="2" d="M232.5,-72C296.63,-72 312.62,-73 376.5,-73"/>
<path fill="none" stroke="#00ff00" stroke-width="2" d="M232.5,-74C296.5,-74 312.5,-75 376.5,-75"/>
<path fill="none" stroke="#000000" stroke-width="2" d="M232.5,-76C296.38,-76 312.37,-77 376.5,-77"/>
</g>
<!-- DriverBoard Power&#45;&#45;W1 -->
<g id="edge5" class="edge">
<title>DriverBoard Power:e&#45;&#45;W1:w</title>
<path fill="none" stroke="#000000" stroke-width="2" d="M232.5,-48C296.38,-48 312.37,-47 376.5,-47"/>
<path fill="none" stroke="#ffffff" stroke-width="2" d="M232.5,-50C296.5,-50 312.5,-49 376.5,-49"/>
<path fill="none" stroke="#000000" stroke-width="2" d="M232.5,-52C296.63,-52 312.62,-51 376.5,-51"/>
</g>
<!-- DriverBoard Power&#45;&#45;W1 -->
<g id="edge7" class="edge">
<title>DriverBoard Power:e&#45;&#45;W1:w</title>
<path fill="none" stroke="#000000" stroke-width="2" d="M232.5,-24C296.14,-24.03 312.12,-21.03 376.5,-21"/>
<path fill="none" stroke="#895956" stroke-width="2" d="M232.5,-26C296.51,-26 312.49,-23 376.5,-23"/>
<path fill="none" stroke="#000000" stroke-width="2" d="M232.5,-28C296.88,-27.97 312.86,-24.97 376.5,-25"/>
</g>
<!-- Ferrules -->
<g id="node2" class="node">
<title>Ferrules</title>
<polygon fill="#ffffff" stroke="black" points="1250,-159 870.5,-159 870.5,-14 1250,-14 1250,-159"/>
<polygon fill="none" stroke="black" points="870.5,-134.5 870.5,-159 1250,-159 1250,-134.5 870.5,-134.5"/>
<text text-anchor="start" x="1034" y="-141.7" font-family="arial" font-size="14.00">Ferrules</text>
<polygon fill="none" stroke="black" points="870.5,-110 870.5,-134.5 1150,-134.5 1150,-110 870.5,-110"/>
<text text-anchor="start" x="874.5" y="-117.2" font-family="arial" font-size="14.00">Ferrules to Corresponding Terminal Blocks</text>
<polygon fill="none" stroke="black" points="1150,-110 1150,-134.5 1210.5,-134.5 1210.5,-110 1150,-110"/>
<text text-anchor="start" x="1154" y="-117.2" font-family="arial" font-size="14.00">Ferrules</text>
<polygon fill="none" stroke="black" points="1210.5,-110 1210.5,-134.5 1250,-134.5 1250,-110 1210.5,-110"/>
<text text-anchor="start" x="1214.5" y="-117.2" font-family="arial" font-size="14.00">4&#45;pin</text>
<polygon fill="none" stroke="black" points="870.5,-86 870.5,-110 1047.25,-110 1047.25,-86 870.5,-86"/>
<text text-anchor="start" x="954.75" y="-92.7" font-family="arial" font-size="14.00">1</text>
<polygon fill="none" stroke="black" points="1047.25,-86 1047.25,-110 1250,-110 1250,-86 1047.25,-86"/>
<text text-anchor="start" x="1131.38" y="-92.7" font-family="arial" font-size="14.00">+36V</text>
<polygon fill="none" stroke="black" points="870.5,-62 870.5,-86 1047.25,-86 1047.25,-62 870.5,-62"/>
<text text-anchor="start" x="954.75" y="-68.7" font-family="arial" font-size="14.00">2</text>
<polygon fill="none" stroke="black" points="1047.25,-62 1047.25,-86 1250,-86 1250,-62 1047.25,-62"/>
<text text-anchor="start" x="1132.88" y="-68.7" font-family="arial" font-size="14.00">GND</text>
<polygon fill="none" stroke="black" points="870.5,-38 870.5,-62 1047.25,-62 1047.25,-38 870.5,-38"/>
<text text-anchor="start" x="954.75" y="-44.7" font-family="arial" font-size="14.00">3</text>
<polygon fill="none" stroke="black" points="1047.25,-38 1047.25,-62 1250,-62 1250,-38 1047.25,-38"/>
<text text-anchor="start" x="1132.88" y="-44.7" font-family="arial" font-size="14.00">GND</text>
<polygon fill="none" stroke="black" points="870.5,-14 870.5,-38 1047.25,-38 1047.25,-14 870.5,-14"/>
<text text-anchor="start" x="954.75" y="-20.7" font-family="arial" font-size="14.00">4</text>
<polygon fill="none" stroke="black" points="1047.25,-14 1047.25,-38 1250,-38 1250,-14 1047.25,-14"/>
<text text-anchor="start" x="1131.38" y="-20.7" font-family="arial" font-size="14.00">+24V</text>
</g>
<!-- W1&#45;&#45;Ferrules -->
<g id="edge2" class="edge">
<title>W1:e&#45;&#45;Ferrules:w</title>
<path fill="none" stroke="#000000" stroke-width="2" d="M726.5,-99C790.14,-99.03 806.12,-96.03 870.5,-96"/>
<path fill="none" stroke="#ffff00" stroke-width="2" d="M726.5,-101C790.51,-101 806.49,-98 870.5,-98"/>
<path fill="none" stroke="#000000" stroke-width="2" d="M726.5,-103C790.88,-102.97 806.86,-99.97 870.5,-100"/>
</g>
<!-- W1&#45;&#45;Ferrules -->
<g id="edge4" class="edge">
<title>W1:e&#45;&#45;Ferrules:w</title>
<path fill="none" stroke="#000000" stroke-width="2" d="M726.5,-73C790.38,-73 806.37,-72 870.5,-72"/>
<path fill="none" stroke="#00ff00" stroke-width="2" d="M726.5,-75C790.5,-75 806.5,-74 870.5,-74"/>
<path fill="none" stroke="#000000" stroke-width="2" d="M726.5,-77C790.63,-77 806.62,-76 870.5,-76"/>
</g>
<!-- W1&#45;&#45;Ferrules -->
<g id="edge6" class="edge">
<title>W1:e&#45;&#45;Ferrules:w</title>
<path fill="none" stroke="#000000" stroke-width="2" d="M726.5,-47C790.63,-47 806.62,-48 870.5,-48"/>
<path fill="none" stroke="#ffffff" stroke-width="2" d="M726.5,-49C790.5,-49 806.5,-50 870.5,-50"/>
<path fill="none" stroke="#000000" stroke-width="2" d="M726.5,-51C790.38,-51 806.37,-52 870.5,-52"/>
</g>
<!-- W1&#45;&#45;Ferrules -->
<g id="edge8" class="edge">
<title>W1:e&#45;&#45;Ferrules:w</title>
<path fill="none" stroke="#000000" stroke-width="2" d="M726.5,-21C790.88,-21.03 806.86,-24.03 870.5,-24"/>
<path fill="none" stroke="#895956" stroke-width="2" d="M726.5,-23C790.51,-23 806.49,-26 870.5,-26"/>
<path fill="none" stroke="#000000" stroke-width="2" d="M726.5,-25C790.14,-24.97 806.12,-27.97 870.5,-28"/>
</g>
</g>
</svg>
