<?xml version="1.0" encoding="UTF-8" standalone="no"?>
<!DOCTYPE svg PUBLIC "-//W3C//DTD SVG 1.1//EN"
 "http://www.w3.org/Graphics/SVG/1.1/DTD/svg11.dtd">
<!-- Generated by graphviz version 12.1.2 (20240928.0832)
 -->
<!-- Pages: 1 -->
<svg width="1055pt" height="401pt"
 viewBox="0.00 0.00 1054.75 400.50" xmlns="http://www.w3.org/2000/svg" xmlns:xlink="http://www.w3.org/1999/xlink">
<g id="graph0" class="graph" transform="scale(1 1) rotate(0) translate(4 396.5)">
<polygon fill="#ffffff" stroke="none" points="-4,4 -4,-396.5 1050.75,-396.5 1050.75,4 -4,4"/>
<!-- DSUB 15 Female -->
<g id="node1" class="node">
<title>DSUB 15 Female</title>
<polygon fill="#ffffff" stroke="black" points="113.75,-392.5 0,-392.5 0,0 113.75,0 113.75,-392.5"/>
<polygon fill="none" stroke="black" points="0,-368.75 0,-392.5 113.75,-392.5 113.75,-368.75 0,-368.75"/>
<text text-anchor="start" x="4" y="-375.2" font-family="arial" font-size="14.00">DSUB 15 Female</text>
<polygon fill="none" stroke="black" points="0,-345 0,-368.75 113.75,-368.75 113.75,-345 0,-345"/>
<text text-anchor="start" x="38.12" y="-351.45" font-family="arial" font-size="14.00">15&#45;pin</text>
<polygon fill="none" stroke="black" points="0,-322 0,-345 84.88,-345 84.88,-322 0,-322"/>
<text text-anchor="start" x="38.69" y="-327.7" font-family="arial" font-size="14.00">1</text>
<polygon fill="none" stroke="black" points="0,-299 0,-322 84.88,-322 84.88,-299 0,-299"/>
<text text-anchor="start" x="38.69" y="-304.7" font-family="arial" font-size="14.00">2</text>
<polygon fill="none" stroke="black" points="0,-276 0,-299 84.88,-299 84.88,-276 0,-276"/>
<text text-anchor="start" x="24.44" y="-281.7" font-family="arial" font-size="14.00">USET</text>
<polygon fill="none" stroke="black" points="84.88,-276 84.88,-299 113.75,-299 113.75,-276 84.88,-276"/>
<text text-anchor="start" x="95.56" y="-281.7" font-family="arial" font-size="14.00">3</text>
<polygon fill="none" stroke="black" points="0,-253 0,-276 84.88,-276 84.88,-253 0,-253"/>
<text text-anchor="start" x="27.06" y="-258.7" font-family="arial" font-size="14.00">GND</text>
<polygon fill="none" stroke="black" points="84.88,-253 84.88,-276 113.75,-276 113.75,-253 84.88,-253"/>
<text text-anchor="start" x="95.56" y="-258.7" font-family="arial" font-size="14.00">4</text>
<polygon fill="none" stroke="black" points="0,-230 0,-253 84.88,-253 84.88,-230 0,-230"/>
<text text-anchor="start" x="38.69" y="-235.7" font-family="arial" font-size="14.00">5</text>
<polygon fill="none" stroke="black" points="0,-207 0,-230 84.88,-230 84.88,-207 0,-207"/>
<text text-anchor="start" x="7.94" y="-212.7" font-family="arial" font-size="14.00">Error Reset</text>
<polygon fill="none" stroke="black" points="84.88,-207 84.88,-230 113.75,-230 113.75,-207 84.88,-207"/>
<text text-anchor="start" x="95.56" y="-212.7" font-family="arial" font-size="14.00">6</text>
<polygon fill="none" stroke="black" points="0,-184 0,-207 84.88,-207 84.88,-184 0,-184"/>
<text text-anchor="start" x="38.69" y="-189.7" font-family="arial" font-size="14.00">7</text>
<polygon fill="none" stroke="black" points="0,-161 0,-184 84.88,-184 84.88,-161 0,-161"/>
<text text-anchor="start" x="38.69" y="-166.7" font-family="arial" font-size="14.00">8</text>
<polygon fill="none" stroke="black" points="0,-138 0,-161 84.88,-161 84.88,-138 0,-138"/>
<text text-anchor="start" x="38.69" y="-143.7" font-family="arial" font-size="14.00">9</text>
<polygon fill="none" stroke="black" points="0,-115 0,-138 84.88,-138 84.88,-115 0,-115"/>
<text text-anchor="start" x="34.94" y="-120.7" font-family="arial" font-size="14.00">10</text>
<polygon fill="none" stroke="black" points="0,-92 0,-115 84.88,-115 84.88,-92 0,-92"/>
<text text-anchor="start" x="35.31" y="-97.7" font-family="arial" font-size="14.00">11</text>
<polygon fill="none" stroke="black" points="0,-69 0,-92 84.88,-92 84.88,-69 0,-69"/>
<text text-anchor="start" x="34.94" y="-74.7" font-family="arial" font-size="14.00">12</text>
<polygon fill="none" stroke="black" points="0,-46 0,-69 84.88,-69 84.88,-46 0,-46"/>
<text text-anchor="start" x="34.94" y="-51.7" font-family="arial" font-size="14.00">13</text>
<polygon fill="none" stroke="black" points="0,-23 0,-46 84.88,-46 84.88,-23 0,-23"/>
<text text-anchor="start" x="13.56" y="-28.7" font-family="arial" font-size="14.00">Pulse OK</text>
<polygon fill="none" stroke="black" points="84.88,-23 84.88,-46 113.75,-46 113.75,-23 84.88,-23"/>
<text text-anchor="start" x="91.81" y="-28.7" font-family="arial" font-size="14.00">14</text>
<polygon fill="none" stroke="black" points="0,0 0,-23 84.88,-23 84.88,0 0,0"/>
<text text-anchor="start" x="6.81" y="-5.7" font-family="arial" font-size="14.00">Ext 24 Volts</text>
<polygon fill="none" stroke="black" points="84.88,0 84.88,-23 113.75,-23 113.75,0 84.88,0"/>
<text text-anchor="start" x="91.81" y="-5.7" font-family="arial" font-size="14.00">15</text>
</g>
<!-- W1 -->
<g id="node3" class="node">
<title>W1</title>
<polygon fill="#ffffff" stroke="black" points="758.75,-331.5 257.75,-331.5 257.75,-121 758.75,-121 758.75,-331.5"/>
<polygon fill="none" stroke="black" points="257.75,-307.75 257.75,-331.5 758.75,-331.5 758.75,-307.75 257.75,-307.75"/>
<text text-anchor="start" x="497.75" y="-314.2" font-family="arial" font-size="14.00">W1</text>
<polygon fill="none" stroke="black" points="257.75,-284 257.75,-307.75 484.62,-307.75 484.62,-284 257.75,-284"/>
<text text-anchor="start" x="364.06" y="-290.45" font-family="arial" font-size="14.00">5x</text>
<polygon fill="none" stroke="black" points="484.62,-284 484.62,-307.75 758.75,-307.75 758.75,-284 484.62,-284"/>
<text text-anchor="start" x="590.94" y="-290.45" font-family="arial" font-size="14.00">121.0 mm</text>
<text text-anchor="start" x="357.38" y="-268.7" font-family="arial" font-size="14.00"> </text>
<text text-anchor="start" x="280.88" y="-249.7" font-family="arial" font-size="14.00">DSUB 15 Female:3:USET</text>
<text text-anchor="start" x="465.25" y="-249.7" font-family="arial" font-size="14.00"> &#160;&#160;&#160;&#160;1:YE &#160;&#160;&#160;</text>
<text text-anchor="start" x="558.75" y="-249.7" font-family="arial" font-size="14.00">Pico V1 Board:2:USET_OUT</text>
<polygon fill="#000000" stroke="none" points="257.75,-244 257.75,-246 758.75,-246 758.75,-244 257.75,-244"/>
<polygon fill="#ffff00" stroke="none" points="257.75,-242 257.75,-244 758.75,-244 758.75,-242 257.75,-242"/>
<polygon fill="#000000" stroke="none" points="257.75,-240 257.75,-242 758.75,-242 758.75,-240 257.75,-240"/>
<text text-anchor="start" x="264.38" y="-224.7" font-family="arial" font-size="14.00">DSUB 15 Female:6:Error Reset</text>
<text text-anchor="start" x="464.12" y="-224.7" font-family="arial" font-size="14.00"> &#160;&#160;&#160;&#160;2:GY &#160;&#160;&#160;</text>
<text text-anchor="start" x="553.88" y="-224.7" font-family="arial" font-size="14.00">Pico V1 Board:3:ERRST_OUT</text>
<polygon fill="#000000" stroke="none" points="257.75,-219 257.75,-221 758.75,-221 758.75,-219 257.75,-219"/>
<polygon fill="#999999" stroke="none" points="257.75,-217 257.75,-219 758.75,-219 758.75,-217 257.75,-217"/>
<polygon fill="#000000" stroke="none" points="257.75,-215 257.75,-217 758.75,-217 758.75,-215 257.75,-215"/>
<text text-anchor="start" x="266.25" y="-199.7" font-family="arial" font-size="14.00">DSUB 15 Female:14:Pulse OK</text>
<text text-anchor="start" x="462.62" y="-199.7" font-family="arial" font-size="14.00"> &#160;&#160;&#160;&#160;3:WH &#160;&#160;&#160;</text>
<text text-anchor="start" x="545.25" y="-199.7" font-family="arial" font-size="14.00">Pico V1 Board:4:PULS_OK_OUT</text>
<polygon fill="#000000" stroke="none" points="257.75,-194 257.75,-196 758.75,-196 758.75,-194 257.75,-194"/>
<polygon fill="#ffffff" stroke="none" points="257.75,-192 257.75,-194 758.75,-194 758.75,-192 257.75,-192"/>
<polygon fill="#000000" stroke="none" points="257.75,-190 257.75,-192 758.75,-192 758.75,-190 257.75,-190"/>
<text text-anchor="start" x="283.5" y="-174.7" font-family="arial" font-size="14.00">DSUB 15 Female:4:GND</text>
<text text-anchor="start" x="463.75" y="-174.7" font-family="arial" font-size="14.00"> &#160;&#160;&#160;&#160;4:GN &#160;&#160;&#160;</text>
<text text-anchor="start" x="579.75" y="-174.7" font-family="arial" font-size="14.00">Pico V1 Board:8:GND</text>
<polygon fill="#000000" stroke="none" points="257.75,-169 257.75,-171 758.75,-171 758.75,-169 257.75,-169"/>
<polygon fill="#00ff00" stroke="none" points="257.75,-167 257.75,-169 758.75,-169 758.75,-167 257.75,-167"/>
<polygon fill="#000000" stroke="none" points="257.75,-165 257.75,-167 758.75,-167 758.75,-165 257.75,-165"/>
<text text-anchor="start" x="259.5" y="-149.7" font-family="arial" font-size="14.00">DSUB 15 Female:15:Ext 24 Volts</text>
<text text-anchor="start" x="464.88" y="-149.7" font-family="arial" font-size="14.00"> &#160;&#160;&#160;&#160;5:BN &#160;&#160;&#160;</text>
<text text-anchor="start" x="534.75" y="-149.7" font-family="arial" font-size="14.00">Pico V1 Board:10:V_PRESENCE_24</text>
<polygon fill="#000000" stroke="none" points="257.75,-144 257.75,-146 758.75,-146 758.75,-144 257.75,-144"/>
<polygon fill="#895956" stroke="none" points="257.75,-142 257.75,-144 758.75,-144 758.75,-142 257.75,-142"/>
<polygon fill="#000000" stroke="none" points="257.75,-140 257.75,-142 758.75,-142 758.75,-140 257.75,-140"/>
<text text-anchor="start" x="357.38" y="-124.7" font-family="arial" font-size="14.00"> </text>
</g>
<!-- DSUB 15 Female&#45;&#45;W1 -->
<g id="edge1" class="edge">
<title>DSUB 15 Female:e&#45;&#45;W1:w</title>
<path fill="none" stroke="#000000" stroke-width="2" d="M113.75,-285.5C178.79,-287.06 188.81,-242.56 257.75,-241"/>
<path fill="none" stroke="#ffff00" stroke-width="2" d="M113.75,-287.5C180.74,-287.5 190.76,-243 257.75,-243"/>
<path fill="none" stroke="#000000" stroke-width="2" d="M113.75,-289.5C182.69,-287.94 192.71,-243.44 257.75,-245"/>
</g>
<!-- DSUB 15 Female&#45;&#45;W1 -->
<g id="edge3" class="edge">
<title>DSUB 15 Female:e&#45;&#45;W1:w</title>
<path fill="none" stroke="#000000" stroke-width="2" d="M113.75,-216.5C177.69,-216.5 193.69,-216 257.75,-216"/>
<path fill="none" stroke="#999999" stroke-width="2" d="M113.75,-218.5C177.75,-218.5 193.75,-218 257.75,-218"/>
<path fill="none" stroke="#000000" stroke-width="2" d="M113.75,-220.5C177.81,-220.5 193.81,-220 257.75,-220"/>
</g>
<!-- DSUB 15 Female&#45;&#45;W1 -->
<g id="edge5" class="edge">
<title>DSUB 15 Female:e&#45;&#45;W1:w</title>
<path fill="none" stroke="#000000" stroke-width="2" d="M113.75,-32.5C210.85,-35.06 164.49,-193.56 257.75,-191"/>
<path fill="none" stroke="#ffffff" stroke-width="2" d="M113.75,-34.5C208.93,-34.5 162.57,-193 257.75,-193"/>
<path fill="none" stroke="#000000" stroke-width="2" d="M113.75,-36.5C207.01,-33.94 160.65,-192.44 257.75,-195"/>
</g>
<!-- DSUB 15 Female&#45;&#45;W1 -->
<g id="edge7" class="edge">
<title>DSUB 15 Female:e&#45;&#45;W1:w</title>
<path fill="none" stroke="#000000" stroke-width="2" d="M113.75,-262.5C188.8,-264.71 178.72,-168.21 257.75,-166"/>
<path fill="none" stroke="#00ff00" stroke-width="2" d="M113.75,-264.5C190.79,-264.5 180.71,-168 257.75,-168"/>
<path fill="none" stroke="#000000" stroke-width="2" d="M113.75,-266.5C192.78,-264.29 182.7,-167.79 257.75,-170"/>
</g>
<!-- DSUB 15 Female&#45;&#45;W1 -->
<g id="edge9" class="edge">
<title>DSUB 15 Female:e&#45;&#45;W1:w</title>
<path fill="none" stroke="#000000" stroke-width="2" d="M113.75,-9.5C202.37,-11.94 173.03,-143.44 257.75,-141"/>
<path fill="none" stroke="#895956" stroke-width="2" d="M113.75,-11.5C200.42,-11.5 171.08,-143 257.75,-143"/>
<path fill="none" stroke="#000000" stroke-width="2" d="M113.75,-13.5C198.47,-11.06 169.13,-142.56 257.75,-145"/>
</g>
<!-- Pico V1 Board -->
<g id="node2" class="node">
<title>Pico V1 Board</title>
<polygon fill="#ffffff" stroke="black" points="1046.75,-325 902.75,-325 902.75,-47.5 1046.75,-47.5 1046.75,-325"/>
<polygon fill="none" stroke="black" points="902.75,-301.25 902.75,-325 1046.75,-325 1046.75,-301.25 902.75,-301.25"/>
<text text-anchor="start" x="931.62" y="-307.7" font-family="arial" font-size="14.00">Pico V1 Board</text>
<polygon fill="none" stroke="black" points="902.75,-277.5 902.75,-301.25 995,-301.25 995,-277.5 902.75,-277.5"/>
<text text-anchor="start" x="909.88" y="-283.95" font-family="arial" font-size="14.00">Molex MinFit</text>
<polygon fill="none" stroke="black" points="995,-277.5 995,-301.25 1046.75,-301.25 1046.75,-277.5 995,-277.5"/>
<text text-anchor="start" x="1002.12" y="-283.95" font-family="arial" font-size="14.00">10&#45;pin</text>
<polygon fill="none" stroke="black" points="902.75,-254.5 902.75,-277.5 925.75,-277.5 925.75,-254.5 902.75,-254.5"/>
<text text-anchor="start" x="910.5" y="-260.2" font-family="arial" font-size="14.00">1</text>
<polygon fill="none" stroke="black" points="925.75,-254.5 925.75,-277.5 1046.75,-277.5 1046.75,-254.5 925.75,-254.5"/>
<text text-anchor="start" x="938.62" y="-260.2" font-family="arial" font-size="14.00">RS232TX_OUT</text>
<polygon fill="none" stroke="black" points="902.75,-231.5 902.75,-254.5 925.75,-254.5 925.75,-231.5 902.75,-231.5"/>
<text text-anchor="start" x="910.5" y="-237.2" font-family="arial" font-size="14.00">2</text>
<polygon fill="none" stroke="black" points="925.75,-231.5 925.75,-254.5 1046.75,-254.5 1046.75,-231.5 925.75,-231.5"/>
<text text-anchor="start" x="949.88" y="-237.2" font-family="arial" font-size="14.00">USET_OUT</text>
<polygon fill="none" stroke="black" points="902.75,-208.5 902.75,-231.5 925.75,-231.5 925.75,-208.5 902.75,-208.5"/>
<text text-anchor="start" x="910.5" y="-214.2" font-family="arial" font-size="14.00">3</text>
<polygon fill="none" stroke="black" points="925.75,-208.5 925.75,-231.5 1046.75,-231.5 1046.75,-208.5 925.75,-208.5"/>
<text text-anchor="start" x="945" y="-214.2" font-family="arial" font-size="14.00">ERRST_OUT</text>
<polygon fill="none" stroke="black" points="902.75,-185.5 902.75,-208.5 925.75,-208.5 925.75,-185.5 902.75,-185.5"/>
<text text-anchor="start" x="910.5" y="-191.2" font-family="arial" font-size="14.00">4</text>
<polygon fill="none" stroke="black" points="925.75,-185.5 925.75,-208.5 1046.75,-208.5 1046.75,-185.5 925.75,-185.5"/>
<text text-anchor="start" x="936.38" y="-191.2" font-family="arial" font-size="14.00">PULS_OK_OUT</text>
<polygon fill="none" stroke="black" points="902.75,-162.5 902.75,-185.5 925.75,-185.5 925.75,-162.5 902.75,-162.5"/>
<text text-anchor="start" x="910.5" y="-168.2" font-family="arial" font-size="14.00">5</text>
<polygon fill="none" stroke="black" points="925.75,-162.5 925.75,-185.5 1046.75,-185.5 1046.75,-162.5 925.75,-162.5"/>
<text text-anchor="start" x="929.62" y="-168.2" font-family="arial" font-size="14.00">V_PRESENCE_24</text>
<polygon fill="none" stroke="black" points="902.75,-139.5 902.75,-162.5 925.75,-162.5 925.75,-139.5 902.75,-139.5"/>
<text text-anchor="start" x="910.5" y="-145.2" font-family="arial" font-size="14.00">6</text>
<polygon fill="none" stroke="black" points="925.75,-139.5 925.75,-162.5 1046.75,-162.5 1046.75,-139.5 925.75,-139.5"/>
<text text-anchor="start" x="937.88" y="-145.2" font-family="arial" font-size="14.00">RS232RX_OUT</text>
<polygon fill="none" stroke="black" points="902.75,-116.5 902.75,-139.5 925.75,-139.5 925.75,-116.5 902.75,-116.5"/>
<text text-anchor="start" x="910.5" y="-122.2" font-family="arial" font-size="14.00">7</text>
<polygon fill="none" stroke="black" points="925.75,-116.5 925.75,-139.5 1046.75,-139.5 1046.75,-116.5 925.75,-116.5"/>
<text text-anchor="start" x="970.88" y="-122.2" font-family="arial" font-size="14.00">GND</text>
<polygon fill="none" stroke="black" points="902.75,-93.5 902.75,-116.5 925.75,-116.5 925.75,-93.5 902.75,-93.5"/>
<text text-anchor="start" x="910.5" y="-99.2" font-family="arial" font-size="14.00">8</text>
<polygon fill="none" stroke="black" points="925.75,-93.5 925.75,-116.5 1046.75,-116.5 1046.75,-93.5 925.75,-93.5"/>
<text text-anchor="start" x="970.88" y="-99.2" font-family="arial" font-size="14.00">GND</text>
<polygon fill="none" stroke="black" points="902.75,-70.5 902.75,-93.5 925.75,-93.5 925.75,-70.5 902.75,-70.5"/>
<text text-anchor="start" x="910.5" y="-76.2" font-family="arial" font-size="14.00">9</text>
<polygon fill="none" stroke="black" points="925.75,-70.5 925.75,-93.5 1046.75,-93.5 1046.75,-70.5 925.75,-70.5"/>
<text text-anchor="start" x="970.88" y="-76.2" font-family="arial" font-size="14.00">GND</text>
<polygon fill="none" stroke="black" points="902.75,-47.5 902.75,-70.5 925.75,-70.5 925.75,-47.5 902.75,-47.5"/>
<text text-anchor="start" x="906.75" y="-53.2" font-family="arial" font-size="14.00">10</text>
<polygon fill="none" stroke="black" points="925.75,-47.5 925.75,-70.5 1046.75,-70.5 1046.75,-47.5 925.75,-47.5"/>
<text text-anchor="start" x="929.62" y="-53.2" font-family="arial" font-size="14.00">V_PRESENCE_24</text>
</g>
<!-- W1&#45;&#45;Pico V1 Board -->
<g id="edge2" class="edge">
<title>W1:e&#45;&#45;Pico V1 Board:w</title>
<path fill="none" stroke="#000000" stroke-width="2" d="M758.75,-241C822.75,-241 838.75,-241 902.75,-241"/>
<path fill="none" stroke="#ffff00" stroke-width="2" d="M758.75,-243C822.75,-243 838.75,-243 902.75,-243"/>
<path fill="none" stroke="#000000" stroke-width="2" d="M758.75,-245C822.75,-245 838.75,-245 902.75,-245"/>
</g>
<!-- W1&#45;&#45;Pico V1 Board -->
<g id="edge4" class="edge">
<title>W1:e&#45;&#45;Pico V1 Board:w</title>
<path fill="none" stroke="#000000" stroke-width="2" d="M758.75,-216C823,-216.02 838.99,-218.02 902.75,-218"/>
<path fill="none" stroke="#999999" stroke-width="2" d="M758.75,-218C822.76,-218 838.74,-220 902.75,-220"/>
<path fill="none" stroke="#000000" stroke-width="2" d="M758.75,-220C822.51,-219.98 838.5,-221.98 902.75,-222"/>
</g>
<!-- W1&#45;&#45;Pico V1 Board -->
<g id="edge6" class="edge">
<title>W1:e&#45;&#45;Pico V1 Board:w</title>
<path fill="none" stroke="#000000" stroke-width="2" d="M758.75,-191C823.26,-191.06 839.21,-195.06 902.75,-195"/>
<path fill="none" stroke="#ffffff" stroke-width="2" d="M758.75,-193C822.77,-193 838.73,-197 902.75,-197"/>
<path fill="none" stroke="#000000" stroke-width="2" d="M758.75,-195C822.29,-194.94 838.24,-198.94 902.75,-199"/>
</g>
<!-- W1&#45;&#45;Pico V1 Board -->
<g id="edge8" class="edge">
<title>W1:e&#45;&#45;Pico V1 Board:w</title>
<path fill="none" stroke="#000000" stroke-width="2" d="M758.75,-166C826.61,-167.86 830.9,-104.86 902.75,-103"/>
<path fill="none" stroke="#00ff00" stroke-width="2" d="M758.75,-168C828.61,-168 832.89,-105 902.75,-105"/>
<path fill="none" stroke="#000000" stroke-width="2" d="M758.75,-170C830.6,-168.14 834.89,-105.14 902.75,-107"/>
</g>
<!-- W1&#45;&#45;Pico V1 Board -->
<g id="edge10" class="edge">
<title>W1:e&#45;&#45;Pico V1 Board:w</title>
<path fill="none" stroke="#000000" stroke-width="2" d="M758.75,-141C830.85,-143.1 826.66,-59.1 902.75,-57"/>
<path fill="none" stroke="#895956" stroke-width="2" d="M758.75,-143C832.84,-143 828.66,-59 902.75,-59"/>
<path fill="none" stroke="#000000" stroke-width="2" d="M758.75,-145C834.84,-142.9 830.65,-58.9 902.75,-61"/>
</g>
</g>
</svg>
