<?xml version="1.0" encoding="UTF-8" standalone="no"?>
<!DOCTYPE svg PUBLIC "-//W3C//DTD SVG 1.1//EN"
 "http://www.w3.org/Graphics/SVG/1.1/DTD/svg11.dtd">
<!-- Generated by graphviz version 11.0.0 (20240428.1522)
 -->
<!-- Pages: 1 -->
<svg width="1114pt" height="194pt"
 viewBox="0.00 0.00 1113.50 193.75" xmlns="http://www.w3.org/2000/svg" xmlns:xlink="http://www.w3.org/1999/xlink">
<g id="graph0" class="graph" transform="scale(1 1) rotate(0) translate(4 189.75)">
<polygon fill="#ffffff" stroke="none" points="-4,4 -4,-189.75 1109.5,-189.75 1109.5,4 -4,4"/>
<!-- 24V Axial Fan -->
<g id="node1" class="node">
<title>24V Axial Fan</title>
<polygon fill="#ffffff" stroke="black" points="226,-154.25 0,-154.25 0,-16.25 226,-16.25 226,-154.25"/>
<polygon fill="none" stroke="black" points="0,-129.75 0,-154.25 226,-154.25 226,-129.75 0,-129.75"/>
<text text-anchor="start" x="69.12" y="-136.95" font-family="arial" font-size="14.00">24V Axial Fan</text>
<polygon fill="none" stroke="black" points="0,-105.25 0,-129.75 186.5,-129.75 186.5,-105.25 0,-105.25"/>
<text text-anchor="start" x="4" y="-112.45" font-family="arial" font-size="14.00">Molex SL 2 way Non&#45;Trigger</text>
<polygon fill="none" stroke="black" points="186.5,-105.25 186.5,-129.75 226,-129.75 226,-105.25 186.5,-105.25"/>
<text text-anchor="start" x="190.5" y="-112.45" font-family="arial" font-size="14.00">2&#45;pin</text>
<polygon fill="none" stroke="black" points="0,-81.25 0,-105.25 124.5,-105.25 124.5,-81.25 0,-81.25"/>
<text text-anchor="start" x="49.12" y="-87.95" font-family="arial" font-size="14.00">24V</text>
<polygon fill="none" stroke="black" points="124.5,-81.25 124.5,-105.25 226,-105.25 226,-81.25 124.5,-81.25"/>
<text text-anchor="start" x="171.12" y="-87.95" font-family="arial" font-size="14.00">1</text>
<polygon fill="none" stroke="black" points="0,-57.25 0,-81.25 124.5,-81.25 124.5,-57.25 0,-57.25"/>
<text text-anchor="start" x="46.5" y="-63.95" font-family="arial" font-size="14.00">GND</text>
<polygon fill="none" stroke="black" points="124.5,-57.25 124.5,-81.25 226,-81.25 226,-57.25 124.5,-57.25"/>
<text text-anchor="start" x="171.12" y="-63.95" font-family="arial" font-size="14.00">2</text>
<polygon fill="none" stroke="black" points="0,-16.25 0,-57.25 226,-57.25 226,-16.25 0,-16.25"/>
<text text-anchor="start" x="51.88" y="-39.95" font-family="arial" font-size="14.00">RS Pro (668&#45;8858)</text>
<text text-anchor="start" x="51.88" y="-23.45" font-family="arial" font-size="14.00">120 x 120 x 25mm </text>
</g>
<!-- W1 -->
<g id="node3" class="node">
<title>W1</title>
<polygon fill="#ffffff" stroke="black" points="682,-185.75 370,-185.75 370,-44.75 682,-44.75 682,-185.75"/>
<polygon fill="none" stroke="black" points="370,-161.25 370,-185.75 682,-185.75 682,-161.25 370,-161.25"/>
<text text-anchor="start" x="514.75" y="-168.45" font-family="arial" font-size="14.00">W1</text>
<polygon fill="none" stroke="black" points="370,-136.75 370,-161.25 682,-161.25 682,-136.75 370,-136.75"/>
<text text-anchor="start" x="518.5" y="-143.95" font-family="arial" font-size="14.00">2x</text>
<text text-anchor="start" x="437.62" y="-121.45" font-family="arial" font-size="14.00"> </text>
<text text-anchor="start" x="374.62" y="-101.45" font-family="arial" font-size="14.00">24V Axial Fan:1:24V</text>
<text text-anchor="start" x="510.62" y="-101.45" font-family="arial" font-size="14.00"> &#160;&#160;&#160;&#160;1:RD &#160;&#160;&#160;</text>
<text text-anchor="start" x="583.25" y="-101.45" font-family="arial" font-size="14.00">Ferrules:1:24V</text>
<polygon fill="#000000" stroke="none" points="370,-94.75 370,-96.75 682,-96.75 682,-94.75 370,-94.75"/>
<polygon fill="#ff0000" stroke="none" points="370,-92.75 370,-94.75 682,-94.75 682,-92.75 370,-92.75"/>
<polygon fill="#000000" stroke="none" points="370,-90.75 370,-92.75 682,-92.75 682,-90.75 370,-90.75"/>
<text text-anchor="start" x="372" y="-75.45" font-family="arial" font-size="14.00">24V Axial Fan:2:GND</text>
<text text-anchor="start" x="511.38" y="-75.45" font-family="arial" font-size="14.00"> &#160;&#160;&#160;&#160;2:BK &#160;&#160;&#160;</text>
<text text-anchor="start" x="580.62" y="-75.45" font-family="arial" font-size="14.00">Ferrules:2:GND</text>
<polygon fill="#000000" stroke="none" points="370,-68.75 370,-70.75 682,-70.75 682,-68.75 370,-68.75"/>
<polygon fill="#000000" stroke="none" points="370,-66.75 370,-68.75 682,-68.75 682,-66.75 370,-66.75"/>
<polygon fill="#000000" stroke="none" points="370,-64.75 370,-66.75 682,-66.75 682,-64.75 370,-64.75"/>
<text text-anchor="start" x="437.62" y="-49.45" font-family="arial" font-size="14.00"> </text>
</g>
<!-- 24V Axial Fan&#45;&#45;W1 -->
<g id="edge1" class="edge">
<title>24V Axial Fan:e&#45;&#45;W1:w</title>
<path fill="none" stroke="#000000" stroke-width="2" d="M226,-91.25C290.06,-91.25 306.06,-91.75 370,-91.75"/>
<path fill="none" stroke="#ff0000" stroke-width="2" d="M226,-93.25C290,-93.25 306,-93.75 370,-93.75"/>
<path fill="none" stroke="#000000" stroke-width="2" d="M226,-95.25C289.94,-95.25 305.94,-95.75 370,-95.75"/>
</g>
<!-- 24V Axial Fan&#45;&#45;W1 -->
<g id="edge3" class="edge">
<title>24V Axial Fan:e&#45;&#45;W1:w</title>
<path fill="none" stroke="#000000" stroke-width="2" d="M226,-67.25C289.82,-67.26 305.81,-65.76 370,-65.75"/>
<path fill="none" stroke="#000000" stroke-width="2" d="M226,-69.25C290,-69.25 306,-67.75 370,-67.75"/>
<path fill="none" stroke="#000000" stroke-width="2" d="M226,-71.25C290.19,-71.24 306.18,-69.74 370,-69.75"/>
</g>
<!-- Ferrules -->
<g id="node2" class="node">
<title>Ferrules</title>
<polygon fill="#ffffff" stroke="black" points="1105.5,-154.5 826,-154.5 826,0 1105.5,0 1105.5,-154.5"/>
<polygon fill="none" stroke="black" points="826,-130 826,-154.5 1105.5,-154.5 1105.5,-130 826,-130"/>
<text text-anchor="start" x="939.5" y="-137.2" font-family="arial" font-size="14.00">Ferrules</text>
<polygon fill="none" stroke="black" points="826,-105.5 826,-130 976.25,-130 976.25,-105.5 826,-105.5"/>
<text text-anchor="start" x="874.88" y="-112.7" font-family="arial" font-size="14.00">Ferrules</text>
<polygon fill="none" stroke="black" points="976.25,-105.5 976.25,-130 1105.5,-130 1105.5,-105.5 976.25,-105.5"/>
<text text-anchor="start" x="1025.12" y="-112.7" font-family="arial" font-size="14.00">2&#45;pin</text>
<polygon fill="none" stroke="black" points="826,-81.5 826,-105.5 954.25,-105.5 954.25,-81.5 826,-81.5"/>
<text text-anchor="start" x="886" y="-88.2" font-family="arial" font-size="14.00">1</text>
<polygon fill="none" stroke="black" points="954.25,-81.5 954.25,-105.5 1105.5,-105.5 1105.5,-81.5 954.25,-81.5"/>
<text text-anchor="start" x="1016.75" y="-88.2" font-family="arial" font-size="14.00">24V</text>
<polygon fill="none" stroke="black" points="826,-57.5 826,-81.5 954.25,-81.5 954.25,-57.5 826,-57.5"/>
<text text-anchor="start" x="886" y="-64.2" font-family="arial" font-size="14.00">2</text>
<polygon fill="none" stroke="black" points="954.25,-57.5 954.25,-81.5 1105.5,-81.5 1105.5,-57.5 954.25,-57.5"/>
<text text-anchor="start" x="1014.12" y="-64.2" font-family="arial" font-size="14.00">GND</text>
<polygon fill="none" stroke="black" points="826,0 826,-57.5 1105.5,-57.5 1105.5,0 826,0"/>
<text text-anchor="start" x="830" y="-40.2" font-family="arial" font-size="14.00">Ferrules to Corresponding Terminal Blocks</text>
<text text-anchor="start" x="830" y="-23.7" font-family="arial" font-size="14.00">Phoenix Contact PTFIX 6/18X2,5&#45;NS35 </text>
<text text-anchor="start" x="830" y="-7.2" font-family="arial" font-size="14.00">GN (3273118) + BK (3273124)</text>
</g>
<!-- W1&#45;&#45;Ferrules -->
<g id="edge2" class="edge">
<title>W1:e&#45;&#45;Ferrules:w</title>
<path fill="none" stroke="#000000" stroke-width="2" d="M682,-91.75C745.97,-91.75 761.97,-91.5 826,-91.5"/>
<path fill="none" stroke="#ff0000" stroke-width="2" d="M682,-93.75C746,-93.75 762,-93.5 826,-93.5"/>
<path fill="none" stroke="#000000" stroke-width="2" d="M682,-95.75C746.03,-95.75 762.03,-95.5 826,-95.5"/>
</g>
<!-- W1&#45;&#45;Ferrules -->
<g id="edge4" class="edge">
<title>W1:e&#45;&#45;Ferrules:w</title>
<path fill="none" stroke="#000000" stroke-width="2" d="M682,-65.75C746.22,-65.76 762.21,-67.51 826,-67.5"/>
<path fill="none" stroke="#000000" stroke-width="2" d="M682,-67.75C746,-67.75 762,-69.5 826,-69.5"/>
<path fill="none" stroke="#000000" stroke-width="2" d="M682,-69.75C745.79,-69.74 761.78,-71.49 826,-71.5"/>
</g>
</g>
</svg>
