<?xml version="1.0" encoding="UTF-8" standalone="no"?>
<!DOCTYPE svg PUBLIC "-//W3C//DTD SVG 1.1//EN"
 "http://www.w3.org/Graphics/SVG/1.1/DTD/svg11.dtd">
<!-- Generated by graphviz version 11.0.0 (20240428.1522)
 -->
<!-- Pages: 1 -->
<svg width="1164pt" height="194pt"
 viewBox="0.00 0.00 1164.00 193.75" xmlns="http://www.w3.org/2000/svg" xmlns:xlink="http://www.w3.org/1999/xlink">
<g id="graph0" class="graph" transform="scale(1 1) rotate(0) translate(4 189.75)">
<polygon fill="#ffffff" stroke="none" points="-4,4 -4,-189.75 1160,-189.75 1160,4 -4,4"/>
<!-- MotherBoard Power -->
<g id="node1" class="node">
<title>MotherBoard Power</title>
<polygon fill="#ffffff" stroke="black" points="232.5,-177.75 0,-177.75 0,-32.75 232.5,-32.75 232.5,-177.75"/>
<polygon fill="none" stroke="black" points="0,-153.25 0,-177.75 232.5,-177.75 232.5,-153.25 0,-153.25"/>
<text text-anchor="start" x="53.25" y="-160.45" font-family="arial" font-size="14.00">MotherBoard Power</text>
<polygon fill="none" stroke="black" points="0,-128.75 0,-153.25 110,-153.25 110,-128.75 0,-128.75"/>
<text text-anchor="start" x="4" y="-135.95" font-family="arial" font-size="14.00">Molex Mini&#45;Fit Jr</text>
<polygon fill="none" stroke="black" points="110,-128.75 110,-153.25 193,-153.25 193,-128.75 110,-128.75"/>
<text text-anchor="start" x="114" y="-135.95" font-family="arial" font-size="14.00">39&#45;01&#45;2040</text>
<polygon fill="none" stroke="black" points="193,-128.75 193,-153.25 232.5,-153.25 232.5,-128.75 193,-128.75"/>
<text text-anchor="start" x="197" y="-135.95" font-family="arial" font-size="14.00">4&#45;pin</text>
<polygon fill="none" stroke="black" points="0,-104.75 0,-128.75 127.75,-128.75 127.75,-104.75 0,-104.75"/>
<text text-anchor="start" x="61.62" y="-111.45" font-family="arial" font-size="14.00">&#45;</text>
<polygon fill="none" stroke="black" points="127.75,-104.75 127.75,-128.75 232.5,-128.75 232.5,-104.75 127.75,-104.75"/>
<text text-anchor="start" x="176" y="-111.45" font-family="arial" font-size="14.00">1</text>
<polygon fill="none" stroke="black" points="0,-80.75 0,-104.75 127.75,-104.75 127.75,-80.75 0,-80.75"/>
<text text-anchor="start" x="50.75" y="-87.45" font-family="arial" font-size="14.00">12V</text>
<polygon fill="none" stroke="black" points="127.75,-80.75 127.75,-104.75 232.5,-104.75 232.5,-80.75 127.75,-80.75"/>
<text text-anchor="start" x="176" y="-87.45" font-family="arial" font-size="14.00">2</text>
<polygon fill="none" stroke="black" points="0,-56.75 0,-80.75 127.75,-80.75 127.75,-56.75 0,-56.75"/>
<text text-anchor="start" x="48.12" y="-63.45" font-family="arial" font-size="14.00">GND</text>
<polygon fill="none" stroke="black" points="127.75,-56.75 127.75,-80.75 232.5,-80.75 232.5,-56.75 127.75,-56.75"/>
<text text-anchor="start" x="176" y="-63.45" font-family="arial" font-size="14.00">3</text>
<polygon fill="none" stroke="black" points="0,-32.75 0,-56.75 127.75,-56.75 127.75,-32.75 0,-32.75"/>
<text text-anchor="start" x="61.62" y="-39.45" font-family="arial" font-size="14.00">&#45;</text>
<polygon fill="none" stroke="black" points="127.75,-32.75 127.75,-56.75 232.5,-56.75 232.5,-32.75 127.75,-32.75"/>
<text text-anchor="start" x="176" y="-39.45" font-family="arial" font-size="14.00">4</text>
</g>
<!-- W1 -->
<g id="node3" class="node">
<title>W1</title>
<polygon fill="#ffffff" stroke="black" points="732.5,-185.75 376.5,-185.75 376.5,-44.75 732.5,-44.75 732.5,-185.75"/>
<polygon fill="none" stroke="black" points="376.5,-161.25 376.5,-185.75 732.5,-185.75 732.5,-161.25 376.5,-161.25"/>
<text text-anchor="start" x="543.25" y="-168.45" font-family="arial" font-size="14.00">W1</text>
<polygon fill="none" stroke="black" points="376.5,-136.75 376.5,-161.25 732.5,-161.25 732.5,-136.75 376.5,-136.75"/>
<text text-anchor="start" x="547" y="-143.95" font-family="arial" font-size="14.00">2x</text>
<text text-anchor="start" x="463.12" y="-121.45" font-family="arial" font-size="14.00"> </text>
<text text-anchor="start" x="381" y="-101.45" font-family="arial" font-size="14.00">MotherBoard Power:2:12V</text>
<text text-anchor="start" x="557.38" y="-101.45" font-family="arial" font-size="14.00"> &#160;&#160;&#160;&#160;1:BN &#160;&#160;&#160;</text>
<text text-anchor="start" x="628.12" y="-101.45" font-family="arial" font-size="14.00">Ferrules:1:+12V</text>
<polygon fill="#000000" stroke="none" points="376.5,-94.75 376.5,-96.75 732.5,-96.75 732.5,-94.75 376.5,-94.75"/>
<polygon fill="#895956" stroke="none" points="376.5,-92.75 376.5,-94.75 732.5,-94.75 732.5,-92.75 376.5,-92.75"/>
<polygon fill="#000000" stroke="none" points="376.5,-90.75 376.5,-92.75 732.5,-92.75 732.5,-90.75 376.5,-90.75"/>
<text text-anchor="start" x="378.38" y="-75.45" font-family="arial" font-size="14.00">MotherBoard Power:3:GND</text>
<text text-anchor="start" x="555.12" y="-75.45" font-family="arial" font-size="14.00"> &#160;&#160;&#160;&#160;2:WH &#160;&#160;&#160;</text>
<text text-anchor="start" x="629.62" y="-75.45" font-family="arial" font-size="14.00">Ferrules:2:GND</text>
<polygon fill="#000000" stroke="none" points="376.5,-68.75 376.5,-70.75 732.5,-70.75 732.5,-68.75 376.5,-68.75"/>
<polygon fill="#ffffff" stroke="none" points="376.5,-66.75 376.5,-68.75 732.5,-68.75 732.5,-66.75 376.5,-66.75"/>
<polygon fill="#000000" stroke="none" points="376.5,-64.75 376.5,-66.75 732.5,-66.75 732.5,-64.75 376.5,-64.75"/>
<text text-anchor="start" x="463.12" y="-49.45" font-family="arial" font-size="14.00"> </text>
</g>
<!-- MotherBoard Power&#45;&#45;W1 -->
<g id="edge1" class="edge">
<title>MotherBoard Power:e&#45;&#45;W1:w</title>
<path fill="none" stroke="#000000" stroke-width="2" d="M232.5,-90.75C296.63,-90.75 312.62,-91.75 376.5,-91.75"/>
<path fill="none" stroke="#895956" stroke-width="2" d="M232.5,-92.75C296.5,-92.75 312.5,-93.75 376.5,-93.75"/>
<path fill="none" stroke="#000000" stroke-width="2" d="M232.5,-94.75C296.38,-94.75 312.37,-95.75 376.5,-95.75"/>
</g>
<!-- MotherBoard Power&#45;&#45;W1 -->
<g id="edge3" class="edge">
<title>MotherBoard Power:e&#45;&#45;W1:w</title>
<path fill="none" stroke="#000000" stroke-width="2" d="M232.5,-66.75C296.38,-66.75 312.37,-65.75 376.5,-65.75"/>
<path fill="none" stroke="#ffffff" stroke-width="2" d="M232.5,-68.75C296.5,-68.75 312.5,-67.75 376.5,-67.75"/>
<path fill="none" stroke="#000000" stroke-width="2" d="M232.5,-70.75C296.63,-70.75 312.62,-69.75 376.5,-69.75"/>
</g>
<!-- Ferrules -->
<g id="node2" class="node">
<title>Ferrules</title>
<polygon fill="#ffffff" stroke="black" points="1156,-154.5 876.5,-154.5 876.5,0 1156,0 1156,-154.5"/>
<polygon fill="none" stroke="black" points="876.5,-130 876.5,-154.5 1156,-154.5 1156,-130 876.5,-130"/>
<text text-anchor="start" x="990" y="-137.2" font-family="arial" font-size="14.00">Ferrules</text>
<polygon fill="none" stroke="black" points="876.5,-105.5 876.5,-130 1026.75,-130 1026.75,-105.5 876.5,-105.5"/>
<text text-anchor="start" x="925.38" y="-112.7" font-family="arial" font-size="14.00">Ferrules</text>
<polygon fill="none" stroke="black" points="1026.75,-105.5 1026.75,-130 1156,-130 1156,-105.5 1026.75,-105.5"/>
<text text-anchor="start" x="1075.62" y="-112.7" font-family="arial" font-size="14.00">2&#45;pin</text>
<polygon fill="none" stroke="black" points="876.5,-81.5 876.5,-105.5 1003.25,-105.5 1003.25,-81.5 876.5,-81.5"/>
<text text-anchor="start" x="935.75" y="-88.2" font-family="arial" font-size="14.00">1</text>
<polygon fill="none" stroke="black" points="1003.25,-81.5 1003.25,-105.5 1156,-105.5 1156,-81.5 1003.25,-81.5"/>
<text text-anchor="start" x="1062.38" y="-88.2" font-family="arial" font-size="14.00">+12V</text>
<polygon fill="none" stroke="black" points="876.5,-57.5 876.5,-81.5 1003.25,-81.5 1003.25,-57.5 876.5,-57.5"/>
<text text-anchor="start" x="935.75" y="-64.2" font-family="arial" font-size="14.00">2</text>
<polygon fill="none" stroke="black" points="1003.25,-57.5 1003.25,-81.5 1156,-81.5 1156,-57.5 1003.25,-57.5"/>
<text text-anchor="start" x="1063.88" y="-64.2" font-family="arial" font-size="14.00">GND</text>
<polygon fill="none" stroke="black" points="876.5,0 876.5,-57.5 1156,-57.5 1156,0 876.5,0"/>
<text text-anchor="start" x="880.5" y="-40.2" font-family="arial" font-size="14.00">Ferrules to Corresponding Terminal Blocks</text>
<text text-anchor="start" x="880.5" y="-23.7" font-family="arial" font-size="14.00">Phoenix Contact PTFIX 6/18X2,5&#45;NS35 </text>
<text text-anchor="start" x="880.5" y="-7.2" font-family="arial" font-size="14.00">GN (3273118) + BK (3273124)</text>
</g>
<!-- W1&#45;&#45;Ferrules -->
<g id="edge2" class="edge">
<title>W1:e&#45;&#45;Ferrules:w</title>
<path fill="none" stroke="#000000" stroke-width="2" d="M732.5,-91.75C796.47,-91.75 812.47,-91.5 876.5,-91.5"/>
<path fill="none" stroke="#895956" stroke-width="2" d="M732.5,-93.75C796.5,-93.75 812.5,-93.5 876.5,-93.5"/>
<path fill="none" stroke="#000000" stroke-width="2" d="M732.5,-95.75C796.53,-95.75 812.53,-95.5 876.5,-95.5"/>
</g>
<!-- W1&#45;&#45;Ferrules -->
<g id="edge4" class="edge">
<title>W1:e&#45;&#45;Ferrules:w</title>
<path fill="none" stroke="#000000" stroke-width="2" d="M732.5,-65.75C796.72,-65.76 812.71,-67.51 876.5,-67.5"/>
<path fill="none" stroke="#ffffff" stroke-width="2" d="M732.5,-67.75C796.5,-67.75 812.5,-69.5 876.5,-69.5"/>
<path fill="none" stroke="#000000" stroke-width="2" d="M732.5,-69.75C796.29,-69.74 812.28,-71.49 876.5,-71.5"/>
</g>
</g>
</svg>
