<?xml version="1.0" encoding="UTF-8" standalone="no"?>
<!DOCTYPE svg PUBLIC "-//W3C//DTD SVG 1.1//EN"
 "http://www.w3.org/Graphics/SVG/1.1/DTD/svg11.dtd">
<!-- Generated by graphviz version 12.1.2 (20240928.0832)
 -->
<!-- Pages: 1 -->
<svg width="994pt" height="484pt"
 viewBox="0.00 0.00 993.50 483.50" xmlns="http://www.w3.org/2000/svg" xmlns:xlink="http://www.w3.org/1999/xlink">
<g id="graph0" class="graph" transform="scale(1 1) rotate(0) translate(4 479.5)">
<polygon fill="#ffffff" stroke="none" points="-4,4 -4,-479.5 989.5,-479.5 989.5,4 -4,4"/>
<!-- Nanotec Y Motor -->
<g id="node1" class="node">
<title>Nanotec Y Motor</title>
<polygon fill="#ffffff" stroke="black" points="145,-340.5 0,-340.5 0,-155 145,-155 145,-340.5"/>
<polygon fill="none" stroke="black" points="0,-316.75 0,-340.5 145,-340.5 145,-316.75 0,-316.75"/>
<text text-anchor="start" x="21.5" y="-323.2" font-family="arial" font-size="14.00">Nanotec Y Motor</text>
<polygon fill="none" stroke="black" points="0,-293 0,-316.75 107,-316.75 107,-293 0,-293"/>
<text text-anchor="start" x="4" y="-299.45" font-family="arial" font-size="14.00">Molex SL 4 Way</text>
<polygon fill="none" stroke="black" points="107,-293 107,-316.75 145,-316.75 145,-293 107,-293"/>
<text text-anchor="start" x="111" y="-299.45" font-family="arial" font-size="14.00">6&#45;pin</text>
<polygon fill="none" stroke="black" points="0,-270 0,-293 77.5,-293 77.5,-270 0,-270"/>
<text text-anchor="start" x="30.12" y="-275.7" font-family="arial" font-size="14.00">A+</text>
<polygon fill="none" stroke="black" points="77.5,-270 77.5,-293 145,-293 145,-270 77.5,-270"/>
<text text-anchor="start" x="107.5" y="-275.7" font-family="arial" font-size="14.00">1</text>
<polygon fill="none" stroke="black" points="0,-247 0,-270 77.5,-270 77.5,-247 0,-247"/>
<text text-anchor="start" x="35" y="-252.7" font-family="arial" font-size="14.00">2</text>
<polygon fill="none" stroke="black" points="0,-224 0,-247 77.5,-247 77.5,-224 0,-224"/>
<text text-anchor="start" x="32" y="-229.7" font-family="arial" font-size="14.00">A&#45;</text>
<polygon fill="none" stroke="black" points="77.5,-224 77.5,-247 145,-247 145,-224 77.5,-224"/>
<text text-anchor="start" x="107.5" y="-229.7" font-family="arial" font-size="14.00">3</text>
<polygon fill="none" stroke="black" points="0,-201 0,-224 77.5,-224 77.5,-201 0,-201"/>
<text text-anchor="start" x="30.12" y="-206.7" font-family="arial" font-size="14.00">B+</text>
<polygon fill="none" stroke="black" points="77.5,-201 77.5,-224 145,-224 145,-201 77.5,-201"/>
<text text-anchor="start" x="107.5" y="-206.7" font-family="arial" font-size="14.00">4</text>
<polygon fill="none" stroke="black" points="0,-178 0,-201 77.5,-201 77.5,-178 0,-178"/>
<text text-anchor="start" x="35" y="-183.7" font-family="arial" font-size="14.00">5</text>
<polygon fill="none" stroke="black" points="0,-155 0,-178 77.5,-178 77.5,-155 0,-155"/>
<text text-anchor="start" x="32" y="-160.7" font-family="arial" font-size="14.00">B&#45;</text>
<polygon fill="none" stroke="black" points="77.5,-155 77.5,-178 145,-178 145,-155 77.5,-155"/>
<text text-anchor="start" x="107.5" y="-160.7" font-family="arial" font-size="14.00">6</text>
</g>
<!-- W1 -->
<g id="node3" class="node">
<title>W1</title>
<polygon fill="#ffffff" stroke="black" points="693,-475.5 290,-475.5 290,-250 693,-250 693,-475.5"/>
<polygon fill="none" stroke="black" points="290,-451.75 290,-475.5 693,-475.5 693,-451.75 290,-451.75"/>
<text text-anchor="start" x="481" y="-458.2" font-family="arial" font-size="14.00">W1</text>
<polygon fill="none" stroke="black" points="290,-428 290,-451.75 413.08,-451.75 413.08,-428 290,-428"/>
<text text-anchor="start" x="344.42" y="-434.45" font-family="arial" font-size="14.00">4x</text>
<polygon fill="none" stroke="black" points="413.08,-428 413.08,-451.75 542.92,-451.75 542.92,-428 413.08,-428"/>
<text text-anchor="start" x="467.5" y="-434.45" font-family="arial" font-size="14.00">+ S</text>
<polygon fill="none" stroke="black" points="542.92,-428 542.92,-451.75 693,-451.75 693,-428 542.92,-428"/>
<text text-anchor="start" x="597.33" y="-434.45" font-family="arial" font-size="14.00">7.5 cm</text>
<text text-anchor="start" x="357.12" y="-412.7" font-family="arial" font-size="14.00"> </text>
<text text-anchor="start" x="291.88" y="-393.7" font-family="arial" font-size="14.00">Nanotec Y Motor:1:A+</text>
<text text-anchor="start" x="431.5" y="-393.7" font-family="arial" font-size="14.00"> &#160;&#160;&#160;&#160;1:BK &#160;&#160;&#160;</text>
<text text-anchor="start" x="503.25" y="-393.7" font-family="arial" font-size="14.00">Technosoft Drive Motor:1:A/A+</text>
<polygon fill="#000000" stroke="none" points="290,-388 290,-390 693,-390 693,-388 290,-388"/>
<polygon fill="#000000" stroke="none" points="290,-386 290,-388 693,-388 693,-386 290,-386"/>
<polygon fill="#000000" stroke="none" points="290,-384 290,-386 693,-386 693,-384 290,-384"/>
<text text-anchor="start" x="293.75" y="-368.7" font-family="arial" font-size="14.00">Nanotec Y Motor:3:A&#45;</text>
<text text-anchor="start" x="430" y="-368.7" font-family="arial" font-size="14.00"> &#160;&#160;&#160;&#160;2:GN &#160;&#160;&#160;</text>
<text text-anchor="start" x="505.12" y="-368.7" font-family="arial" font-size="14.00">Technosoft Drive Motor:2:B/A&#45;</text>
<polygon fill="#000000" stroke="none" points="290,-363 290,-365 693,-365 693,-363 290,-363"/>
<polygon fill="#00ff00" stroke="none" points="290,-361 290,-363 693,-363 693,-361 290,-361"/>
<polygon fill="#000000" stroke="none" points="290,-359 290,-361 693,-361 693,-359 290,-359"/>
<text text-anchor="start" x="291.88" y="-343.7" font-family="arial" font-size="14.00">Nanotec Y Motor:4:B+</text>
<text text-anchor="start" x="430.75" y="-343.7" font-family="arial" font-size="14.00"> &#160;&#160;&#160;&#160;3:RD &#160;&#160;&#160;</text>
<text text-anchor="start" x="504.75" y="-343.7" font-family="arial" font-size="14.00">Technosoft Drive Motor:3:C/B&#45;</text>
<polygon fill="#000000" stroke="none" points="290,-338 290,-340 693,-340 693,-338 290,-338"/>
<polygon fill="#ff0000" stroke="none" points="290,-336 290,-338 693,-338 693,-336 290,-336"/>
<polygon fill="#000000" stroke="none" points="290,-334 290,-336 693,-336 693,-334 290,-334"/>
<text text-anchor="start" x="293.75" y="-318.7" font-family="arial" font-size="14.00">Nanotec Y Motor:6:B&#45;</text>
<text text-anchor="start" x="431.12" y="-318.7" font-family="arial" font-size="14.00"> &#160;&#160;&#160;&#160;4:BU &#160;&#160;&#160;</text>
<text text-anchor="start" x="499.88" y="-318.7" font-family="arial" font-size="14.00">Technosoft Drive Motor:4:CR/B&#45;</text>
<polygon fill="#000000" stroke="none" points="290,-313 290,-315 693,-315 693,-313 290,-313"/>
<polygon fill="#0066ff" stroke="none" points="290,-311 290,-313 693,-313 693,-311 290,-311"/>
<polygon fill="#000000" stroke="none" points="290,-309 290,-311 693,-311 693,-309 290,-309"/>
<text text-anchor="start" x="357.12" y="-293.7" font-family="arial" font-size="14.00"> </text>
<text text-anchor="start" x="444.25" y="-274.7" font-family="arial" font-size="14.00">Shield</text>
<polygon fill="#000000" stroke="none" points="290,-269 290,-271 693,-271 693,-269 290,-269"/>
<text text-anchor="start" x="357.12" y="-253.7" font-family="arial" font-size="14.00"> </text>
</g>
<!-- Nanotec Y Motor&#45;&#45;W1 -->
<g id="edge1" class="edge">
<title>Nanotec Y Motor:e&#45;&#45;W1:w</title>
<path fill="none" stroke="#000000" stroke-width="2" d="M145,-279.5C226.32,-281.78 211.64,-387.28 289,-385"/>
<path fill="none" stroke="#000000" stroke-width="2" d="M145,-281.5C224.34,-281.5 209.66,-387 289,-387"/>
<path fill="none" stroke="#000000" stroke-width="2" d="M145,-283.5C222.36,-281.22 207.68,-386.72 289,-389"/>
</g>
<!-- Nanotec Y Motor&#45;&#45;W1 -->
<g id="edge3" class="edge">
<title>Nanotec Y Motor:e&#45;&#45;W1:w</title>
<path fill="none" stroke="#000000" stroke-width="2" d="M145,-233.5C232.15,-235.91 205.77,-362.41 289,-360"/>
<path fill="none" stroke="#00ff00" stroke-width="2" d="M145,-235.5C230.19,-235.5 203.81,-362 289,-362"/>
<path fill="none" stroke="#000000" stroke-width="2" d="M145,-237.5C228.23,-235.09 201.85,-361.59 289,-364"/>
</g>
<!-- Nanotec Y Motor&#45;&#45;W1 -->
<g id="edge5" class="edge">
<title>Nanotec Y Motor:e&#45;&#45;W1:w</title>
<path fill="none" stroke="#000000" stroke-width="2" d="M145,-210.5C231.56,-212.9 206.36,-337.4 289,-335"/>
<path fill="none" stroke="#ff0000" stroke-width="2" d="M145,-212.5C229.6,-212.5 204.4,-337 289,-337"/>
<path fill="none" stroke="#000000" stroke-width="2" d="M145,-214.5C227.64,-212.1 202.44,-336.6 289,-339"/>
</g>
<!-- Nanotec Y Motor&#45;&#45;W1 -->
<g id="edge7" class="edge">
<title>Nanotec Y Motor:e&#45;&#45;W1:w</title>
<path fill="none" stroke="#000000" stroke-width="2" d="M145,-164.5C237.92,-167 199.95,-312.5 289,-310"/>
<path fill="none" stroke="#0066ff" stroke-width="2" d="M145,-166.5C235.98,-166.5 198.02,-312 289,-312"/>
<path fill="none" stroke="#000000" stroke-width="2" d="M145,-168.5C234.05,-166 196.08,-311.5 289,-314"/>
</g>
<!-- W2 -->
<g id="node4" class="node">
<title>W2</title>
<polygon fill="#ffffff" stroke="black" points="694,-225.5 289,-225.5 289,0 694,0 694,-225.5"/>
<polygon fill="none" stroke="black" points="289,-201.75 289,-225.5 694,-225.5 694,-201.75 289,-201.75"/>
<text text-anchor="start" x="481" y="-208.2" font-family="arial" font-size="14.00">W2</text>
<polygon fill="none" stroke="black" points="289,-178 289,-201.75 410.25,-201.75 410.25,-178 289,-178"/>
<text text-anchor="start" x="342.5" y="-184.45" font-family="arial" font-size="14.00">4x</text>
<polygon fill="none" stroke="black" points="410.25,-178 410.25,-201.75 538.25,-201.75 538.25,-178 410.25,-178"/>
<text text-anchor="start" x="463.75" y="-184.45" font-family="arial" font-size="14.00">+ S</text>
<polygon fill="none" stroke="black" points="538.25,-178 538.25,-201.75 694,-201.75 694,-178 538.25,-178"/>
<text text-anchor="start" x="591.75" y="-184.45" font-family="arial" font-size="14.00">75.0 cm</text>
<text text-anchor="start" x="356.12" y="-162.7" font-family="arial" font-size="14.00"> </text>
<text text-anchor="start" x="290.88" y="-143.7" font-family="arial" font-size="14.00">Nanotec Y Motor:1:A+</text>
<text text-anchor="start" x="431.5" y="-143.7" font-family="arial" font-size="14.00"> &#160;&#160;&#160;&#160;1:YE &#160;&#160;&#160;</text>
<text text-anchor="start" x="504.25" y="-143.7" font-family="arial" font-size="14.00">Technosoft Drive Motor:1:A/A+</text>
<polygon fill="#000000" stroke="none" points="289,-138 289,-140 694,-140 694,-138 289,-138"/>
<polygon fill="#ffff00" stroke="none" points="289,-136 289,-138 694,-138 694,-136 289,-136"/>
<polygon fill="#000000" stroke="none" points="289,-134 289,-136 694,-136 694,-134 289,-134"/>
<text text-anchor="start" x="292.75" y="-118.7" font-family="arial" font-size="14.00">Nanotec Y Motor:3:A&#45;</text>
<text text-anchor="start" x="430" y="-118.7" font-family="arial" font-size="14.00"> &#160;&#160;&#160;&#160;2:GN &#160;&#160;&#160;</text>
<text text-anchor="start" x="506.12" y="-118.7" font-family="arial" font-size="14.00">Technosoft Drive Motor:2:B/A&#45;</text>
<polygon fill="#000000" stroke="none" points="289,-113 289,-115 694,-115 694,-113 289,-113"/>
<polygon fill="#00ff00" stroke="none" points="289,-111 289,-113 694,-113 694,-111 289,-111"/>
<polygon fill="#000000" stroke="none" points="289,-109 289,-111 694,-111 694,-109 289,-109"/>
<text text-anchor="start" x="290.88" y="-93.7" font-family="arial" font-size="14.00">Nanotec Y Motor:4:B+</text>
<text text-anchor="start" x="428.88" y="-93.7" font-family="arial" font-size="14.00"> &#160;&#160;&#160;&#160;3:WH &#160;&#160;&#160;</text>
<text text-anchor="start" x="505.75" y="-93.7" font-family="arial" font-size="14.00">Technosoft Drive Motor:3:C/B&#45;</text>
<polygon fill="#000000" stroke="none" points="289,-88 289,-90 694,-90 694,-88 289,-88"/>
<polygon fill="#ffffff" stroke="none" points="289,-86 289,-88 694,-88 694,-86 289,-86"/>
<polygon fill="#000000" stroke="none" points="289,-84 289,-86 694,-86 694,-84 289,-84"/>
<text text-anchor="start" x="292.75" y="-68.7" font-family="arial" font-size="14.00">Nanotec Y Motor:6:B&#45;</text>
<text text-anchor="start" x="431.12" y="-68.7" font-family="arial" font-size="14.00"> &#160;&#160;&#160;&#160;4:BN &#160;&#160;&#160;</text>
<text text-anchor="start" x="500.88" y="-68.7" font-family="arial" font-size="14.00">Technosoft Drive Motor:4:CR/B&#45;</text>
<polygon fill="#000000" stroke="none" points="289,-63 289,-65 694,-65 694,-63 289,-63"/>
<polygon fill="#895956" stroke="none" points="289,-61 289,-63 694,-63 694,-61 289,-61"/>
<polygon fill="#000000" stroke="none" points="289,-59 289,-61 694,-61 694,-59 289,-59"/>
<text text-anchor="start" x="356.12" y="-43.7" font-family="arial" font-size="14.00"> </text>
<text text-anchor="start" x="444.25" y="-24.7" font-family="arial" font-size="14.00">Shield</text>
<polygon fill="#000000" stroke="none" points="289,-19 289,-21 694,-21 694,-19 289,-19"/>
<text text-anchor="start" x="356.12" y="-3.7" font-family="arial" font-size="14.00"> </text>
</g>
<!-- Nanotec Y Motor&#45;&#45;W2 -->
<g id="edge10" class="edge">
<title>Nanotec Y Motor:e&#45;&#45;W2:w</title>
<path fill="none" stroke="#000000" stroke-width="2" d="M145,-279.5C233.73,-282 196.4,-137.5 289,-135"/>
<path fill="none" stroke="#ffff00" stroke-width="2" d="M145,-281.5C235.67,-281.5 198.33,-137 289,-137"/>
<path fill="none" stroke="#000000" stroke-width="2" d="M145,-283.5C237.6,-281 200.27,-136.5 289,-139"/>
</g>
<!-- Nanotec Y Motor&#45;&#45;W2 -->
<g id="edge12" class="edge">
<title>Nanotec Y Motor:e&#45;&#45;W2:w</title>
<path fill="none" stroke="#000000" stroke-width="2" d="M145,-233.5C227.35,-235.89 202.72,-112.39 289,-110"/>
<path fill="none" stroke="#00ff00" stroke-width="2" d="M145,-235.5C229.31,-235.5 204.69,-112 289,-112"/>
<path fill="none" stroke="#000000" stroke-width="2" d="M145,-237.5C231.28,-235.11 206.65,-111.61 289,-114"/>
</g>
<!-- Nanotec Y Motor&#45;&#45;W2 -->
<g id="edge14" class="edge">
<title>Nanotec Y Motor:e&#45;&#45;W2:w</title>
<path fill="none" stroke="#000000" stroke-width="2" d="M145,-210.5C227.94,-212.9 202.15,-87.4 289,-85"/>
<path fill="none" stroke="#ffffff" stroke-width="2" d="M145,-212.5C229.89,-212.5 204.11,-87 289,-87"/>
<path fill="none" stroke="#000000" stroke-width="2" d="M145,-214.5C231.85,-212.1 206.06,-86.6 289,-89"/>
</g>
<!-- Nanotec Y Motor&#45;&#45;W2 -->
<g id="edge16" class="edge">
<title>Nanotec Y Motor:e&#45;&#45;W2:w</title>
<path fill="none" stroke="#000000" stroke-width="2" d="M145,-164.5C222.09,-166.77 207.94,-62.27 289,-60"/>
<path fill="none" stroke="#895956" stroke-width="2" d="M145,-166.5C224.08,-166.5 209.92,-62 289,-62"/>
<path fill="none" stroke="#000000" stroke-width="2" d="M145,-168.5C226.06,-166.23 211.91,-61.73 289,-64"/>
</g>
<!-- Technosoft Drive Motor -->
<g id="node2" class="node">
<title>Technosoft Drive Motor</title>
<polygon fill="#ffffff" stroke="black" points="985.5,-308 838,-308 838,-145.5 985.5,-145.5 985.5,-308"/>
<polygon fill="none" stroke="black" points="838,-284.25 838,-308 985.5,-308 985.5,-284.25 838,-284.25"/>
<text text-anchor="start" x="842" y="-290.7" font-family="arial" font-size="14.00">Technosoft Drive Motor</text>
<polygon fill="none" stroke="black" points="838,-260.5 838,-284.25 985.5,-284.25 985.5,-260.5 838,-260.5"/>
<text text-anchor="start" x="896.75" y="-266.95" font-family="arial" font-size="14.00">5&#45;pin</text>
<polygon fill="none" stroke="black" points="838,-237.5 838,-260.5 897.25,-260.5 897.25,-237.5 838,-237.5"/>
<text text-anchor="start" x="863.88" y="-243.2" font-family="arial" font-size="14.00">1</text>
<polygon fill="none" stroke="black" points="897.25,-237.5 897.25,-260.5 985.5,-260.5 985.5,-237.5 897.25,-237.5"/>
<text text-anchor="start" x="926.38" y="-243.2" font-family="arial" font-size="14.00">A/A+</text>
<polygon fill="none" stroke="black" points="838,-214.5 838,-237.5 897.25,-237.5 897.25,-214.5 838,-214.5"/>
<text text-anchor="start" x="863.88" y="-220.2" font-family="arial" font-size="14.00">2</text>
<polygon fill="none" stroke="black" points="897.25,-214.5 897.25,-237.5 985.5,-237.5 985.5,-214.5 897.25,-214.5"/>
<text text-anchor="start" x="928.25" y="-220.2" font-family="arial" font-size="14.00">B/A&#45;</text>
<polygon fill="none" stroke="black" points="838,-191.5 838,-214.5 897.25,-214.5 897.25,-191.5 838,-191.5"/>
<text text-anchor="start" x="863.88" y="-197.2" font-family="arial" font-size="14.00">3</text>
<polygon fill="none" stroke="black" points="897.25,-191.5 897.25,-214.5 985.5,-214.5 985.5,-191.5 897.25,-191.5"/>
<text text-anchor="start" x="927.88" y="-197.2" font-family="arial" font-size="14.00">C/B&#45;</text>
<polygon fill="none" stroke="black" points="838,-168.5 838,-191.5 897.25,-191.5 897.25,-168.5 838,-168.5"/>
<text text-anchor="start" x="863.88" y="-174.2" font-family="arial" font-size="14.00">4</text>
<polygon fill="none" stroke="black" points="897.25,-168.5 897.25,-191.5 985.5,-191.5 985.5,-168.5 897.25,-168.5"/>
<text text-anchor="start" x="923" y="-174.2" font-family="arial" font-size="14.00">CR/B&#45;</text>
<polygon fill="none" stroke="black" points="838,-145.5 838,-168.5 897.25,-168.5 897.25,-145.5 838,-145.5"/>
<text text-anchor="start" x="863.88" y="-151.2" font-family="arial" font-size="14.00">5</text>
<polygon fill="none" stroke="black" points="897.25,-145.5 897.25,-168.5 985.5,-168.5 985.5,-145.5 897.25,-145.5"/>
<text text-anchor="start" x="925.25" y="-151.2" font-family="arial" font-size="14.00">Earth</text>
</g>
<!-- W1&#45;&#45;Technosoft Drive Motor -->
<g id="edge2" class="edge">
<title>W1:e&#45;&#45;Technosoft Drive Motor:w</title>
<path fill="none" stroke="#000000" stroke-width="2" d="M694,-385C780.7,-387.47 747.41,-249.47 838,-247"/>
<path fill="none" stroke="#000000" stroke-width="2" d="M694,-387C782.64,-387 749.36,-249 838,-249"/>
<path fill="none" stroke="#000000" stroke-width="2" d="M694,-389C784.59,-386.53 751.3,-248.53 838,-251"/>
</g>
<!-- W1&#45;&#45;Technosoft Drive Motor -->
<g id="edge4" class="edge">
<title>W1:e&#45;&#45;Technosoft Drive Motor:w</title>
<path fill="none" stroke="#000000" stroke-width="2" d="M694,-360C780.08,-362.46 748.02,-226.46 838,-224"/>
<path fill="none" stroke="#00ff00" stroke-width="2" d="M694,-362C782.03,-362 749.97,-226 838,-226"/>
<path fill="none" stroke="#000000" stroke-width="2" d="M694,-364C783.98,-361.54 751.92,-225.54 838,-228"/>
</g>
<!-- W1&#45;&#45;Technosoft Drive Motor -->
<g id="edge6" class="edge">
<title>W1:e&#45;&#45;Technosoft Drive Motor:w</title>
<path fill="none" stroke="#000000" stroke-width="2" d="M694,-335C779.47,-337.45 748.63,-203.45 838,-201"/>
<path fill="none" stroke="#ff0000" stroke-width="2" d="M694,-337C781.42,-337 750.58,-203 838,-203"/>
<path fill="none" stroke="#000000" stroke-width="2" d="M694,-339C783.37,-336.55 752.53,-202.55 838,-205"/>
</g>
<!-- W1&#45;&#45;Technosoft Drive Motor -->
<g id="edge8" class="edge">
<title>W1:e&#45;&#45;Technosoft Drive Motor:w</title>
<path fill="none" stroke="#000000" stroke-width="2" d="M694,-310C778.87,-312.44 749.23,-180.44 838,-178"/>
<path fill="none" stroke="#0066ff" stroke-width="2" d="M694,-312C780.82,-312 751.18,-180 838,-180"/>
<path fill="none" stroke="#000000" stroke-width="2" d="M694,-314C782.77,-311.56 753.13,-179.56 838,-182"/>
</g>
<!-- W1&#45;&#45;Technosoft Drive Motor -->
<g id="edge9" class="edge">
<title>W1:e&#45;&#45;Technosoft Drive Motor:w</title>
<path fill="none" stroke="#000000" stroke-width="2" d="M694,-270C775.35,-270 756.65,-157 838,-157"/>
</g>
<!-- W2&#45;&#45;Technosoft Drive Motor -->
<g id="edge11" class="edge">
<title>W2:e&#45;&#45;Technosoft Drive Motor:w</title>
<path fill="none" stroke="#000000" stroke-width="2" d="M694,-135C777.05,-137.32 758.9,-249.32 838,-247"/>
<path fill="none" stroke="#ffff00" stroke-width="2" d="M694,-137C775.08,-137 756.92,-249 838,-249"/>
<path fill="none" stroke="#000000" stroke-width="2" d="M694,-139C773.1,-136.68 754.95,-248.68 838,-251"/>
</g>
<!-- W2&#45;&#45;Technosoft Drive Motor -->
<g id="edge13" class="edge">
<title>W2:e&#45;&#45;Technosoft Drive Motor:w</title>
<path fill="none" stroke="#000000" stroke-width="2" d="M694,-110C777.6,-112.33 758.34,-226.33 838,-224"/>
<path fill="none" stroke="#00ff00" stroke-width="2" d="M694,-112C775.63,-112 756.37,-226 838,-226"/>
<path fill="none" stroke="#000000" stroke-width="2" d="M694,-114C773.66,-111.67 754.4,-225.67 838,-228"/>
</g>
<!-- W2&#45;&#45;Technosoft Drive Motor -->
<g id="edge15" class="edge">
<title>W2:e&#45;&#45;Technosoft Drive Motor:w</title>
<path fill="none" stroke="#000000" stroke-width="2" d="M694,-85C778.15,-87.35 757.79,-203.35 838,-201"/>
<path fill="none" stroke="#ffffff" stroke-width="2" d="M694,-87C776.18,-87 755.82,-203 838,-203"/>
<path fill="none" stroke="#000000" stroke-width="2" d="M694,-89C774.21,-86.65 753.85,-202.65 838,-205"/>
</g>
<!-- W2&#45;&#45;Technosoft Drive Motor -->
<g id="edge17" class="edge">
<title>W2:e&#45;&#45;Technosoft Drive Motor:w</title>
<path fill="none" stroke="#000000" stroke-width="2" d="M694,-60C778.71,-62.36 757.22,-180.36 838,-178"/>
<path fill="none" stroke="#895956" stroke-width="2" d="M694,-62C776.74,-62 755.26,-180 838,-180"/>
<path fill="none" stroke="#000000" stroke-width="2" d="M694,-64C774.78,-61.64 753.29,-179.64 838,-182"/>
</g>
<!-- W2&#45;&#45;Technosoft Drive Motor -->
<g id="edge18" class="edge">
<title>W2:e&#45;&#45;Technosoft Drive Motor:w</title>
<path fill="none" stroke="#000000" stroke-width="2" d="M694,-20C782.34,-20 749.66,-157 838,-157"/>
</g>
</g>
</svg>
