<?xml version="1.0" encoding="UTF-8" standalone="no"?>
<!DOCTYPE svg PUBLIC "-//W3C//DTD SVG 1.1//EN"
 "http://www.w3.org/Graphics/SVG/1.1/DTD/svg11.dtd">
<!-- Generated by graphviz version 12.1.2 (20240928.0832)
 -->
<!-- Pages: 1 -->
<svg width="2228pt" height="493pt"
 viewBox="0.00 0.00 2227.75 492.50" xmlns="http://www.w3.org/2000/svg" xmlns:xlink="http://www.w3.org/1999/xlink">
<g id="graph0" class="graph" transform="scale(1 1) rotate(0) translate(4 488.5)">
<polygon fill="#ffffff" stroke="none" points="-4,4 -4,-488.5 2223.75,-488.5 2223.75,4 -4,4"/>
<!-- Ferrules -->
<g id="node1" class="node">
<title>Ferrules</title>
<polygon fill="#ffffff" stroke="black" points="1251.75,-210.25 866.5,-210.25 866.5,-31.25 1251.75,-31.25 1251.75,-210.25"/>
<polygon fill="none" stroke="black" points="866.5,-186.5 866.5,-210.25 1251.75,-210.25 1251.75,-186.5 866.5,-186.5"/>
<text text-anchor="start" x="1034.38" y="-192.95" font-family="arial" font-size="14.00">Ferrules</text>
<polygon fill="none" stroke="black" points="866.5,-162.75 866.5,-186.5 1068.88,-186.5 1068.88,-162.75 866.5,-162.75"/>
<text text-anchor="start" x="942.94" y="-169.2" font-family="arial" font-size="14.00">Ferrules</text>
<polygon fill="none" stroke="black" points="1068.88,-162.75 1068.88,-186.5 1251.75,-186.5 1251.75,-162.75 1068.88,-162.75"/>
<text text-anchor="start" x="1145.31" y="-169.2" font-family="arial" font-size="14.00">4&#45;pin</text>
<polygon fill="none" stroke="black" points="866.5,-139.75 866.5,-162.75 978.25,-162.75 978.25,-139.75 866.5,-139.75"/>
<text text-anchor="start" x="918.62" y="-145.45" font-family="arial" font-size="14.00">1</text>
<polygon fill="none" stroke="black" points="978.25,-139.75 978.25,-162.75 1140,-162.75 1140,-139.75 978.25,-139.75"/>
<text text-anchor="start" x="1032.88" y="-145.45" font-family="arial" font-size="14.00">ST2P.YL</text>
<polygon fill="none" stroke="black" points="1140,-139.75 1140,-162.75 1251.75,-162.75 1251.75,-139.75 1140,-139.75"/>
<text text-anchor="start" x="1192.12" y="-145.45" font-family="arial" font-size="14.00">1</text>
<polygon fill="none" stroke="black" points="866.5,-116.75 866.5,-139.75 978.25,-139.75 978.25,-116.75 866.5,-116.75"/>
<text text-anchor="start" x="918.62" y="-122.45" font-family="arial" font-size="14.00">2</text>
<polygon fill="none" stroke="black" points="978.25,-116.75 978.25,-139.75 1140,-139.75 1140,-116.75 978.25,-116.75"/>
<text text-anchor="start" x="1031.75" y="-122.45" font-family="arial" font-size="14.00">ST1P.YR</text>
<polygon fill="none" stroke="black" points="1140,-116.75 1140,-139.75 1251.75,-139.75 1251.75,-116.75 1140,-116.75"/>
<text text-anchor="start" x="1192.12" y="-122.45" font-family="arial" font-size="14.00">2</text>
<polygon fill="none" stroke="black" points="866.5,-93.75 866.5,-116.75 978.25,-116.75 978.25,-93.75 866.5,-93.75"/>
<text text-anchor="start" x="918.62" y="-99.45" font-family="arial" font-size="14.00">3</text>
<polygon fill="none" stroke="black" points="978.25,-93.75 978.25,-116.75 1140,-116.75 1140,-93.75 978.25,-93.75"/>
<text text-anchor="start" x="1031.75" y="-99.45" font-family="arial" font-size="14.00">ST2N.BL</text>
<polygon fill="none" stroke="black" points="1140,-93.75 1140,-116.75 1251.75,-116.75 1251.75,-93.75 1140,-93.75"/>
<text text-anchor="start" x="1192.12" y="-99.45" font-family="arial" font-size="14.00">3</text>
<polygon fill="none" stroke="black" points="866.5,-70.75 866.5,-93.75 978.25,-93.75 978.25,-70.75 866.5,-70.75"/>
<text text-anchor="start" x="918.62" y="-76.45" font-family="arial" font-size="14.00">4</text>
<polygon fill="none" stroke="black" points="978.25,-70.75 978.25,-93.75 1140,-93.75 1140,-70.75 978.25,-70.75"/>
<text text-anchor="start" x="1030.62" y="-76.45" font-family="arial" font-size="14.00">ST1N.BR</text>
<polygon fill="none" stroke="black" points="1140,-70.75 1140,-93.75 1251.75,-93.75 1251.75,-70.75 1140,-70.75"/>
<text text-anchor="start" x="1192.12" y="-76.45" font-family="arial" font-size="14.00">4</text>
<polygon fill="none" stroke="black" points="866.5,-31.25 866.5,-70.75 1251.75,-70.75 1251.75,-31.25 866.5,-31.25"/>
<text text-anchor="start" x="870.5" y="-53.45" font-family="arial" font-size="14.00">Ferrules to Corresponding Terminal Distribution Blocks </text>
<text text-anchor="start" x="870.5" y="-37.7" font-family="arial" font-size="14.00">Phoenix Contact PTFIX 4X1,5 BK(1046616) + YE(1046612) &#160;&#160;&#160;&#160;</text>
</g>
<!-- W3 -->
<g id="node7" class="node">
<title>W3</title>
<polygon fill="#ffffff" stroke="black" points="1821.75,-484.5 1404.75,-484.5 1404.75,-349 1821.75,-349 1821.75,-484.5"/>
<polygon fill="none" stroke="black" points="1404.75,-460.75 1404.75,-484.5 1821.75,-484.5 1821.75,-460.75 1404.75,-460.75"/>
<text text-anchor="start" x="1602.75" y="-467.2" font-family="arial" font-size="14.00">W3</text>
<polygon fill="none" stroke="black" points="1404.75,-437 1404.75,-460.75 1821.75,-460.75 1821.75,-437 1404.75,-437"/>
<text text-anchor="start" x="1606.12" y="-443.45" font-family="arial" font-size="14.00">2x</text>
<text text-anchor="start" x="1482.38" y="-421.7" font-family="arial" font-size="14.00"> </text>
<text text-anchor="start" x="1425.75" y="-402.7" font-family="arial" font-size="14.00">Ferrules:1:ST2P.YL</text>
<text text-anchor="start" x="1565.62" y="-402.7" font-family="arial" font-size="14.00"> &#160;&#160;&#160;&#160;1:WH &#160;&#160;&#160;</text>
<text text-anchor="start" x="1637.62" y="-402.7" font-family="arial" font-size="14.00">Reed Switch Left:1:Yellow Left</text>
<polygon fill="#000000" stroke="none" points="1404.75,-397 1404.75,-399 1821.75,-399 1821.75,-397 1404.75,-397"/>
<polygon fill="#ffffff" stroke="none" points="1404.75,-395 1404.75,-397 1821.75,-397 1821.75,-395 1404.75,-395"/>
<polygon fill="#000000" stroke="none" points="1404.75,-393 1404.75,-395 1821.75,-395 1821.75,-393 1404.75,-393"/>
<text text-anchor="start" x="1406.62" y="-377.7" font-family="arial" font-size="14.00">24V Terminal Block:1:24V</text>
<text text-anchor="start" x="1567.88" y="-377.7" font-family="arial" font-size="14.00"> &#160;&#160;&#160;&#160;2:BN &#160;&#160;&#160;</text>
<text text-anchor="start" x="1658.25" y="-377.7" font-family="arial" font-size="14.00">Reed Switch Left:2:24V</text>
<polygon fill="#000000" stroke="none" points="1404.75,-372 1404.75,-374 1821.75,-374 1821.75,-372 1404.75,-372"/>
<polygon fill="#895956" stroke="none" points="1404.75,-370 1404.75,-372 1821.75,-372 1821.75,-370 1404.75,-370"/>
<polygon fill="#000000" stroke="none" points="1404.75,-368 1404.75,-370 1821.75,-370 1821.75,-368 1404.75,-368"/>
<text text-anchor="start" x="1482.38" y="-352.7" font-family="arial" font-size="14.00"> </text>
</g>
<!-- Ferrules&#45;&#45;W3 -->
<g id="edge1" class="edge">
<title>Ferrules:e&#45;&#45;W3:w</title>
<path fill="none" stroke="#000000" stroke-width="2" d="M1251.75,-149.25C1381.64,-152.03 1277.54,-396.78 1403.75,-394"/>
<path fill="none" stroke="#ffffff" stroke-width="2" d="M1251.75,-151.25C1379.8,-151.25 1275.7,-396 1403.75,-396"/>
<path fill="none" stroke="#000000" stroke-width="2" d="M1251.75,-153.25C1377.96,-150.47 1273.86,-395.22 1403.75,-398"/>
</g>
<!-- W4 -->
<g id="node8" class="node">
<title>W4</title>
<polygon fill="#ffffff" stroke="black" points="1830.75,-324.5 1395.75,-324.5 1395.75,-189 1830.75,-189 1830.75,-324.5"/>
<polygon fill="none" stroke="black" points="1395.75,-300.75 1395.75,-324.5 1830.75,-324.5 1830.75,-300.75 1395.75,-300.75"/>
<text text-anchor="start" x="1602.75" y="-307.2" font-family="arial" font-size="14.00">W4</text>
<polygon fill="none" stroke="black" points="1395.75,-277 1395.75,-300.75 1830.75,-300.75 1830.75,-277 1395.75,-277"/>
<text text-anchor="start" x="1606.12" y="-283.45" font-family="arial" font-size="14.00">2x</text>
<text text-anchor="start" x="1473.38" y="-261.7" font-family="arial" font-size="14.00"> </text>
<text text-anchor="start" x="1415.62" y="-242.7" font-family="arial" font-size="14.00">Ferrules:2:ST1P.YR</text>
<text text-anchor="start" x="1556.62" y="-242.7" font-family="arial" font-size="14.00"> &#160;&#160;&#160;&#160;1:WH &#160;&#160;&#160;</text>
<text text-anchor="start" x="1628.62" y="-242.7" font-family="arial" font-size="14.00">Reed Switch Right:1:Yellow Right</text>
<polygon fill="#000000" stroke="none" points="1395.75,-237 1395.75,-239 1830.75,-239 1830.75,-237 1395.75,-237"/>
<polygon fill="#ffffff" stroke="none" points="1395.75,-235 1395.75,-237 1830.75,-237 1830.75,-235 1395.75,-235"/>
<polygon fill="#000000" stroke="none" points="1395.75,-233 1395.75,-235 1830.75,-235 1830.75,-233 1395.75,-233"/>
<text text-anchor="start" x="1397.62" y="-217.7" font-family="arial" font-size="14.00">24V Terminal Block:1:24V</text>
<text text-anchor="start" x="1558.88" y="-217.7" font-family="arial" font-size="14.00"> &#160;&#160;&#160;&#160;2:BN &#160;&#160;&#160;</text>
<text text-anchor="start" x="1653.75" y="-217.7" font-family="arial" font-size="14.00">Reed Switch Right:2:24V</text>
<polygon fill="#000000" stroke="none" points="1395.75,-212 1395.75,-214 1830.75,-214 1830.75,-212 1395.75,-212"/>
<polygon fill="#895956" stroke="none" points="1395.75,-210 1395.75,-212 1830.75,-212 1830.75,-210 1395.75,-210"/>
<polygon fill="#000000" stroke="none" points="1395.75,-208 1395.75,-210 1830.75,-210 1830.75,-208 1395.75,-208"/>
<text text-anchor="start" x="1473.38" y="-192.7" font-family="arial" font-size="14.00"> </text>
</g>
<!-- Ferrules&#45;&#45;W4 -->
<g id="edge5" class="edge">
<title>Ferrules:e&#45;&#45;W4:w</title>
<path fill="none" stroke="#000000" stroke-width="2" d="M1251.75,-126.25C1333.66,-128.54 1317.8,-236.29 1395.75,-234"/>
<path fill="none" stroke="#ffffff" stroke-width="2" d="M1251.75,-128.25C1331.68,-128.25 1315.82,-236 1395.75,-236"/>
<path fill="none" stroke="#000000" stroke-width="2" d="M1251.75,-130.25C1329.7,-127.96 1313.84,-235.71 1395.75,-238"/>
</g>
<!-- W2 -->
<g id="node10" class="node">
<title>W2</title>
<polygon fill="#ffffff" stroke="black" points="1802.75,-164.5 1423.75,-164.5 1423.75,-29 1802.75,-29 1802.75,-164.5"/>
<polygon fill="none" stroke="black" points="1423.75,-140.75 1423.75,-164.5 1802.75,-164.5 1802.75,-140.75 1423.75,-140.75"/>
<text text-anchor="start" x="1602.75" y="-147.2" font-family="arial" font-size="14.00">W2</text>
<polygon fill="none" stroke="black" points="1423.75,-117 1423.75,-140.75 1802.75,-140.75 1802.75,-117 1423.75,-117"/>
<text text-anchor="start" x="1606.12" y="-123.45" font-family="arial" font-size="14.00">2x</text>
<text text-anchor="start" x="1484.38" y="-101.7" font-family="arial" font-size="14.00"> </text>
<text text-anchor="start" x="1426.62" y="-82.7" font-family="arial" font-size="14.00">Ferrules:3:ST2N.BL</text>
<text text-anchor="start" x="1550.75" y="-82.7" font-family="arial" font-size="14.00"> &#160;&#160;&#160;&#160;1:BK &#160;&#160;&#160;</text>
<text text-anchor="start" x="1617.38" y="-82.7" font-family="arial" font-size="14.00">Ground Terminal Block:1:GND</text>
<polygon fill="#000000" stroke="none" points="1423.75,-77 1423.75,-79 1802.75,-79 1802.75,-77 1423.75,-77"/>
<polygon fill="#000000" stroke="none" points="1423.75,-75 1423.75,-77 1802.75,-77 1802.75,-75 1423.75,-75"/>
<polygon fill="#000000" stroke="none" points="1423.75,-73 1423.75,-75 1802.75,-75 1802.75,-73 1423.75,-73"/>
<text text-anchor="start" x="1425.5" y="-57.7" font-family="arial" font-size="14.00">Ferrules:4:ST1N.BR</text>
<text text-anchor="start" x="1550.75" y="-57.7" font-family="arial" font-size="14.00"> &#160;&#160;&#160;&#160;2:BK &#160;&#160;&#160;</text>
<text text-anchor="start" x="1617.38" y="-57.7" font-family="arial" font-size="14.00">Ground Terminal Block:1:GND</text>
<polygon fill="#000000" stroke="none" points="1423.75,-52 1423.75,-54 1802.75,-54 1802.75,-52 1423.75,-52"/>
<polygon fill="#000000" stroke="none" points="1423.75,-50 1423.75,-52 1802.75,-52 1802.75,-50 1423.75,-50"/>
<polygon fill="#000000" stroke="none" points="1423.75,-48 1423.75,-50 1802.75,-50 1802.75,-48 1423.75,-48"/>
<text text-anchor="start" x="1484.38" y="-32.7" font-family="arial" font-size="14.00"> </text>
</g>
<!-- Ferrules&#45;&#45;W2 -->
<g id="edge17" class="edge">
<title>Ferrules:e&#45;&#45;W2:w</title>
<path fill="none" stroke="#000000" stroke-width="2" d="M1251.75,-103.25C1327.12,-104.25 1343.91,-75 1422.75,-74"/>
<path fill="none" stroke="#000000" stroke-width="2" d="M1251.75,-105.25C1328.85,-105.25 1345.65,-76 1422.75,-76"/>
<path fill="none" stroke="#000000" stroke-width="2" d="M1251.75,-107.25C1330.59,-106.25 1347.38,-77 1422.75,-78"/>
</g>
<!-- Ferrules&#45;&#45;W2 -->
<g id="edge19" class="edge">
<title>Ferrules:e&#45;&#45;W2:w</title>
<path fill="none" stroke="#000000" stroke-width="2" d="M1251.75,-80.25C1327.24,-81.32 1343.72,-50.07 1422.75,-49"/>
<path fill="none" stroke="#000000" stroke-width="2" d="M1251.75,-82.25C1329.01,-82.25 1345.49,-51 1422.75,-51"/>
<path fill="none" stroke="#000000" stroke-width="2" d="M1251.75,-84.25C1330.78,-83.18 1347.26,-51.93 1422.75,-53"/>
</g>
<!-- Reed Switch Left -->
<g id="node2" class="node">
<title>Reed Switch Left</title>
<polygon fill="#ffffff" stroke="black" points="2219.75,-454.38 1974.75,-454.38 1974.75,-337.12 2219.75,-337.12 2219.75,-454.38"/>
<polygon fill="none" stroke="black" points="1974.75,-430.62 1974.75,-454.38 2219.75,-454.38 2219.75,-430.62 1974.75,-430.62"/>
<text text-anchor="start" x="2046.25" y="-437.07" font-family="arial" font-size="14.00">Reed Switch Left</text>
<polygon fill="none" stroke="black" points="1974.75,-406.88 1974.75,-430.62 2103.42,-430.62 2103.42,-406.88 1974.75,-406.88"/>
<text text-anchor="start" x="1982.08" y="-413.32" font-family="arial" font-size="14.00">RS Pro IP67 SPST</text>
<polygon fill="none" stroke="black" points="2103.42,-406.88 2103.42,-430.62 2175.08,-430.62 2175.08,-406.88 2103.42,-406.88"/>
<text text-anchor="start" x="2110.75" y="-413.32" font-family="arial" font-size="14.00">268&#45;4855</text>
<polygon fill="none" stroke="black" points="2175.08,-406.88 2175.08,-430.62 2219.75,-430.62 2219.75,-406.88 2175.08,-406.88"/>
<text text-anchor="start" x="2182.42" y="-413.32" font-family="arial" font-size="14.00">2&#45;pin</text>
<polygon fill="none" stroke="black" points="1974.75,-383.88 1974.75,-406.88 2068.25,-406.88 2068.25,-383.88 1974.75,-383.88"/>
<text text-anchor="start" x="2017.75" y="-389.57" font-family="arial" font-size="14.00">1</text>
<polygon fill="none" stroke="black" points="2068.25,-383.88 2068.25,-406.88 2219.75,-406.88 2219.75,-383.88 2068.25,-383.88"/>
<text text-anchor="start" x="2111.38" y="-389.57" font-family="arial" font-size="14.00">Yellow Left</text>
<polygon fill="none" stroke="black" points="1974.75,-360.88 1974.75,-383.88 2068.25,-383.88 2068.25,-360.88 1974.75,-360.88"/>
<text text-anchor="start" x="2017.75" y="-366.57" font-family="arial" font-size="14.00">2</text>
<polygon fill="none" stroke="black" points="2068.25,-360.88 2068.25,-383.88 2219.75,-383.88 2219.75,-360.88 2068.25,-360.88"/>
<text text-anchor="start" x="2132" y="-366.57" font-family="arial" font-size="14.00">24V</text>
<polygon fill="none" stroke="black" points="1974.75,-337.12 1974.75,-360.88 2219.75,-360.88 2219.75,-337.12 1974.75,-337.12"/>
<text text-anchor="start" x="1978.75" y="-343.57" font-family="arial" font-size="14.00">Cable Mount Reed Switch 0.5A 100Vdc</text>
</g>
<!-- Reed Switch Right -->
<g id="node3" class="node">
<title>Reed Switch Right</title>
<polygon fill="#ffffff" stroke="black" points="2219.75,-294.38 1974.75,-294.38 1974.75,-177.12 2219.75,-177.12 2219.75,-294.38"/>
<polygon fill="none" stroke="black" points="1974.75,-270.62 1974.75,-294.38 2219.75,-294.38 2219.75,-270.62 1974.75,-270.62"/>
<text text-anchor="start" x="2041.75" y="-277.07" font-family="arial" font-size="14.00">Reed Switch Right</text>
<polygon fill="none" stroke="black" points="1974.75,-246.88 1974.75,-270.62 2103.42,-270.62 2103.42,-246.88 1974.75,-246.88"/>
<text text-anchor="start" x="1982.08" y="-253.32" font-family="arial" font-size="14.00">RS Pro IP67 SPST</text>
<polygon fill="none" stroke="black" points="2103.42,-246.88 2103.42,-270.62 2175.08,-270.62 2175.08,-246.88 2103.42,-246.88"/>
<text text-anchor="start" x="2110.75" y="-253.32" font-family="arial" font-size="14.00">268&#45;4855</text>
<polygon fill="none" stroke="black" points="2175.08,-246.88 2175.08,-270.62 2219.75,-270.62 2219.75,-246.88 2175.08,-246.88"/>
<text text-anchor="start" x="2182.42" y="-253.32" font-family="arial" font-size="14.00">2&#45;pin</text>
<polygon fill="none" stroke="black" points="1974.75,-223.88 1974.75,-246.88 2063.75,-246.88 2063.75,-223.88 1974.75,-223.88"/>
<text text-anchor="start" x="2015.5" y="-229.57" font-family="arial" font-size="14.00">1</text>
<polygon fill="none" stroke="black" points="2063.75,-223.88 2063.75,-246.88 2219.75,-246.88 2219.75,-223.88 2063.75,-223.88"/>
<text text-anchor="start" x="2104.62" y="-229.57" font-family="arial" font-size="14.00">Yellow Right</text>
<polygon fill="none" stroke="black" points="1974.75,-200.88 1974.75,-223.88 2063.75,-223.88 2063.75,-200.88 1974.75,-200.88"/>
<text text-anchor="start" x="2015.5" y="-206.57" font-family="arial" font-size="14.00">2</text>
<polygon fill="none" stroke="black" points="2063.75,-200.88 2063.75,-223.88 2219.75,-223.88 2219.75,-200.88 2063.75,-200.88"/>
<text text-anchor="start" x="2129.75" y="-206.57" font-family="arial" font-size="14.00">24V</text>
<polygon fill="none" stroke="black" points="1974.75,-177.12 1974.75,-200.88 2219.75,-200.88 2219.75,-177.12 1974.75,-177.12"/>
<text text-anchor="start" x="1978.75" y="-183.57" font-family="arial" font-size="14.00">Cable Mount Reed Switch 0.5A 100Vdc</text>
</g>
<!-- X STO Molex MicroFit -->
<g id="node4" class="node">
<title>X STO Molex MicroFit</title>
<polygon fill="#ffffff" stroke="black" points="191.5,-210.38 0,-210.38 0,-47.12 191.5,-47.12 191.5,-210.38"/>
<polygon fill="none" stroke="black" points="0,-186.62 0,-210.38 191.5,-210.38 191.5,-186.62 0,-186.62"/>
<text text-anchor="start" x="28.62" y="-193.07" font-family="arial" font-size="14.00">X STO Molex MicroFit</text>
<polygon fill="none" stroke="black" points="0,-162.88 0,-186.62 153.5,-186.62 153.5,-162.88 0,-162.88"/>
<text text-anchor="start" x="4" y="-169.32" font-family="arial" font-size="14.00">X STO Technosoft Drive</text>
<polygon fill="none" stroke="black" points="153.5,-162.88 153.5,-186.62 191.5,-186.62 191.5,-162.88 153.5,-162.88"/>
<text text-anchor="start" x="157.5" y="-169.32" font-family="arial" font-size="14.00">4&#45;pin</text>
<polygon fill="none" stroke="black" points="0,-139.88 0,-162.88 116.25,-162.88 116.25,-139.88 0,-139.88"/>
<text text-anchor="start" x="34.12" y="-145.57" font-family="arial" font-size="14.00">STO 2+</text>
<polygon fill="none" stroke="black" points="116.25,-139.88 116.25,-162.88 191.5,-162.88 191.5,-139.88 116.25,-139.88"/>
<text text-anchor="start" x="150.12" y="-145.57" font-family="arial" font-size="14.00">1</text>
<polygon fill="none" stroke="black" points="0,-116.88 0,-139.88 116.25,-139.88 116.25,-116.88 0,-116.88"/>
<text text-anchor="start" x="34.12" y="-122.58" font-family="arial" font-size="14.00">STO 1+</text>
<polygon fill="none" stroke="black" points="116.25,-116.88 116.25,-139.88 191.5,-139.88 191.5,-116.88 116.25,-116.88"/>
<text text-anchor="start" x="150.12" y="-122.58" font-family="arial" font-size="14.00">2</text>
<polygon fill="none" stroke="black" points="0,-93.88 0,-116.88 116.25,-116.88 116.25,-93.88 0,-93.88"/>
<text text-anchor="start" x="36" y="-99.58" font-family="arial" font-size="14.00">STO 2&#45;</text>
<polygon fill="none" stroke="black" points="116.25,-93.88 116.25,-116.88 191.5,-116.88 191.5,-93.88 116.25,-93.88"/>
<text text-anchor="start" x="150.12" y="-99.58" font-family="arial" font-size="14.00">3</text>
<polygon fill="none" stroke="black" points="0,-70.88 0,-93.88 116.25,-93.88 116.25,-70.88 0,-70.88"/>
<text text-anchor="start" x="36" y="-76.58" font-family="arial" font-size="14.00">STO 1&#45;</text>
<polygon fill="none" stroke="black" points="116.25,-70.88 116.25,-93.88 191.5,-93.88 191.5,-70.88 116.25,-70.88"/>
<text text-anchor="start" x="150.12" y="-76.58" font-family="arial" font-size="14.00">4</text>
<polygon fill="none" stroke="black" points="0,-47.12 0,-70.88 191.5,-70.88 191.5,-47.12 0,-47.12"/>
<text text-anchor="start" x="61.25" y="-53.58" font-family="arial" font-size="14.00">39&#45;01&#45;2040</text>
</g>
<!-- W1 -->
<g id="node9" class="node">
<title>W1</title>
<polygon fill="#ffffff" stroke="black" stroke-dasharray="5,2" points="722.5,-277.5 335.5,-277.5 335.5,0 722.5,0 722.5,-277.5"/>
<polygon fill="none" stroke="black" points="335.5,-253.75 335.5,-277.5 722.5,-277.5 722.5,-253.75 335.5,-253.75"/>
<text text-anchor="start" x="518.5" y="-260.2" font-family="arial" font-size="14.00">W1</text>
<polygon fill="none" stroke="black" points="335.5,-230 335.5,-253.75 722.5,-253.75 722.5,-230 335.5,-230"/>
<text text-anchor="start" x="521.88" y="-236.45" font-family="arial" font-size="14.00">4x</text>
<text text-anchor="start" x="434.12" y="-214.7" font-family="arial" font-size="14.00"> </text>
<text text-anchor="start" x="337.38" y="-195.7" font-family="arial" font-size="14.00">X STO Molex MicroFit:1:STO 2+</text>
<text text-anchor="start" x="541.12" y="-195.7" font-family="arial" font-size="14.00"> &#160;&#160;&#160;&#160;YE &#160;&#160;&#160;</text>
<text text-anchor="start" x="601.5" y="-195.7" font-family="arial" font-size="14.00">Ferrules:1:ST2P.YL</text>
<polygon fill="#000000" stroke="none" points="335.5,-190 335.5,-192 722.5,-192 722.5,-190 335.5,-190"/>
<polygon fill="#ffff00" stroke="none" points="335.5,-188 335.5,-190 722.5,-190 722.5,-188 335.5,-188"/>
<polygon fill="#000000" stroke="none" points="335.5,-186 335.5,-188 722.5,-188 722.5,-186 335.5,-186"/>
<text text-anchor="start" x="496.38" y="-168.7" font-family="arial" font-size="14.00">Yellow Left</text>
<text text-anchor="start" x="337.38" y="-147.7" font-family="arial" font-size="14.00">X STO Molex MicroFit:2:STO 1+</text>
<text text-anchor="start" x="540.75" y="-147.7" font-family="arial" font-size="14.00"> &#160;&#160;&#160;&#160;BN &#160;&#160;&#160;</text>
<text text-anchor="start" x="600.38" y="-147.7" font-family="arial" font-size="14.00">Ferrules:2:ST1P.YR</text>
<polygon fill="#000000" stroke="none" points="335.5,-142 335.5,-144 722.5,-144 722.5,-142 335.5,-142"/>
<polygon fill="#895956" stroke="none" points="335.5,-140 335.5,-142 722.5,-142 722.5,-140 335.5,-140"/>
<polygon fill="#000000" stroke="none" points="335.5,-138 335.5,-140 722.5,-140 722.5,-138 335.5,-138"/>
<text text-anchor="start" x="491.88" y="-120.7" font-family="arial" font-size="14.00">Yellow Right</text>
<text text-anchor="start" x="339.25" y="-99.7" font-family="arial" font-size="14.00">X STO Molex MicroFit:3:STO 2&#45;</text>
<text text-anchor="start" x="539.62" y="-99.7" font-family="arial" font-size="14.00"> &#160;&#160;&#160;&#160;GN &#160;&#160;&#160;</text>
<text text-anchor="start" x="600.38" y="-99.7" font-family="arial" font-size="14.00">Ferrules:3:ST2N.BL</text>
<polygon fill="#000000" stroke="none" points="335.5,-94 335.5,-96 722.5,-96 722.5,-94 335.5,-94"/>
<polygon fill="#00ff00" stroke="none" points="335.5,-92 335.5,-94 722.5,-94 722.5,-92 335.5,-92"/>
<polygon fill="#000000" stroke="none" points="335.5,-90 335.5,-92 722.5,-92 722.5,-90 335.5,-90"/>
<text text-anchor="start" x="499.38" y="-72.7" font-family="arial" font-size="14.00">Black Left</text>
<text text-anchor="start" x="339.25" y="-51.7" font-family="arial" font-size="14.00">X STO Molex MicroFit:4:STO 1&#45;</text>
<text text-anchor="start" x="538.5" y="-51.7" font-family="arial" font-size="14.00"> &#160;&#160;&#160;&#160;WH &#160;&#160;&#160;</text>
<text text-anchor="start" x="599.25" y="-51.7" font-family="arial" font-size="14.00">Ferrules:4:ST1N.BR</text>
<polygon fill="#000000" stroke="none" points="335.5,-46 335.5,-48 722.5,-48 722.5,-46 335.5,-46"/>
<polygon fill="#ffffff" stroke="none" points="335.5,-44 335.5,-46 722.5,-46 722.5,-44 335.5,-44"/>
<polygon fill="#000000" stroke="none" points="335.5,-42 335.5,-44 722.5,-44 722.5,-42 335.5,-42"/>
<text text-anchor="start" x="494.88" y="-24.7" font-family="arial" font-size="14.00">Black Right</text>
<text text-anchor="start" x="434.12" y="-3.7" font-family="arial" font-size="14.00"> </text>
</g>
<!-- X STO Molex MicroFit&#45;&#45;W1 -->
<g id="edge9" class="edge">
<title>X STO Molex MicroFit:e&#45;&#45;W1:w</title>
<path fill="none" stroke="#000000" stroke-width="2" d="M191.5,-149.38C259.56,-150.78 271.26,-188.41 335.5,-187"/>
<path fill="none" stroke="#ffff00" stroke-width="2" d="M191.5,-151.38C257.65,-151.38 269.35,-189 335.5,-189"/>
<path fill="none" stroke="#000000" stroke-width="2" d="M191.5,-153.37C255.74,-151.97 267.44,-189.59 335.5,-191"/>
</g>
<!-- X STO Molex MicroFit&#45;&#45;W1 -->
<g id="edge11" class="edge">
<title>X STO Molex MicroFit:e&#45;&#45;W1:w</title>
<path fill="none" stroke="#000000" stroke-width="2" d="M191.5,-126.38C257.01,-126.82 272.52,-139.45 335.5,-139"/>
<path fill="none" stroke="#895956" stroke-width="2" d="M191.5,-128.38C255.75,-128.38 271.25,-141 335.5,-141"/>
<path fill="none" stroke="#000000" stroke-width="2" d="M191.5,-130.37C254.48,-129.93 269.99,-142.55 335.5,-143"/>
</g>
<!-- X STO Molex MicroFit&#45;&#45;W1 -->
<g id="edge13" class="edge">
<title>X STO Molex MicroFit:e&#45;&#45;W1:w</title>
<path fill="none" stroke="#000000" stroke-width="2" d="M191.5,-103.38C254.49,-103.81 270.02,-91.44 335.5,-91"/>
<path fill="none" stroke="#00ff00" stroke-width="2" d="M191.5,-105.38C255.74,-105.38 271.26,-93 335.5,-93"/>
<path fill="none" stroke="#000000" stroke-width="2" d="M191.5,-107.37C256.98,-106.94 272.51,-94.56 335.5,-95"/>
</g>
<!-- X STO Molex MicroFit&#45;&#45;W1 -->
<g id="edge15" class="edge">
<title>X STO Molex MicroFit:e&#45;&#45;W1:w</title>
<path fill="none" stroke="#000000" stroke-width="2" d="M191.5,-80.38C255.71,-81.77 267.47,-44.4 335.5,-43"/>
<path fill="none" stroke="#ffffff" stroke-width="2" d="M191.5,-82.38C257.62,-82.38 269.38,-45 335.5,-45"/>
<path fill="none" stroke="#000000" stroke-width="2" d="M191.5,-84.37C259.53,-82.98 271.29,-45.6 335.5,-47"/>
</g>
<!-- Ground Terminal Block -->
<g id="node5" class="node">
<title>Ground Terminal Block</title>
<polygon fill="#ffffff" stroke="black" points="2183.38,-124.12 2011.12,-124.12 2011.12,-13.38 2183.38,-13.38 2183.38,-124.12"/>
<polygon fill="none" stroke="black" points="2011.12,-100.38 2011.12,-124.12 2183.38,-124.12 2183.38,-100.38 2011.12,-100.38"/>
<text text-anchor="start" x="2028.25" y="-106.83" font-family="arial" font-size="14.00">Ground Terminal Block</text>
<polygon fill="none" stroke="black" points="2011.12,-76.62 2011.12,-100.38 2183.38,-100.38 2183.38,-76.62 2011.12,-76.62"/>
<text text-anchor="start" x="2082.25" y="-83.08" font-family="arial" font-size="14.00">1&#45;pin</text>
<polygon fill="none" stroke="black" points="2011.12,-52.88 2011.12,-76.62 2085.62,-76.62 2085.62,-52.88 2011.12,-52.88"/>
<text text-anchor="start" x="2044.62" y="-59.33" font-family="arial" font-size="14.00">1</text>
<polygon fill="none" stroke="black" points="2085.62,-52.88 2085.62,-76.62 2183.38,-76.62 2183.38,-52.88 2085.62,-52.88"/>
<text text-anchor="start" x="2119.12" y="-59.33" font-family="arial" font-size="14.00">GND</text>
<polygon fill="none" stroke="black" points="2011.12,-13.38 2011.12,-52.88 2183.38,-52.88 2183.38,-13.38 2011.12,-13.38"/>
<text text-anchor="start" x="2015.12" y="-35.58" font-family="arial" font-size="14.00">Phoenix Contact (3273124)</text>
<text text-anchor="start" x="2015.12" y="-19.82" font-family="arial" font-size="14.00">PTFIX 6/18X2,5&#45;NS35 BK</text>
</g>
<!-- 24V Terminal Block -->
<g id="node6" class="node">
<title>24V Terminal Block</title>
<polygon fill="#ffffff" stroke="black" points="1144.88,-402.12 973.38,-402.12 973.38,-291.38 1144.88,-291.38 1144.88,-402.12"/>
<polygon fill="none" stroke="black" points="973.38,-378.38 973.38,-402.12 1144.88,-402.12 1144.88,-378.38 973.38,-378.38"/>
<text text-anchor="start" x="1001" y="-384.82" font-family="arial" font-size="14.00">24V Terminal Block</text>
<polygon fill="none" stroke="black" points="973.38,-354.62 973.38,-378.38 1144.88,-378.38 1144.88,-354.62 973.38,-354.62"/>
<text text-anchor="start" x="1044.12" y="-361.07" font-family="arial" font-size="14.00">1&#45;pin</text>
<polygon fill="none" stroke="black" points="973.38,-330.88 973.38,-354.62 1067.38,-354.62 1067.38,-330.88 973.38,-330.88"/>
<text text-anchor="start" x="1008.38" y="-337.32" font-family="arial" font-size="14.00">24V</text>
<polygon fill="none" stroke="black" points="1067.38,-330.88 1067.38,-354.62 1144.88,-354.62 1144.88,-330.88 1067.38,-330.88"/>
<text text-anchor="start" x="1102.38" y="-337.32" font-family="arial" font-size="14.00">1</text>
<polygon fill="none" stroke="black" points="973.38,-291.38 973.38,-330.88 1144.88,-330.88 1144.88,-291.38 973.38,-291.38"/>
<text text-anchor="start" x="977.38" y="-313.57" font-family="arial" font-size="14.00">Phoenix Contact (3273118)</text>
<text text-anchor="start" x="977.38" y="-297.82" font-family="arial" font-size="14.00">PTFIX 6/18X2,5&#45;NS35 GN</text>
</g>
<!-- 24V Terminal Block&#45;&#45;W3 -->
<g id="edge3" class="edge">
<title>24V Terminal Block:e&#45;&#45;W3:w</title>
<path fill="none" stroke="#000000" stroke-width="2" d="M1145.88,-340.75C1262.61,-341.36 1289.89,-369.61 1403.75,-369"/>
<path fill="none" stroke="#895956" stroke-width="2" d="M1145.88,-342.75C1261.17,-342.75 1288.45,-371 1403.75,-371"/>
<path fill="none" stroke="#000000" stroke-width="2" d="M1145.88,-344.75C1259.73,-344.14 1287.01,-372.39 1403.75,-373"/>
</g>
<!-- 24V Terminal Block&#45;&#45;W4 -->
<g id="edge7" class="edge">
<title>24V Terminal Block:e&#45;&#45;W4:w</title>
<path fill="none" stroke="#000000" stroke-width="2" d="M1145.88,-340.75C1269.42,-342.77 1268.2,-211.02 1395.75,-209"/>
<path fill="none" stroke="#895956" stroke-width="2" d="M1145.88,-342.75C1271.42,-342.75 1270.2,-211 1395.75,-211"/>
<path fill="none" stroke="#000000" stroke-width="2" d="M1145.88,-344.75C1273.42,-342.73 1272.2,-210.98 1395.75,-213"/>
</g>
<!-- W3&#45;&#45;Reed Switch Left -->
<g id="edge2" class="edge">
<title>W3:e&#45;&#45;Reed Switch Left:w</title>
<path fill="none" stroke="#000000" stroke-width="2" d="M1822.75,-394C1890.23,-394 1907.12,-393.38 1974.75,-393.38"/>
<path fill="none" stroke="#ffffff" stroke-width="2" d="M1822.75,-396C1890.31,-396 1907.19,-395.38 1974.75,-395.38"/>
<path fill="none" stroke="#000000" stroke-width="2" d="M1822.75,-398C1890.38,-398 1907.27,-397.37 1974.75,-397.37"/>
</g>
<!-- W3&#45;&#45;Reed Switch Left -->
<g id="edge4" class="edge">
<title>W3:e&#45;&#45;Reed Switch Left:w</title>
<path fill="none" stroke="#000000" stroke-width="2" d="M1822.75,-369C1890.47,-369.01 1907.35,-370.38 1974.75,-370.38"/>
<path fill="none" stroke="#895956" stroke-width="2" d="M1822.75,-371C1890.31,-371 1907.19,-372.38 1974.75,-372.37"/>
<path fill="none" stroke="#000000" stroke-width="2" d="M1822.75,-373C1890.15,-372.99 1907.03,-374.37 1974.75,-374.37"/>
</g>
<!-- W4&#45;&#45;Reed Switch Right -->
<g id="edge6" class="edge">
<title>W4:e&#45;&#45;Reed Switch Right:w</title>
<path fill="none" stroke="#000000" stroke-width="2" d="M1830.75,-234C1894.67,-234 1910.67,-233.38 1974.75,-233.38"/>
<path fill="none" stroke="#ffffff" stroke-width="2" d="M1830.75,-236C1894.75,-236 1910.75,-235.38 1974.75,-235.38"/>
<path fill="none" stroke="#000000" stroke-width="2" d="M1830.75,-238C1894.83,-238 1910.83,-237.37 1974.75,-237.37"/>
</g>
<!-- W4&#45;&#45;Reed Switch Right -->
<g id="edge8" class="edge">
<title>W4:e&#45;&#45;Reed Switch Right:w</title>
<path fill="none" stroke="#000000" stroke-width="2" d="M1830.75,-209C1894.92,-209.01 1910.92,-210.38 1974.75,-210.38"/>
<path fill="none" stroke="#895956" stroke-width="2" d="M1830.75,-211C1894.75,-211 1910.75,-212.38 1974.75,-212.38"/>
<path fill="none" stroke="#000000" stroke-width="2" d="M1830.75,-213C1894.58,-212.99 1910.58,-214.37 1974.75,-214.37"/>
</g>
<!-- W1&#45;&#45;Ferrules -->
<g id="edge10" class="edge">
<title>W1:e&#45;&#45;Ferrules:w</title>
<path fill="none" stroke="#000000" stroke-width="2" d="M722.5,-187C786.75,-188.41 798.43,-150.66 866.5,-149.25"/>
<path fill="none" stroke="#ffff00" stroke-width="2" d="M722.5,-189C788.66,-189 800.34,-151.25 866.5,-151.25"/>
<path fill="none" stroke="#000000" stroke-width="2" d="M722.5,-191C790.57,-189.59 802.25,-151.84 866.5,-153.25"/>
</g>
<!-- W1&#45;&#45;Ferrules -->
<g id="edge12" class="edge">
<title>W1:e&#45;&#45;Ferrules:w</title>
<path fill="none" stroke="#000000" stroke-width="2" d="M722.5,-139C785.48,-139.46 800.98,-126.71 866.5,-126.25"/>
<path fill="none" stroke="#895956" stroke-width="2" d="M722.5,-141C786.75,-141 802.25,-128.25 866.5,-128.25"/>
<path fill="none" stroke="#000000" stroke-width="2" d="M722.5,-143C788.02,-142.54 803.52,-129.79 866.5,-130.25"/>
</g>
<!-- W1&#45;&#45;Ferrules -->
<g id="edge14" class="edge">
<title>W1:e&#45;&#45;Ferrules:w</title>
<path fill="none" stroke="#000000" stroke-width="2" d="M722.5,-91C787.97,-91.43 803.51,-103.68 866.5,-103.25"/>
<path fill="none" stroke="#00ff00" stroke-width="2" d="M722.5,-93C786.73,-93 802.27,-105.25 866.5,-105.25"/>
<path fill="none" stroke="#000000" stroke-width="2" d="M722.5,-95C785.49,-94.57 801.03,-106.82 866.5,-107.25"/>
</g>
<!-- W1&#45;&#45;Ferrules -->
<g id="edge16" class="edge">
<title>W1:e&#45;&#45;Ferrules:w</title>
<path fill="none" stroke="#000000" stroke-width="2" d="M722.5,-43C790.51,-44.4 802.3,-81.65 866.5,-80.25"/>
<path fill="none" stroke="#ffffff" stroke-width="2" d="M722.5,-45C788.61,-45 800.39,-82.25 866.5,-82.25"/>
<path fill="none" stroke="#000000" stroke-width="2" d="M722.5,-47C786.7,-45.6 798.49,-82.85 866.5,-84.25"/>
</g>
<!-- W2&#45;&#45;Ground Terminal Block -->
<g id="edge18" class="edge">
<title>W2:e&#45;&#45;Ground Terminal Block:w</title>
<path fill="none" stroke="#000000" stroke-width="2" d="M1803.75,-74C1894.72,-74.21 1917.38,-62.96 2010.12,-62.75"/>
<path fill="none" stroke="#000000" stroke-width="2" d="M1803.75,-76C1895.61,-76 1918.27,-64.75 2010.12,-64.75"/>
<path fill="none" stroke="#000000" stroke-width="2" d="M1803.75,-78C1896.5,-77.79 1919.16,-66.54 2010.12,-66.75"/>
</g>
<!-- W2&#45;&#45;Ground Terminal Block -->
<g id="edge20" class="edge">
<title>W2:e&#45;&#45;Ground Terminal Block:w</title>
<path fill="none" stroke="#000000" stroke-width="2" d="M1803.75,-49C1896.72,-49.29 1919.24,-63.04 2010.12,-62.75"/>
<path fill="none" stroke="#000000" stroke-width="2" d="M1803.75,-51C1895.68,-51 1918.2,-64.75 2010.12,-64.75"/>
<path fill="none" stroke="#000000" stroke-width="2" d="M1803.75,-53C1894.63,-52.71 1917.16,-66.46 2010.12,-66.75"/>
</g>
</g>
</svg>
