<?xml version="1.0" encoding="UTF-8" standalone="no"?>
<!DOCTYPE svg PUBLIC "-//W3C//DTD SVG 1.1//EN"
 "http://www.w3.org/Graphics/SVG/1.1/DTD/svg11.dtd">
<!-- Generated by graphviz version 11.0.0 (20240428.1522)
 -->
<!-- Pages: 1 -->
<svg width="897pt" height="366pt"
 viewBox="0.00 0.00 897.00 366.00" xmlns="http://www.w3.org/2000/svg" xmlns:xlink="http://www.w3.org/1999/xlink">
<g id="graph0" class="graph" transform="scale(1 1) rotate(0) translate(4 362)">
<polygon fill="#ffffff" stroke="none" points="-4,4 -4,-362 893,-362 893,4 -4,4"/>
<!-- X1 -->
<g id="node1" class="node">
<title>X1</title>
<polygon fill="#ffffff" stroke="black" points="183.75,-324 0,-324 0,-179 183.75,-179 183.75,-324"/>
<polygon fill="none" stroke="black" points="0,-299.5 0,-324 183.75,-324 183.75,-299.5 0,-299.5"/>
<text text-anchor="start" x="82.88" y="-306.7" font-family="arial" font-size="14.00">X1</text>
<polygon fill="none" stroke="black" points="0,-275 0,-299.5 105.5,-299.5 105.5,-275 0,-275"/>
<text text-anchor="start" x="4" y="-282.2" font-family="arial" font-size="14.00">M12 Connector</text>
<polygon fill="none" stroke="black" points="105.5,-275 105.5,-299.5 144.25,-299.5 144.25,-275 105.5,-275"/>
<text text-anchor="start" x="109.5" y="-282.2" font-family="arial" font-size="14.00">male</text>
<polygon fill="none" stroke="black" points="144.25,-275 144.25,-299.5 183.75,-299.5 183.75,-275 144.25,-275"/>
<text text-anchor="start" x="148.25" y="-282.2" font-family="arial" font-size="14.00">4&#45;pin</text>
<polygon fill="none" stroke="black" points="0,-251 0,-275 104.88,-275 104.88,-251 0,-251"/>
<text text-anchor="start" x="37.06" y="-257.7" font-family="arial" font-size="14.00">&#45;24V</text>
<polygon fill="none" stroke="black" points="104.88,-251 104.88,-275 183.75,-275 183.75,-251 104.88,-251"/>
<text text-anchor="start" x="140.19" y="-257.7" font-family="arial" font-size="14.00">1</text>
<polygon fill="none" stroke="black" points="0,-227 0,-251 104.88,-251 104.88,-227 0,-227"/>
<text text-anchor="start" x="36.69" y="-233.7" font-family="arial" font-size="14.00">GND</text>
<polygon fill="none" stroke="black" points="104.88,-227 104.88,-251 183.75,-251 183.75,-227 104.88,-227"/>
<text text-anchor="start" x="140.19" y="-233.7" font-family="arial" font-size="14.00">2</text>
<polygon fill="none" stroke="black" points="0,-203 0,-227 104.88,-227 104.88,-203 0,-203"/>
<text text-anchor="start" x="35.19" y="-209.7" font-family="arial" font-size="14.00">+24V</text>
<polygon fill="none" stroke="black" points="104.88,-203 104.88,-227 183.75,-227 183.75,-203 104.88,-203"/>
<text text-anchor="start" x="140.19" y="-209.7" font-family="arial" font-size="14.00">3</text>
<polygon fill="none" stroke="black" points="0,-179 0,-203 104.88,-203 104.88,-179 0,-179"/>
<text text-anchor="start" x="36.69" y="-185.7" font-family="arial" font-size="14.00">GND</text>
<polygon fill="none" stroke="black" points="104.88,-179 104.88,-203 183.75,-203 183.75,-179 104.88,-179"/>
<text text-anchor="start" x="140.19" y="-185.7" font-family="arial" font-size="14.00">4</text>
</g>
<!-- W1 -->
<g id="node4" class="node">
<title>W1</title>
<polygon fill="#ffffff" stroke="black" points="544.75,-358 327.75,-358 327.75,-165 544.75,-165 544.75,-358"/>
<polygon fill="none" stroke="black" points="327.75,-333.5 327.75,-358 544.75,-358 544.75,-333.5 327.75,-333.5"/>
<text text-anchor="start" x="425" y="-340.7" font-family="arial" font-size="14.00">W1</text>
<polygon fill="none" stroke="black" points="327.75,-309 327.75,-333.5 544.75,-333.5 544.75,-309 327.75,-309"/>
<text text-anchor="start" x="428.75" y="-316.2" font-family="arial" font-size="14.00">4x</text>
<text text-anchor="start" x="361.88" y="-293.7" font-family="arial" font-size="14.00"> </text>
<text text-anchor="start" x="331.5" y="-273.7" font-family="arial" font-size="14.00">X1:1:&#45;24V</text>
<text text-anchor="start" x="401.38" y="-273.7" font-family="arial" font-size="14.00"> &#160;&#160;&#160;&#160;1:WH &#160;&#160;&#160;</text>
<text text-anchor="start" x="476.5" y="-273.7" font-family="arial" font-size="14.00">X2:1:&#45;24V</text>
<polygon fill="#000000" stroke="none" points="327.75,-267 327.75,-269 544.75,-269 544.75,-267 327.75,-267"/>
<polygon fill="#ffffff" stroke="none" points="327.75,-265 327.75,-267 544.75,-267 544.75,-265 327.75,-265"/>
<polygon fill="#000000" stroke="none" points="327.75,-263 327.75,-265 544.75,-265 544.75,-263 327.75,-263"/>
<text text-anchor="start" x="331.12" y="-247.7" font-family="arial" font-size="14.00">X1:2:GND</text>
<text text-anchor="start" x="403.62" y="-247.7" font-family="arial" font-size="14.00"> &#160;&#160;&#160;&#160;2:BU &#160;&#160;&#160;</text>
<text text-anchor="start" x="476.12" y="-247.7" font-family="arial" font-size="14.00">X2:2:GND</text>
<polygon fill="#000000" stroke="none" points="327.75,-241 327.75,-243 544.75,-243 544.75,-241 327.75,-241"/>
<polygon fill="#0066ff" stroke="none" points="327.75,-239 327.75,-241 544.75,-241 544.75,-239 327.75,-239"/>
<polygon fill="#000000" stroke="none" points="327.75,-237 327.75,-239 544.75,-239 544.75,-237 327.75,-237"/>
<text text-anchor="start" x="329.62" y="-221.7" font-family="arial" font-size="14.00">X1:3:+24V</text>
<text text-anchor="start" x="403.62" y="-221.7" font-family="arial" font-size="14.00"> &#160;&#160;&#160;&#160;3:BN &#160;&#160;&#160;</text>
<text text-anchor="start" x="474.62" y="-221.7" font-family="arial" font-size="14.00">X2:3:+24V</text>
<polygon fill="#000000" stroke="none" points="327.75,-215 327.75,-217 544.75,-217 544.75,-215 327.75,-215"/>
<polygon fill="#895956" stroke="none" points="327.75,-213 327.75,-215 544.75,-215 544.75,-213 327.75,-213"/>
<polygon fill="#000000" stroke="none" points="327.75,-211 327.75,-213 544.75,-213 544.75,-211 327.75,-211"/>
<text text-anchor="start" x="331.12" y="-195.7" font-family="arial" font-size="14.00">X1:4:GND</text>
<text text-anchor="start" x="403.62" y="-195.7" font-family="arial" font-size="14.00"> &#160;&#160;&#160;&#160;4:BK &#160;&#160;&#160;</text>
<text text-anchor="start" x="476.12" y="-195.7" font-family="arial" font-size="14.00">X2:4:GND</text>
<polygon fill="#000000" stroke="none" points="327.75,-189 327.75,-191 544.75,-191 544.75,-189 327.75,-189"/>
<polygon fill="#000000" stroke="none" points="327.75,-187 327.75,-189 544.75,-189 544.75,-187 327.75,-187"/>
<polygon fill="#000000" stroke="none" points="327.75,-185 327.75,-187 544.75,-187 544.75,-185 327.75,-185"/>
<text text-anchor="start" x="361.88" y="-169.7" font-family="arial" font-size="14.00"> </text>
</g>
<!-- X1&#45;&#45;W1 -->
<g id="edge1" class="edge">
<title>X1:e&#45;&#45;W1:w</title>
<path fill="none" stroke="#000000" stroke-width="2" d="M183.75,-261C248.13,-261.03 264.11,-264.03 327.75,-264"/>
<path fill="none" stroke="#ffffff" stroke-width="2" d="M183.75,-263C247.76,-263 263.74,-266 327.75,-266"/>
<path fill="none" stroke="#000000" stroke-width="2" d="M183.75,-265C247.39,-264.97 263.37,-267.97 327.75,-268"/>
</g>
<!-- X1&#45;&#45;W1 -->
<g id="edge3" class="edge">
<title>X1:e&#45;&#45;W1:w</title>
<path fill="none" stroke="#000000" stroke-width="2" d="M183.75,-237C247.88,-237 263.87,-238 327.75,-238"/>
<path fill="none" stroke="#0066ff" stroke-width="2" d="M183.75,-239C247.75,-239 263.75,-240 327.75,-240"/>
<path fill="none" stroke="#000000" stroke-width="2" d="M183.75,-241C247.63,-241 263.62,-242 327.75,-242"/>
</g>
<!-- X1&#45;&#45;W1 -->
<g id="edge5" class="edge">
<title>X1:e&#45;&#45;W1:w</title>
<path fill="none" stroke="#000000" stroke-width="2" d="M183.75,-213C247.63,-213 263.62,-212 327.75,-212"/>
<path fill="none" stroke="#895956" stroke-width="2" d="M183.75,-215C247.75,-215 263.75,-214 327.75,-214"/>
<path fill="none" stroke="#000000" stroke-width="2" d="M183.75,-217C247.88,-217 263.87,-216 327.75,-216"/>
</g>
<!-- X1&#45;&#45;W1 -->
<g id="edge7" class="edge">
<title>X1:e&#45;&#45;W1:w</title>
<path fill="none" stroke="#000000" stroke-width="2" d="M183.75,-189C247.39,-189.03 263.37,-186.03 327.75,-186"/>
<path fill="none" stroke="#000000" stroke-width="2" d="M183.75,-191C247.76,-191 263.74,-188 327.75,-188"/>
<path fill="none" stroke="#000000" stroke-width="2" d="M183.75,-193C248.13,-192.97 264.11,-189.97 327.75,-190"/>
</g>
<!-- X2 -->
<g id="node2" class="node">
<title>X2</title>
<polygon fill="#ffffff" stroke="black" points="889,-322 688.75,-322 688.75,-177 889,-177 889,-322"/>
<polygon fill="none" stroke="black" points="688.75,-297.5 688.75,-322 889,-322 889,-297.5 688.75,-297.5"/>
<text text-anchor="start" x="779.88" y="-304.7" font-family="arial" font-size="14.00">X2</text>
<polygon fill="none" stroke="black" points="688.75,-273 688.75,-297.5 798,-297.5 798,-273 688.75,-273"/>
<text text-anchor="start" x="692.75" y="-280.2" font-family="arial" font-size="14.00">Molex Mini Fit Jr</text>
<polygon fill="none" stroke="black" points="798,-273 798,-297.5 849.5,-297.5 849.5,-273 798,-273"/>
<text text-anchor="start" x="802" y="-280.2" font-family="arial" font-size="14.00">female</text>
<polygon fill="none" stroke="black" points="849.5,-273 849.5,-297.5 889,-297.5 889,-273 849.5,-273"/>
<text text-anchor="start" x="853.5" y="-280.2" font-family="arial" font-size="14.00">4&#45;pin</text>
<polygon fill="none" stroke="black" points="688.75,-249 688.75,-273 775.88,-273 775.88,-249 688.75,-249"/>
<text text-anchor="start" x="728.19" y="-255.7" font-family="arial" font-size="14.00">1</text>
<polygon fill="none" stroke="black" points="775.88,-249 775.88,-273 889,-273 889,-249 775.88,-249"/>
<text text-anchor="start" x="817.06" y="-255.7" font-family="arial" font-size="14.00">&#45;24V</text>
<polygon fill="none" stroke="black" points="688.75,-225 688.75,-249 775.88,-249 775.88,-225 688.75,-225"/>
<text text-anchor="start" x="728.19" y="-231.7" font-family="arial" font-size="14.00">2</text>
<polygon fill="none" stroke="black" points="775.88,-225 775.88,-249 889,-249 889,-225 775.88,-225"/>
<text text-anchor="start" x="816.69" y="-231.7" font-family="arial" font-size="14.00">GND</text>
<polygon fill="none" stroke="black" points="688.75,-201 688.75,-225 775.88,-225 775.88,-201 688.75,-201"/>
<text text-anchor="start" x="728.19" y="-207.7" font-family="arial" font-size="14.00">3</text>
<polygon fill="none" stroke="black" points="775.88,-201 775.88,-225 889,-225 889,-201 775.88,-201"/>
<text text-anchor="start" x="815.19" y="-207.7" font-family="arial" font-size="14.00">+24V</text>
<polygon fill="none" stroke="black" points="688.75,-177 688.75,-201 775.88,-201 775.88,-177 688.75,-177"/>
<text text-anchor="start" x="728.19" y="-183.7" font-family="arial" font-size="14.00">4</text>
<polygon fill="none" stroke="black" points="775.88,-177 775.88,-201 889,-201 889,-177 775.88,-177"/>
<text text-anchor="start" x="816.69" y="-183.7" font-family="arial" font-size="14.00">GND</text>
</g>
<!-- X3 -->
<g id="node3" class="node">
<title>X3</title>
<polygon fill="#ffffff" stroke="black" points="171.88,-109 11.88,-109 11.88,-12 171.88,-12 171.88,-109"/>
<polygon fill="none" stroke="black" points="11.88,-84.5 11.88,-109 171.88,-109 171.88,-84.5 11.88,-84.5"/>
<text text-anchor="start" x="82.88" y="-91.7" font-family="arial" font-size="14.00">X3</text>
<polygon fill="none" stroke="black" points="11.88,-60 11.88,-84.5 132.38,-84.5 132.38,-60 11.88,-60"/>
<text text-anchor="start" x="15.88" y="-67.2" font-family="arial" font-size="14.00">24V DC Axial Fan</text>
<polygon fill="none" stroke="black" points="132.38,-60 132.38,-84.5 171.88,-84.5 171.88,-60 132.38,-60"/>
<text text-anchor="start" x="136.38" y="-67.2" font-family="arial" font-size="14.00">2&#45;pin</text>
<polygon fill="none" stroke="black" points="11.88,-36 11.88,-60 104.88,-60 104.88,-36 11.88,-36"/>
<text text-anchor="start" x="41.12" y="-42.7" font-family="arial" font-size="14.00">+24V</text>
<polygon fill="none" stroke="black" points="104.88,-36 104.88,-60 171.88,-60 171.88,-36 104.88,-36"/>
<text text-anchor="start" x="134.25" y="-42.7" font-family="arial" font-size="14.00">1</text>
<polygon fill="none" stroke="black" points="11.88,-12 11.88,-36 104.88,-36 104.88,-12 11.88,-12"/>
<text text-anchor="start" x="42.62" y="-18.7" font-family="arial" font-size="14.00">GND</text>
<polygon fill="none" stroke="black" points="104.88,-12 104.88,-36 171.88,-36 171.88,-12 104.88,-12"/>
<text text-anchor="start" x="134.25" y="-18.7" font-family="arial" font-size="14.00">2</text>
</g>
<!-- W2 -->
<g id="node5" class="node">
<title>W2</title>
<polygon fill="#ffffff" stroke="black" points="543.25,-141 329.25,-141 329.25,0 543.25,0 543.25,-141"/>
<polygon fill="none" stroke="black" points="329.25,-116.5 329.25,-141 543.25,-141 543.25,-116.5 329.25,-116.5"/>
<text text-anchor="start" x="425" y="-123.7" font-family="arial" font-size="14.00">W2</text>
<polygon fill="none" stroke="black" points="329.25,-92 329.25,-116.5 543.25,-116.5 543.25,-92 329.25,-92"/>
<text text-anchor="start" x="428.75" y="-99.2" font-family="arial" font-size="14.00">2x</text>
<text text-anchor="start" x="363.38" y="-76.7" font-family="arial" font-size="14.00"> </text>
<text text-anchor="start" x="331.12" y="-56.7" font-family="arial" font-size="14.00">X3:1:+24V</text>
<text text-anchor="start" x="402.88" y="-56.7" font-family="arial" font-size="14.00"> &#160;&#160;&#160;&#160;1:RD &#160;&#160;&#160;</text>
<text text-anchor="start" x="473.12" y="-56.7" font-family="arial" font-size="14.00">X2:3:+24V</text>
<polygon fill="#000000" stroke="none" points="329.25,-50 329.25,-52 543.25,-52 543.25,-50 329.25,-50"/>
<polygon fill="#ff0000" stroke="none" points="329.25,-48 329.25,-50 543.25,-50 543.25,-48 329.25,-48"/>
<polygon fill="#000000" stroke="none" points="329.25,-46 329.25,-48 543.25,-48 543.25,-46 329.25,-46"/>
<text text-anchor="start" x="332.62" y="-30.7" font-family="arial" font-size="14.00">X3:2:GND</text>
<text text-anchor="start" x="403.62" y="-30.7" font-family="arial" font-size="14.00"> &#160;&#160;&#160;&#160;2:BK &#160;&#160;&#160;</text>
<text text-anchor="start" x="474.62" y="-30.7" font-family="arial" font-size="14.00">X2:4:GND</text>
<polygon fill="#000000" stroke="none" points="329.25,-24 329.25,-26 543.25,-26 543.25,-24 329.25,-24"/>
<polygon fill="#000000" stroke="none" points="329.25,-22 329.25,-24 543.25,-24 543.25,-22 329.25,-22"/>
<polygon fill="#000000" stroke="none" points="329.25,-20 329.25,-22 543.25,-22 543.25,-20 329.25,-20"/>
<text text-anchor="start" x="363.38" y="-4.7" font-family="arial" font-size="14.00"> </text>
</g>
<!-- X3&#45;&#45;W2 -->
<g id="edge9" class="edge">
<title>X3:e&#45;&#45;W2:w</title>
<path fill="none" stroke="#000000" stroke-width="2" d="M172.88,-46C242.05,-46 259.31,-47 328.25,-47"/>
<path fill="none" stroke="#ff0000" stroke-width="2" d="M172.88,-48C241.93,-48 259.19,-49 328.25,-49"/>
<path fill="none" stroke="#000000" stroke-width="2" d="M172.88,-50C241.82,-50 259.08,-51 328.25,-51"/>
</g>
<!-- X3&#45;&#45;W2 -->
<g id="edge11" class="edge">
<title>X3:e&#45;&#45;W2:w</title>
<path fill="none" stroke="#000000" stroke-width="2" d="M172.88,-22C241.82,-22 259.08,-21 328.25,-21"/>
<path fill="none" stroke="#000000" stroke-width="2" d="M172.88,-24C241.93,-24 259.19,-23 328.25,-23"/>
<path fill="none" stroke="#000000" stroke-width="2" d="M172.88,-26C242.05,-26 259.31,-25 328.25,-25"/>
</g>
<!-- W1&#45;&#45;X2 -->
<g id="edge2" class="edge">
<title>W1:e&#45;&#45;X2:w</title>
<path fill="none" stroke="#000000" stroke-width="2" d="M544.75,-264C608.19,-264.09 624.11,-259.09 688.75,-259"/>
<path fill="none" stroke="#ffffff" stroke-width="2" d="M544.75,-266C608.79,-266 624.71,-261 688.75,-261"/>
<path fill="none" stroke="#000000" stroke-width="2" d="M544.75,-268C609.39,-267.91 625.31,-262.91 688.75,-263"/>
</g>
<!-- W1&#45;&#45;X2 -->
<g id="edge4" class="edge">
<title>W1:e&#45;&#45;X2:w</title>
<path fill="none" stroke="#000000" stroke-width="2" d="M544.75,-238C608.39,-238.03 624.37,-235.03 688.75,-235"/>
<path fill="none" stroke="#0066ff" stroke-width="2" d="M544.75,-240C608.76,-240 624.74,-237 688.75,-237"/>
<path fill="none" stroke="#000000" stroke-width="2" d="M544.75,-242C609.13,-241.97 625.11,-238.97 688.75,-239"/>
</g>
<!-- W1&#45;&#45;X2 -->
<g id="edge6" class="edge">
<title>W1:e&#45;&#45;X2:w</title>
<path fill="none" stroke="#000000" stroke-width="2" d="M544.75,-212C608.63,-212 624.62,-211 688.75,-211"/>
<path fill="none" stroke="#895956" stroke-width="2" d="M544.75,-214C608.75,-214 624.75,-213 688.75,-213"/>
<path fill="none" stroke="#000000" stroke-width="2" d="M544.75,-216C608.88,-216 624.87,-215 688.75,-215"/>
</g>
<!-- W1&#45;&#45;X2 -->
<g id="edge8" class="edge">
<title>W1:e&#45;&#45;X2:w</title>
<path fill="none" stroke="#000000" stroke-width="2" d="M544.75,-186C608.88,-186 624.87,-187 688.75,-187"/>
<path fill="none" stroke="#000000" stroke-width="2" d="M544.75,-188C608.75,-188 624.75,-189 688.75,-189"/>
<path fill="none" stroke="#000000" stroke-width="2" d="M544.75,-190C608.63,-190 624.62,-191 688.75,-191"/>
</g>
<!-- W2&#45;&#45;X2 -->
<g id="edge10" class="edge">
<title>W2:e&#45;&#45;X2:w</title>
<path fill="none" stroke="#000000" stroke-width="2" d="M544.25,-47C643.31,-49.58 593.52,-213.58 688.75,-211"/>
<path fill="none" stroke="#ff0000" stroke-width="2" d="M544.25,-49C641.4,-49 591.6,-213 688.75,-213"/>
<path fill="none" stroke="#000000" stroke-width="2" d="M544.25,-51C639.48,-48.42 589.69,-212.42 688.75,-215"/>
</g>
<!-- W2&#45;&#45;X2 -->
<g id="edge12" class="edge">
<title>W2:e&#45;&#45;X2:w</title>
<path fill="none" stroke="#000000" stroke-width="2" d="M544.25,-21C643.98,-23.59 592.85,-189.59 688.75,-187"/>
<path fill="none" stroke="#000000" stroke-width="2" d="M544.25,-23C642.06,-23 590.94,-189 688.75,-189"/>
<path fill="none" stroke="#000000" stroke-width="2" d="M544.25,-25C640.15,-22.41 589.02,-188.41 688.75,-191"/>
</g>
</g>
</svg>
