<?xml version="1.0" encoding="UTF-8" standalone="no"?>
<!DOCTYPE svg PUBLIC "-//W3C//DTD SVG 1.1//EN"
 "http://www.w3.org/Graphics/SVG/1.1/DTD/svg11.dtd">
<!-- Generated by graphviz version 12.1.2 (20240928.0832)
 -->
<!-- Pages: 1 -->
<svg width="939pt" height="484pt"
 viewBox="0.00 0.00 938.50 483.50" xmlns="http://www.w3.org/2000/svg" xmlns:xlink="http://www.w3.org/1999/xlink">
<g id="graph0" class="graph" transform="scale(1 1) rotate(0) translate(4 479.5)">
<polygon fill="#ffffff" stroke="none" points="-4,4 -4,-479.5 934.5,-479.5 934.5,4 -4,4"/>
<!-- Z Motor -->
<g id="node1" class="node">
<title>Z Motor</title>
<polygon fill="#ffffff" stroke="black" points="145,-317.5 0,-317.5 0,-178 145,-178 145,-317.5"/>
<polygon fill="none" stroke="black" points="0,-293.75 0,-317.5 145,-317.5 145,-293.75 0,-293.75"/>
<text text-anchor="start" x="48.88" y="-300.2" font-family="arial" font-size="14.00">Z Motor</text>
<polygon fill="none" stroke="black" points="0,-270 0,-293.75 107,-293.75 107,-270 0,-270"/>
<text text-anchor="start" x="4" y="-276.45" font-family="arial" font-size="14.00">Molex SL 4 Way</text>
<polygon fill="none" stroke="black" points="107,-270 107,-293.75 145,-293.75 145,-270 107,-270"/>
<text text-anchor="start" x="111" y="-276.45" font-family="arial" font-size="14.00">4&#45;pin</text>
<polygon fill="none" stroke="black" points="0,-247 0,-270 77.5,-270 77.5,-247 0,-247"/>
<text text-anchor="start" x="30.12" y="-252.7" font-family="arial" font-size="14.00">A+</text>
<polygon fill="none" stroke="black" points="77.5,-247 77.5,-270 145,-270 145,-247 77.5,-247"/>
<text text-anchor="start" x="107.5" y="-252.7" font-family="arial" font-size="14.00">1</text>
<polygon fill="none" stroke="black" points="0,-224 0,-247 77.5,-247 77.5,-224 0,-224"/>
<text text-anchor="start" x="32" y="-229.7" font-family="arial" font-size="14.00">A&#45;</text>
<polygon fill="none" stroke="black" points="77.5,-224 77.5,-247 145,-247 145,-224 77.5,-224"/>
<text text-anchor="start" x="107.5" y="-229.7" font-family="arial" font-size="14.00">2</text>
<polygon fill="none" stroke="black" points="0,-201 0,-224 77.5,-224 77.5,-201 0,-201"/>
<text text-anchor="start" x="30.12" y="-206.7" font-family="arial" font-size="14.00">B+</text>
<polygon fill="none" stroke="black" points="77.5,-201 77.5,-224 145,-224 145,-201 77.5,-201"/>
<text text-anchor="start" x="107.5" y="-206.7" font-family="arial" font-size="14.00">3</text>
<polygon fill="none" stroke="black" points="0,-178 0,-201 77.5,-201 77.5,-178 0,-178"/>
<text text-anchor="start" x="32" y="-183.7" font-family="arial" font-size="14.00">B&#45;</text>
<polygon fill="none" stroke="black" points="77.5,-178 77.5,-201 145,-201 145,-178 77.5,-178"/>
<text text-anchor="start" x="107.5" y="-183.7" font-family="arial" font-size="14.00">4</text>
</g>
<!-- W1 -->
<g id="node3" class="node">
<title>W1</title>
<polygon fill="#ffffff" stroke="black" points="638.5,-475.5 289.5,-475.5 289.5,-250 638.5,-250 638.5,-475.5"/>
<polygon fill="none" stroke="black" points="289.5,-451.75 289.5,-475.5 638.5,-475.5 638.5,-451.75 289.5,-451.75"/>
<text text-anchor="start" x="453.5" y="-458.2" font-family="arial" font-size="14.00">W1</text>
<polygon fill="none" stroke="black" points="289.5,-428 289.5,-451.75 460.62,-451.75 460.62,-428 289.5,-428"/>
<text text-anchor="start" x="367.94" y="-434.45" font-family="arial" font-size="14.00">4x</text>
<polygon fill="none" stroke="black" points="460.62,-428 460.62,-451.75 638.5,-451.75 638.5,-428 460.62,-428"/>
<text text-anchor="start" x="539.06" y="-434.45" font-family="arial" font-size="14.00">+ S</text>
<text text-anchor="start" x="329.12" y="-412.7" font-family="arial" font-size="14.00"> </text>
<text text-anchor="start" x="291.25" y="-393.7" font-family="arial" font-size="14.00">Z Motor:1:A+</text>
<text text-anchor="start" x="375.75" y="-393.7" font-family="arial" font-size="14.00"> &#160;&#160;&#160;&#160;1:RD &#160;&#160;&#160;</text>
<text text-anchor="start" x="448.75" y="-393.7" font-family="arial" font-size="14.00">Technosoft Drive Motor:1:A/A+</text>
<polygon fill="#000000" stroke="none" points="289.5,-388 289.5,-390 638.5,-390 638.5,-388 289.5,-388"/>
<polygon fill="#ff0000" stroke="none" points="289.5,-386 289.5,-388 638.5,-388 638.5,-386 289.5,-386"/>
<polygon fill="#000000" stroke="none" points="289.5,-384 289.5,-386 638.5,-386 638.5,-384 289.5,-384"/>
<text text-anchor="start" x="293.12" y="-368.7" font-family="arial" font-size="14.00">Z Motor:2:A&#45;</text>
<text text-anchor="start" x="376.12" y="-368.7" font-family="arial" font-size="14.00"> &#160;&#160;&#160;&#160;2:BN &#160;&#160;&#160;</text>
<text text-anchor="start" x="450.62" y="-368.7" font-family="arial" font-size="14.00">Technosoft Drive Motor:2:B/A&#45;</text>
<polygon fill="#000000" stroke="none" points="289.5,-363 289.5,-365 638.5,-365 638.5,-363 289.5,-363"/>
<polygon fill="#895956" stroke="none" points="289.5,-361 289.5,-363 638.5,-363 638.5,-361 289.5,-361"/>
<polygon fill="#000000" stroke="none" points="289.5,-359 289.5,-361 638.5,-361 638.5,-359 289.5,-359"/>
<text text-anchor="start" x="291.25" y="-343.7" font-family="arial" font-size="14.00">Z Motor:3:B+</text>
<text text-anchor="start" x="376.5" y="-343.7" font-family="arial" font-size="14.00"> &#160;&#160;&#160;&#160;3:YE &#160;&#160;&#160;</text>
<text text-anchor="start" x="450.25" y="-343.7" font-family="arial" font-size="14.00">Technosoft Drive Motor:3:C/B&#45;</text>
<polygon fill="#000000" stroke="none" points="289.5,-338 289.5,-340 638.5,-340 638.5,-338 289.5,-338"/>
<polygon fill="#ffff00" stroke="none" points="289.5,-336 289.5,-338 638.5,-338 638.5,-336 289.5,-336"/>
<polygon fill="#000000" stroke="none" points="289.5,-334 289.5,-336 638.5,-336 638.5,-334 289.5,-334"/>
<text text-anchor="start" x="293.12" y="-318.7" font-family="arial" font-size="14.00">Z Motor:4:B&#45;</text>
<text text-anchor="start" x="374.25" y="-318.7" font-family="arial" font-size="14.00"> &#160;&#160;&#160;&#160;4:OG &#160;&#160;&#160;</text>
<text text-anchor="start" x="445.38" y="-318.7" font-family="arial" font-size="14.00">Technosoft Drive Motor:4:CR/B&#45;</text>
<polygon fill="#000000" stroke="none" points="289.5,-313 289.5,-315 638.5,-315 638.5,-313 289.5,-313"/>
<polygon fill="#ff8000" stroke="none" points="289.5,-311 289.5,-313 638.5,-313 638.5,-311 289.5,-311"/>
<polygon fill="#000000" stroke="none" points="289.5,-309 289.5,-311 638.5,-311 638.5,-309 289.5,-309"/>
<text text-anchor="start" x="329.12" y="-293.7" font-family="arial" font-size="14.00"> </text>
<text text-anchor="start" x="389.25" y="-274.7" font-family="arial" font-size="14.00">Shield</text>
<polygon fill="#000000" stroke="none" points="289.5,-269 289.5,-271 638.5,-271 638.5,-269 289.5,-269"/>
<text text-anchor="start" x="329.12" y="-253.7" font-family="arial" font-size="14.00"> </text>
</g>
<!-- Z Motor&#45;&#45;W1 -->
<g id="edge1" class="edge">
<title>Z Motor:e&#45;&#45;W1:w</title>
<path fill="none" stroke="#000000" stroke-width="2" d="M145,-256.5C232.73,-258.92 205.18,-387.42 289,-385"/>
<path fill="none" stroke="#ff0000" stroke-width="2" d="M145,-258.5C230.78,-258.5 203.22,-387 289,-387"/>
<path fill="none" stroke="#000000" stroke-width="2" d="M145,-260.5C228.82,-258.08 201.27,-386.58 289,-389"/>
</g>
<!-- Z Motor&#45;&#45;W1 -->
<g id="edge3" class="edge">
<title>Z Motor:e&#45;&#45;W1:w</title>
<path fill="none" stroke="#000000" stroke-width="2" d="M145,-233.5C232.15,-235.91 205.77,-362.41 289,-360"/>
<path fill="none" stroke="#895956" stroke-width="2" d="M145,-235.5C230.19,-235.5 203.81,-362 289,-362"/>
<path fill="none" stroke="#000000" stroke-width="2" d="M145,-237.5C228.23,-235.09 201.85,-361.59 289,-364"/>
</g>
<!-- Z Motor&#45;&#45;W1 -->
<g id="edge5" class="edge">
<title>Z Motor:e&#45;&#45;W1:w</title>
<path fill="none" stroke="#000000" stroke-width="2" d="M145,-210.5C231.56,-212.9 206.36,-337.4 289,-335"/>
<path fill="none" stroke="#ffff00" stroke-width="2" d="M145,-212.5C229.6,-212.5 204.4,-337 289,-337"/>
<path fill="none" stroke="#000000" stroke-width="2" d="M145,-214.5C227.64,-212.1 202.44,-336.6 289,-339"/>
</g>
<!-- Z Motor&#45;&#45;W1 -->
<g id="edge7" class="edge">
<title>Z Motor:e&#45;&#45;W1:w</title>
<path fill="none" stroke="#000000" stroke-width="2" d="M145,-187.5C230.99,-189.89 206.94,-312.39 289,-310"/>
<path fill="none" stroke="#ff8000" stroke-width="2" d="M145,-189.5C229.02,-189.5 204.98,-312 289,-312"/>
<path fill="none" stroke="#000000" stroke-width="2" d="M145,-191.5C227.06,-189.11 203.01,-311.61 289,-314"/>
</g>
<!-- W2 -->
<g id="node4" class="node">
<title>W2</title>
<polygon fill="#ffffff" stroke="black" points="639,-225.5 289,-225.5 289,0 639,0 639,-225.5"/>
<polygon fill="none" stroke="black" points="289,-201.75 289,-225.5 639,-225.5 639,-201.75 289,-201.75"/>
<text text-anchor="start" x="453.5" y="-208.2" font-family="arial" font-size="14.00">W2</text>
<polygon fill="none" stroke="black" points="289,-178 289,-201.75 460.62,-201.75 460.62,-178 289,-178"/>
<text text-anchor="start" x="367.69" y="-184.45" font-family="arial" font-size="14.00">4x</text>
<polygon fill="none" stroke="black" points="460.62,-178 460.62,-201.75 639,-201.75 639,-178 460.62,-178"/>
<text text-anchor="start" x="539.31" y="-184.45" font-family="arial" font-size="14.00">+ S</text>
<text text-anchor="start" x="328.62" y="-162.7" font-family="arial" font-size="14.00"> </text>
<text text-anchor="start" x="290.75" y="-143.7" font-family="arial" font-size="14.00">Z Motor:1:A+</text>
<text text-anchor="start" x="373.88" y="-143.7" font-family="arial" font-size="14.00"> &#160;&#160;&#160;&#160;1:WH &#160;&#160;&#160;</text>
<text text-anchor="start" x="449.25" y="-143.7" font-family="arial" font-size="14.00">Technosoft Drive Motor:1:A/A+</text>
<polygon fill="#000000" stroke="none" points="289,-138 289,-140 639,-140 639,-138 289,-138"/>
<polygon fill="#ffffff" stroke="none" points="289,-136 289,-138 639,-138 639,-136 289,-136"/>
<polygon fill="#000000" stroke="none" points="289,-134 289,-136 639,-136 639,-134 289,-134"/>
<text text-anchor="start" x="292.62" y="-118.7" font-family="arial" font-size="14.00">Z Motor:2:A&#45;</text>
<text text-anchor="start" x="376.12" y="-118.7" font-family="arial" font-size="14.00"> &#160;&#160;&#160;&#160;2:BN &#160;&#160;&#160;</text>
<text text-anchor="start" x="451.12" y="-118.7" font-family="arial" font-size="14.00">Technosoft Drive Motor:2:B/A&#45;</text>
<polygon fill="#000000" stroke="none" points="289,-113 289,-115 639,-115 639,-113 289,-113"/>
<polygon fill="#895956" stroke="none" points="289,-111 289,-113 639,-113 639,-111 289,-111"/>
<polygon fill="#000000" stroke="none" points="289,-109 289,-111 639,-111 639,-109 289,-109"/>
<text text-anchor="start" x="290.75" y="-93.7" font-family="arial" font-size="14.00">Z Motor:3:B+</text>
<text text-anchor="start" x="376.5" y="-93.7" font-family="arial" font-size="14.00"> &#160;&#160;&#160;&#160;3:YE &#160;&#160;&#160;</text>
<text text-anchor="start" x="450.75" y="-93.7" font-family="arial" font-size="14.00">Technosoft Drive Motor:3:C/B&#45;</text>
<polygon fill="#000000" stroke="none" points="289,-88 289,-90 639,-90 639,-88 289,-88"/>
<polygon fill="#ffff00" stroke="none" points="289,-86 289,-88 639,-88 639,-86 289,-86"/>
<polygon fill="#000000" stroke="none" points="289,-84 289,-86 639,-86 639,-84 289,-84"/>
<text text-anchor="start" x="292.62" y="-68.7" font-family="arial" font-size="14.00">Z Motor:4:B&#45;</text>
<text text-anchor="start" x="375" y="-68.7" font-family="arial" font-size="14.00"> &#160;&#160;&#160;&#160;4:GN &#160;&#160;&#160;</text>
<text text-anchor="start" x="445.88" y="-68.7" font-family="arial" font-size="14.00">Technosoft Drive Motor:4:CR/B&#45;</text>
<polygon fill="#000000" stroke="none" points="289,-63 289,-65 639,-65 639,-63 289,-63"/>
<polygon fill="#00ff00" stroke="none" points="289,-61 289,-63 639,-63 639,-61 289,-61"/>
<polygon fill="#000000" stroke="none" points="289,-59 289,-61 639,-61 639,-59 289,-59"/>
<text text-anchor="start" x="328.62" y="-43.7" font-family="arial" font-size="14.00"> </text>
<text text-anchor="start" x="389.25" y="-24.7" font-family="arial" font-size="14.00">Shield</text>
<polygon fill="#000000" stroke="none" points="289,-19 289,-21 639,-21 639,-19 289,-19"/>
<text text-anchor="start" x="328.62" y="-3.7" font-family="arial" font-size="14.00"> </text>
</g>
<!-- Z Motor&#45;&#45;W2 -->
<g id="edge10" class="edge">
<title>Z Motor:e&#45;&#45;W2:w</title>
<path fill="none" stroke="#000000" stroke-width="2" d="M145,-256.5C226.77,-258.88 203.3,-137.38 289,-135"/>
<path fill="none" stroke="#ffffff" stroke-width="2" d="M145,-258.5C228.74,-258.5 205.26,-137 289,-137"/>
<path fill="none" stroke="#000000" stroke-width="2" d="M145,-260.5C230.7,-258.12 207.23,-136.62 289,-139"/>
</g>
<!-- Z Motor&#45;&#45;W2 -->
<g id="edge12" class="edge">
<title>Z Motor:e&#45;&#45;W2:w</title>
<path fill="none" stroke="#000000" stroke-width="2" d="M145,-233.5C227.35,-235.89 202.72,-112.39 289,-110"/>
<path fill="none" stroke="#895956" stroke-width="2" d="M145,-235.5C229.31,-235.5 204.69,-112 289,-112"/>
<path fill="none" stroke="#000000" stroke-width="2" d="M145,-237.5C231.28,-235.11 206.65,-111.61 289,-114"/>
</g>
<!-- Z Motor&#45;&#45;W2 -->
<g id="edge14" class="edge">
<title>Z Motor:e&#45;&#45;W2:w</title>
<path fill="none" stroke="#000000" stroke-width="2" d="M145,-210.5C227.94,-212.9 202.15,-87.4 289,-85"/>
<path fill="none" stroke="#ffff00" stroke-width="2" d="M145,-212.5C229.89,-212.5 204.11,-87 289,-87"/>
<path fill="none" stroke="#000000" stroke-width="2" d="M145,-214.5C231.85,-212.1 206.06,-86.6 289,-89"/>
</g>
<!-- Z Motor&#45;&#45;W2 -->
<g id="edge16" class="edge">
<title>Z Motor:e&#45;&#45;W2:w</title>
<path fill="none" stroke="#000000" stroke-width="2" d="M145,-187.5C228.52,-189.91 201.56,-62.41 289,-60"/>
<path fill="none" stroke="#00ff00" stroke-width="2" d="M145,-189.5C230.48,-189.5 203.52,-62 289,-62"/>
<path fill="none" stroke="#000000" stroke-width="2" d="M145,-191.5C232.44,-189.09 205.48,-61.59 289,-64"/>
</g>
<!-- Technosoft Drive Motor -->
<g id="node2" class="node">
<title>Technosoft Drive Motor</title>
<polygon fill="#ffffff" stroke="black" points="930.5,-308 783,-308 783,-145.5 930.5,-145.5 930.5,-308"/>
<polygon fill="none" stroke="black" points="783,-284.25 783,-308 930.5,-308 930.5,-284.25 783,-284.25"/>
<text text-anchor="start" x="787" y="-290.7" font-family="arial" font-size="14.00">Technosoft Drive Motor</text>
<polygon fill="none" stroke="black" points="783,-260.5 783,-284.25 930.5,-284.25 930.5,-260.5 783,-260.5"/>
<text text-anchor="start" x="841.75" y="-266.95" font-family="arial" font-size="14.00">5&#45;pin</text>
<polygon fill="none" stroke="black" points="783,-237.5 783,-260.5 842.25,-260.5 842.25,-237.5 783,-237.5"/>
<text text-anchor="start" x="808.88" y="-243.2" font-family="arial" font-size="14.00">1</text>
<polygon fill="none" stroke="black" points="842.25,-237.5 842.25,-260.5 930.5,-260.5 930.5,-237.5 842.25,-237.5"/>
<text text-anchor="start" x="871.38" y="-243.2" font-family="arial" font-size="14.00">A/A+</text>
<polygon fill="none" stroke="black" points="783,-214.5 783,-237.5 842.25,-237.5 842.25,-214.5 783,-214.5"/>
<text text-anchor="start" x="808.88" y="-220.2" font-family="arial" font-size="14.00">2</text>
<polygon fill="none" stroke="black" points="842.25,-214.5 842.25,-237.5 930.5,-237.5 930.5,-214.5 842.25,-214.5"/>
<text text-anchor="start" x="873.25" y="-220.2" font-family="arial" font-size="14.00">B/A&#45;</text>
<polygon fill="none" stroke="black" points="783,-191.5 783,-214.5 842.25,-214.5 842.25,-191.5 783,-191.5"/>
<text text-anchor="start" x="808.88" y="-197.2" font-family="arial" font-size="14.00">3</text>
<polygon fill="none" stroke="black" points="842.25,-191.5 842.25,-214.5 930.5,-214.5 930.5,-191.5 842.25,-191.5"/>
<text text-anchor="start" x="872.88" y="-197.2" font-family="arial" font-size="14.00">C/B&#45;</text>
<polygon fill="none" stroke="black" points="783,-168.5 783,-191.5 842.25,-191.5 842.25,-168.5 783,-168.5"/>
<text text-anchor="start" x="808.88" y="-174.2" font-family="arial" font-size="14.00">4</text>
<polygon fill="none" stroke="black" points="842.25,-168.5 842.25,-191.5 930.5,-191.5 930.5,-168.5 842.25,-168.5"/>
<text text-anchor="start" x="868" y="-174.2" font-family="arial" font-size="14.00">CR/B&#45;</text>
<polygon fill="none" stroke="black" points="783,-145.5 783,-168.5 842.25,-168.5 842.25,-145.5 783,-145.5"/>
<text text-anchor="start" x="808.88" y="-151.2" font-family="arial" font-size="14.00">5</text>
<polygon fill="none" stroke="black" points="842.25,-145.5 842.25,-168.5 930.5,-168.5 930.5,-145.5 842.25,-145.5"/>
<text text-anchor="start" x="870.25" y="-151.2" font-family="arial" font-size="14.00">Earth</text>
</g>
<!-- W1&#45;&#45;Technosoft Drive Motor -->
<g id="edge2" class="edge">
<title>W1:e&#45;&#45;Technosoft Drive Motor:w</title>
<path fill="none" stroke="#000000" stroke-width="2" d="M639,-385C725.7,-387.47 692.41,-249.47 783,-247"/>
<path fill="none" stroke="#ff0000" stroke-width="2" d="M639,-387C727.64,-387 694.36,-249 783,-249"/>
<path fill="none" stroke="#000000" stroke-width="2" d="M639,-389C729.59,-386.53 696.3,-248.53 783,-251"/>
</g>
<!-- W1&#45;&#45;Technosoft Drive Motor -->
<g id="edge4" class="edge">
<title>W1:e&#45;&#45;Technosoft Drive Motor:w</title>
<path fill="none" stroke="#000000" stroke-width="2" d="M639,-360C725.08,-362.46 693.02,-226.46 783,-224"/>
<path fill="none" stroke="#895956" stroke-width="2" d="M639,-362C727.03,-362 694.97,-226 783,-226"/>
<path fill="none" stroke="#000000" stroke-width="2" d="M639,-364C728.98,-361.54 696.92,-225.54 783,-228"/>
</g>
<!-- W1&#45;&#45;Technosoft Drive Motor -->
<g id="edge6" class="edge">
<title>W1:e&#45;&#45;Technosoft Drive Motor:w</title>
<path fill="none" stroke="#000000" stroke-width="2" d="M639,-335C724.47,-337.45 693.63,-203.45 783,-201"/>
<path fill="none" stroke="#ffff00" stroke-width="2" d="M639,-337C726.42,-337 695.58,-203 783,-203"/>
<path fill="none" stroke="#000000" stroke-width="2" d="M639,-339C728.37,-336.55 697.53,-202.55 783,-205"/>
</g>
<!-- W1&#45;&#45;Technosoft Drive Motor -->
<g id="edge8" class="edge">
<title>W1:e&#45;&#45;Technosoft Drive Motor:w</title>
<path fill="none" stroke="#000000" stroke-width="2" d="M639,-310C723.87,-312.44 694.23,-180.44 783,-178"/>
<path fill="none" stroke="#ff8000" stroke-width="2" d="M639,-312C725.82,-312 696.18,-180 783,-180"/>
<path fill="none" stroke="#000000" stroke-width="2" d="M639,-314C727.77,-311.56 698.13,-179.56 783,-182"/>
</g>
<!-- W1&#45;&#45;Technosoft Drive Motor -->
<g id="edge9" class="edge">
<title>W1:e&#45;&#45;Technosoft Drive Motor:w</title>
<path fill="none" stroke="#000000" stroke-width="2" d="M639,-270C720.35,-270 701.65,-157 783,-157"/>
</g>
<!-- W2&#45;&#45;Technosoft Drive Motor -->
<g id="edge11" class="edge">
<title>W2:e&#45;&#45;Technosoft Drive Motor:w</title>
<path fill="none" stroke="#000000" stroke-width="2" d="M639,-135C722.05,-137.32 703.9,-249.32 783,-247"/>
<path fill="none" stroke="#ffffff" stroke-width="2" d="M639,-137C720.08,-137 701.92,-249 783,-249"/>
<path fill="none" stroke="#000000" stroke-width="2" d="M639,-139C718.1,-136.68 699.95,-248.68 783,-251"/>
</g>
<!-- W2&#45;&#45;Technosoft Drive Motor -->
<g id="edge13" class="edge">
<title>W2:e&#45;&#45;Technosoft Drive Motor:w</title>
<path fill="none" stroke="#000000" stroke-width="2" d="M639,-110C722.6,-112.33 703.34,-226.33 783,-224"/>
<path fill="none" stroke="#895956" stroke-width="2" d="M639,-112C720.63,-112 701.37,-226 783,-226"/>
<path fill="none" stroke="#000000" stroke-width="2" d="M639,-114C718.66,-111.67 699.4,-225.67 783,-228"/>
</g>
<!-- W2&#45;&#45;Technosoft Drive Motor -->
<g id="edge15" class="edge">
<title>W2:e&#45;&#45;Technosoft Drive Motor:w</title>
<path fill="none" stroke="#000000" stroke-width="2" d="M639,-85C723.15,-87.35 702.79,-203.35 783,-201"/>
<path fill="none" stroke="#ffff00" stroke-width="2" d="M639,-87C721.18,-87 700.82,-203 783,-203"/>
<path fill="none" stroke="#000000" stroke-width="2" d="M639,-89C719.21,-86.65 698.85,-202.65 783,-205"/>
</g>
<!-- W2&#45;&#45;Technosoft Drive Motor -->
<g id="edge17" class="edge">
<title>W2:e&#45;&#45;Technosoft Drive Motor:w</title>
<path fill="none" stroke="#000000" stroke-width="2" d="M639,-60C723.71,-62.36 702.22,-180.36 783,-178"/>
<path fill="none" stroke="#00ff00" stroke-width="2" d="M639,-62C721.74,-62 700.26,-180 783,-180"/>
<path fill="none" stroke="#000000" stroke-width="2" d="M639,-64C719.78,-61.64 698.29,-179.64 783,-182"/>
</g>
<!-- W2&#45;&#45;Technosoft Drive Motor -->
<g id="edge18" class="edge">
<title>W2:e&#45;&#45;Technosoft Drive Motor:w</title>
<path fill="none" stroke="#000000" stroke-width="2" d="M639,-20C727.34,-20 694.66,-157 783,-157"/>
</g>
</g>
</svg>
