<?xml version="1.0" encoding="UTF-8" standalone="no"?>
<!DOCTYPE svg PUBLIC "-//W3C//DTD SVG 1.1//EN"
 "http://www.w3.org/Graphics/SVG/1.1/DTD/svg11.dtd">
<!-- Generated by graphviz version 12.1.2 (20240928.0832)
 -->
<!-- Pages: 1 -->
<svg width="954pt" height="215pt"
 viewBox="0.00 0.00 953.75 214.50" xmlns="http://www.w3.org/2000/svg" xmlns:xlink="http://www.w3.org/1999/xlink">
<g id="graph0" class="graph" transform="scale(1 1) rotate(0) translate(4 210.5)">
<polygon fill="#ffffff" stroke="none" points="-4,4 -4,-210.5 949.75,-210.5 949.75,4 -4,4"/>
<!-- FDM Printer -->
<g id="node1" class="node">
<title>FDM Printer</title>
<polygon fill="#ffffff" stroke="black" points="122.25,-206.5 0,-206.5 0,-21 122.25,-21 122.25,-206.5"/>
<polygon fill="none" stroke="black" points="0,-182.75 0,-206.5 122.25,-206.5 122.25,-182.75 0,-182.75"/>
<text text-anchor="start" x="24.38" y="-189.2" font-family="arial" font-size="14.00">FDM Printer</text>
<polygon fill="none" stroke="black" points="0,-159 0,-182.75 37.25,-182.75 37.25,-159 0,-159"/>
<text text-anchor="start" x="4" y="-165.45" font-family="arial" font-size="14.00">4 pin</text>
<polygon fill="none" stroke="black" points="37.25,-159 37.25,-182.75 84.25,-182.75 84.25,-159 37.25,-159"/>
<text text-anchor="start" x="41.25" y="-165.45" font-family="arial" font-size="14.00">Y&#45;CLS</text>
<polygon fill="none" stroke="black" points="84.25,-159 84.25,-182.75 122.25,-182.75 122.25,-159 84.25,-159"/>
<text text-anchor="start" x="88.25" y="-165.45" font-family="arial" font-size="14.00">6&#45;pin</text>
<polygon fill="none" stroke="black" points="0,-136 0,-159 61.12,-159 61.12,-136 0,-136"/>
<text text-anchor="start" x="26.81" y="-141.7" font-family="arial" font-size="14.00">1</text>
<polygon fill="none" stroke="black" points="61.12,-136 61.12,-159 122.25,-159 122.25,-136 61.12,-136"/>
<text text-anchor="start" x="87.94" y="-141.7" font-family="arial" font-size="14.00">1</text>
<polygon fill="none" stroke="black" points="0,-113 0,-136 61.12,-136 61.12,-113 0,-113"/>
<text text-anchor="start" x="26.81" y="-118.7" font-family="arial" font-size="14.00">2</text>
<polygon fill="none" stroke="black" points="61.12,-113 61.12,-136 122.25,-136 122.25,-113 61.12,-113"/>
<text text-anchor="start" x="87.94" y="-118.7" font-family="arial" font-size="14.00">2</text>
<polygon fill="none" stroke="black" points="0,-90 0,-113 61.12,-113 61.12,-90 0,-90"/>
<text text-anchor="start" x="26.81" y="-95.7" font-family="arial" font-size="14.00">3</text>
<polygon fill="none" stroke="black" points="61.12,-90 61.12,-113 122.25,-113 122.25,-90 61.12,-90"/>
<text text-anchor="start" x="87.94" y="-95.7" font-family="arial" font-size="14.00">3</text>
<polygon fill="none" stroke="black" points="0,-67 0,-90 61.12,-90 61.12,-67 0,-67"/>
<text text-anchor="start" x="26.81" y="-72.7" font-family="arial" font-size="14.00">4</text>
<polygon fill="none" stroke="black" points="61.12,-67 61.12,-90 122.25,-90 122.25,-67 61.12,-67"/>
<text text-anchor="start" x="87.94" y="-72.7" font-family="arial" font-size="14.00">4</text>
<polygon fill="none" stroke="black" points="0,-44 0,-67 61.12,-67 61.12,-44 0,-44"/>
<text text-anchor="start" x="26.81" y="-49.7" font-family="arial" font-size="14.00">5</text>
<polygon fill="none" stroke="black" points="61.12,-44 61.12,-67 122.25,-67 122.25,-44 61.12,-44"/>
<text text-anchor="start" x="87.94" y="-49.7" font-family="arial" font-size="14.00">5</text>
<polygon fill="none" stroke="black" points="0,-21 0,-44 61.12,-44 61.12,-21 0,-21"/>
<text text-anchor="start" x="26.81" y="-26.7" font-family="arial" font-size="14.00">6</text>
<polygon fill="none" stroke="black" points="61.12,-21 61.12,-44 122.25,-44 122.25,-21 61.12,-21"/>
<text text-anchor="start" x="87.94" y="-26.7" font-family="arial" font-size="14.00">6</text>
</g>
<!-- W1 -->
<g id="node3" class="node">
<title>W1</title>
<polygon fill="#ffffff" stroke="black" points="545.25,-204.5 266.25,-204.5 266.25,-19 545.25,-19 545.25,-204.5"/>
<polygon fill="none" stroke="black" points="266.25,-180.75 266.25,-204.5 545.25,-204.5 545.25,-180.75 266.25,-180.75"/>
<text text-anchor="start" x="395.25" y="-187.2" font-family="arial" font-size="14.00">W1</text>
<polygon fill="none" stroke="black" points="266.25,-157 266.25,-180.75 387,-180.75 387,-157 266.25,-157"/>
<text text-anchor="start" x="319.5" y="-163.45" font-family="arial" font-size="14.00">4x</text>
<polygon fill="none" stroke="black" points="387,-157 387,-180.75 545.25,-180.75 545.25,-157 387,-157"/>
<text text-anchor="start" x="440.25" y="-163.45" font-family="arial" font-size="14.00">24 AWG</text>
<text text-anchor="start" x="314.38" y="-141.7" font-family="arial" font-size="14.00"> </text>
<text text-anchor="start" x="268.25" y="-122.7" font-family="arial" font-size="14.00">FDM Printer:2:2</text>
<text text-anchor="start" x="370.12" y="-122.7" font-family="arial" font-size="14.00"> &#160;&#160;&#160;&#160;1:VT &#160;&#160;&#160;</text>
<text text-anchor="start" x="439" y="-122.7" font-family="arial" font-size="14.00">DriverBoard:1:5V</text>
<polygon fill="#000000" stroke="none" points="266.25,-117 266.25,-119 545.25,-119 545.25,-117 266.25,-117"/>
<polygon fill="#8000ff" stroke="none" points="266.25,-115 266.25,-117 545.25,-117 545.25,-115 266.25,-115"/>
<polygon fill="#000000" stroke="none" points="266.25,-113 266.25,-115 545.25,-115 545.25,-113 266.25,-113"/>
<text text-anchor="start" x="268.25" y="-97.7" font-family="arial" font-size="14.00">FDM Printer:3:3</text>
<text text-anchor="start" x="369.38" y="-97.7" font-family="arial" font-size="14.00"> &#160;&#160;&#160;&#160;2:BU &#160;&#160;&#160;</text>
<text text-anchor="start" x="439" y="-97.7" font-family="arial" font-size="14.00">DriverBoard:6:0V</text>
<polygon fill="#000000" stroke="none" points="266.25,-92 266.25,-94 545.25,-94 545.25,-92 266.25,-92"/>
<polygon fill="#0066ff" stroke="none" points="266.25,-90 266.25,-92 545.25,-92 545.25,-90 266.25,-90"/>
<polygon fill="#000000" stroke="none" points="266.25,-88 266.25,-90 545.25,-90 545.25,-88 266.25,-88"/>
<text text-anchor="start" x="268.25" y="-72.7" font-family="arial" font-size="14.00">FDM Printer:5:5</text>
<text text-anchor="start" x="368.25" y="-72.7" font-family="arial" font-size="14.00"> &#160;&#160;&#160;&#160;3:GN &#160;&#160;&#160;</text>
<text text-anchor="start" x="438.25" y="-72.7" font-family="arial" font-size="14.00">DriverBoard:4:BS</text>
<polygon fill="#000000" stroke="none" points="266.25,-67 266.25,-69 545.25,-69 545.25,-67 266.25,-67"/>
<polygon fill="#00ff00" stroke="none" points="266.25,-65 266.25,-67 545.25,-67 545.25,-65 266.25,-65"/>
<polygon fill="#000000" stroke="none" points="266.25,-63 266.25,-65 545.25,-65 545.25,-63 266.25,-63"/>
<text text-anchor="start" x="268.25" y="-47.7" font-family="arial" font-size="14.00">FDM Printer:6:6</text>
<text text-anchor="start" x="369.75" y="-47.7" font-family="arial" font-size="14.00"> &#160;&#160;&#160;&#160;4:YE &#160;&#160;&#160;</text>
<text text-anchor="start" x="437.88" y="-47.7" font-family="arial" font-size="14.00">DriverBoard:3:AD</text>
<polygon fill="#000000" stroke="none" points="266.25,-42 266.25,-44 545.25,-44 545.25,-42 266.25,-42"/>
<polygon fill="#ffff00" stroke="none" points="266.25,-40 266.25,-42 545.25,-42 545.25,-40 266.25,-40"/>
<polygon fill="#000000" stroke="none" points="266.25,-38 266.25,-40 545.25,-40 545.25,-38 266.25,-38"/>
<text text-anchor="start" x="314.38" y="-22.7" font-family="arial" font-size="14.00"> </text>
</g>
<!-- FDM Printer&#45;&#45;W1 -->
<g id="edge1" class="edge">
<title>FDM Printer:e&#45;&#45;W1:w</title>
<path fill="none" stroke="#000000" stroke-width="2" d="M122.25,-122.5C185.41,-122.74 201.19,-114.24 266.25,-114"/>
<path fill="none" stroke="#8000ff" stroke-width="2" d="M122.25,-124.5C186.36,-124.5 202.14,-116 266.25,-116"/>
<path fill="none" stroke="#000000" stroke-width="2" d="M122.25,-126.5C187.31,-126.26 203.09,-117.76 266.25,-118"/>
</g>
<!-- FDM Printer&#45;&#45;W1 -->
<g id="edge3" class="edge">
<title>FDM Printer:e&#45;&#45;W1:w</title>
<path fill="none" stroke="#000000" stroke-width="2" d="M122.25,-99.5C185.31,-99.84 200.97,-89.34 266.25,-89"/>
<path fill="none" stroke="#0066ff" stroke-width="2" d="M122.25,-101.5C186.42,-101.5 202.08,-91 266.25,-91"/>
<path fill="none" stroke="#000000" stroke-width="2" d="M122.25,-103.5C187.53,-103.16 203.19,-92.66 266.25,-93"/>
</g>
<!-- FDM Printer&#45;&#45;W1 -->
<g id="edge5" class="edge">
<title>FDM Printer:e&#45;&#45;W1:w</title>
<path fill="none" stroke="#000000" stroke-width="2" d="M122.25,-53.5C187.53,-53.84 203.19,-64.34 266.25,-64"/>
<path fill="none" stroke="#00ff00" stroke-width="2" d="M122.25,-55.5C186.42,-55.5 202.08,-66 266.25,-66"/>
<path fill="none" stroke="#000000" stroke-width="2" d="M122.25,-57.5C185.31,-57.16 200.97,-67.66 266.25,-68"/>
</g>
<!-- FDM Printer&#45;&#45;W1 -->
<g id="edge7" class="edge">
<title>FDM Printer:e&#45;&#45;W1:w</title>
<path fill="none" stroke="#000000" stroke-width="2" d="M122.25,-30.5C187.31,-30.74 203.09,-39.24 266.25,-39"/>
<path fill="none" stroke="#ffff00" stroke-width="2" d="M122.25,-32.5C186.36,-32.5 202.14,-41 266.25,-41"/>
<path fill="none" stroke="#000000" stroke-width="2" d="M122.25,-34.5C185.41,-34.26 201.19,-42.76 266.25,-43"/>
</g>
<!-- DriverBoard -->
<g id="node2" class="node">
<title>DriverBoard</title>
<polygon fill="#ffffff" stroke="black" points="945.75,-185.5 689.25,-185.5 689.25,0 945.75,0 945.75,-185.5"/>
<polygon fill="none" stroke="black" points="689.25,-161.75 689.25,-185.5 945.75,-185.5 945.75,-161.75 689.25,-161.75"/>
<text text-anchor="start" x="781.5" y="-168.2" font-family="arial" font-size="14.00">DriverBoard</text>
<polygon fill="none" stroke="black" points="689.25,-138 689.25,-161.75 796.25,-161.75 796.25,-138 689.25,-138"/>
<text text-anchor="start" x="693.25" y="-144.45" font-family="arial" font-size="14.00">Molex SL 6 Way</text>
<polygon fill="none" stroke="black" points="796.25,-138 796.25,-161.75 907.75,-161.75 907.75,-138 796.25,-138"/>
<text text-anchor="start" x="800.25" y="-144.45" font-family="arial" font-size="14.00">Stepper Interface</text>
<polygon fill="none" stroke="black" points="907.75,-138 907.75,-161.75 945.75,-161.75 945.75,-138 907.75,-138"/>
<text text-anchor="start" x="911.75" y="-144.45" font-family="arial" font-size="14.00">6&#45;pin</text>
<polygon fill="none" stroke="black" points="689.25,-115 689.25,-138 812,-138 812,-115 689.25,-115"/>
<text text-anchor="start" x="746.88" y="-120.7" font-family="arial" font-size="14.00">1</text>
<polygon fill="none" stroke="black" points="812,-115 812,-138 945.75,-138 945.75,-115 812,-115"/>
<text text-anchor="start" x="870.62" y="-120.7" font-family="arial" font-size="14.00">5V</text>
<polygon fill="none" stroke="black" points="689.25,-92 689.25,-115 812,-115 812,-92 689.25,-92"/>
<text text-anchor="start" x="746.88" y="-97.7" font-family="arial" font-size="14.00">2</text>
<polygon fill="none" stroke="black" points="812,-92 812,-115 945.75,-115 945.75,-92 812,-92"/>
<text text-anchor="start" x="869.88" y="-97.7" font-family="arial" font-size="14.00">AS</text>
<polygon fill="none" stroke="black" points="689.25,-69 689.25,-92 812,-92 812,-69 689.25,-69"/>
<text text-anchor="start" x="746.88" y="-74.7" font-family="arial" font-size="14.00">3</text>
<polygon fill="none" stroke="black" points="812,-69 812,-92 945.75,-92 945.75,-69 812,-69"/>
<text text-anchor="start" x="869.5" y="-74.7" font-family="arial" font-size="14.00">AD</text>
<polygon fill="none" stroke="black" points="689.25,-46 689.25,-69 812,-69 812,-46 689.25,-46"/>
<text text-anchor="start" x="746.88" y="-51.7" font-family="arial" font-size="14.00">4</text>
<polygon fill="none" stroke="black" points="812,-46 812,-69 945.75,-69 945.75,-46 812,-46"/>
<text text-anchor="start" x="869.88" y="-51.7" font-family="arial" font-size="14.00">BS</text>
<polygon fill="none" stroke="black" points="689.25,-23 689.25,-46 812,-46 812,-23 689.25,-23"/>
<text text-anchor="start" x="746.88" y="-28.7" font-family="arial" font-size="14.00">5</text>
<polygon fill="none" stroke="black" points="812,-23 812,-46 945.75,-46 945.75,-23 812,-23"/>
<text text-anchor="start" x="869.5" y="-28.7" font-family="arial" font-size="14.00">BD</text>
<polygon fill="none" stroke="black" points="689.25,0 689.25,-23 812,-23 812,0 689.25,0"/>
<text text-anchor="start" x="746.88" y="-5.7" font-family="arial" font-size="14.00">6</text>
<polygon fill="none" stroke="black" points="812,0 812,-23 945.75,-23 945.75,0 812,0"/>
<text text-anchor="start" x="870.62" y="-5.7" font-family="arial" font-size="14.00">0V</text>
</g>
<!-- W1&#45;&#45;DriverBoard -->
<g id="edge2" class="edge">
<title>W1:e&#45;&#45;DriverBoard:w</title>
<path fill="none" stroke="#000000" stroke-width="2" d="M545.25,-114C610.53,-114.34 626.19,-124.84 689.25,-124.5"/>
<path fill="none" stroke="#8000ff" stroke-width="2" d="M545.25,-116C609.42,-116 625.08,-126.5 689.25,-126.5"/>
<path fill="none" stroke="#000000" stroke-width="2" d="M545.25,-118C608.31,-117.66 623.97,-128.16 689.25,-128.5"/>
</g>
<!-- W1&#45;&#45;DriverBoard -->
<g id="edge4" class="edge">
<title>W1:e&#45;&#45;DriverBoard:w</title>
<path fill="none" stroke="#000000" stroke-width="2" d="M545.25,-89C616.36,-91.06 614.15,-11.56 689.25,-9.5"/>
<path fill="none" stroke="#0066ff" stroke-width="2" d="M545.25,-91C618.36,-91 616.14,-11.5 689.25,-11.5"/>
<path fill="none" stroke="#000000" stroke-width="2" d="M545.25,-93C620.35,-90.94 618.14,-11.44 689.25,-13.5"/>
</g>
<!-- W1&#45;&#45;DriverBoard -->
<g id="edge6" class="edge">
<title>W1:e&#45;&#45;DriverBoard:w</title>
<path fill="none" stroke="#000000" stroke-width="2" d="M545.25,-64C608.41,-64.24 624.19,-55.74 689.25,-55.5"/>
<path fill="none" stroke="#00ff00" stroke-width="2" d="M545.25,-66C609.36,-66 625.14,-57.5 689.25,-57.5"/>
<path fill="none" stroke="#000000" stroke-width="2" d="M545.25,-68C610.31,-67.76 626.09,-59.26 689.25,-59.5"/>
</g>
<!-- W1&#45;&#45;DriverBoard -->
<g id="edge8" class="edge">
<title>W1:e&#45;&#45;DriverBoard:w</title>
<path fill="none" stroke="#000000" stroke-width="2" d="M545.25,-39C613.54,-40.45 624.81,-79.95 689.25,-78.5"/>
<path fill="none" stroke="#ffff00" stroke-width="2" d="M545.25,-41C611.61,-41 622.89,-80.5 689.25,-80.5"/>
<path fill="none" stroke="#000000" stroke-width="2" d="M545.25,-43C609.69,-41.55 620.96,-81.05 689.25,-82.5"/>
</g>
</g>
</svg>
